<ttFont>
    <TTGlyph name=".notdef" xMin="-20" yMin="0" xMax="553" yMax="700">
      <contour>
        <pt x="-20" y="0" on="1"/>
        <pt x="53" y="700" on="1"/>
        <pt x="553" y="700" on="1"/>
        <pt x="480" y="0" on="1"/>
      </contour>
      <contour>
        <pt x="271" y="395" on="1"/>
        <pt x="467" y="650" on="1"/>
        <pt x="127" y="650" on="1"/>
      </contour>
      <contour>
        <pt x="39" y="95" on="1"/>
        <pt x="236" y="350" on="1"/>
        <pt x="92" y="605" on="1"/>
      </contour>
      <contour>
        <pt x="439" y="95" on="1"/>
        <pt x="492" y="605" on="1"/>
        <pt x="296" y="350" on="1"/>
      </contour>
      <contour>
        <pt x="65" y="50" on="1"/>
        <pt x="405" y="50" on="1"/>
        <pt x="261" y="305" on="1"/>
      </contour>
    </TTGlyph>
    <TTGlyph name="A" xMin="-21" yMin="-2" xMax="474" yMax="702">
      <contour>
        <pt x="-21" y="-2" on="0"/>
        <pt x="-19" y="18" on="1"/>
        <pt x="-19" y="22" on="0"/>
        <pt x="-15" y="34" on="1"/>
        <pt x="218" y="677" on="1"/>
        <pt x="228" y="702" on="0"/>
        <pt x="274" y="702" on="1"/>
        <pt x="321" y="702" on="1"/>
        <pt x="368" y="702" on="0"/>
        <pt x="372" y="677" on="1"/>
        <pt x="473" y="34" on="1"/>
        <pt x="474" y="28" on="0"/>
        <pt x="474" y="18" on="1"/>
        <pt x="472" y="-2" on="0"/>
        <pt x="431" y="-2" on="1"/>
        <pt x="393" y="-2" on="1"/>
        <pt x="353" y="-2" on="0"/>
        <pt x="350" y="17" on="1"/>
        <pt x="332" y="154" on="1"/>
        <pt x="153" y="154" on="1"/>
        <pt x="107" y="17" on="1"/>
        <pt x="100" y="-2" on="0"/>
        <pt x="62" y="-2" on="1"/>
        <pt x="23" y="-2" on="1"/>
      </contour>
      <contour>
        <pt x="322" y="258" on="1"/>
        <pt x="293" y="496" on="1"/>
        <pt x="288" y="534" on="0"/>
        <pt x="288" y="567" on="1"/>
        <pt x="283" y="567" on="1"/>
        <pt x="269" y="513" on="0"/>
        <pt x="263" y="496" on="1"/>
        <pt x="182" y="258" on="1"/>
      </contour>
    </TTGlyph>
    <TTGlyph name="AE" xMin="-26" yMin="-2" xMax="719" yMax="700">
      <contour>
        <pt x="-26" y="-2" on="0"/>
        <pt x="-23" y="18" on="1"/>
        <pt x="-23" y="25" on="0"/>
        <pt x="-18" y="35" on="1"/>
        <pt x="298" y="673" on="1"/>
        <pt x="306" y="687" on="0"/>
        <pt x="323" y="700" on="0"/>
        <pt x="336" y="700" on="1"/>
        <pt x="697" y="700" on="1"/>
        <pt x="719" y="700" on="0"/>
        <pt x="719" y="672" on="1"/>
        <pt x="719" y="662" on="0"/>
        <pt x="718" y="657" on="1"/>
        <pt x="716" y="632" on="1"/>
        <pt x="712" y="589" on="0"/>
        <pt x="686" y="589" on="1"/>
        <pt x="460" y="589" on="1"/>
        <pt x="464" y="414" on="1"/>
        <pt x="666" y="414" on="1"/>
        <pt x="688" y="414" on="0"/>
        <pt x="688" y="386" on="1"/>
        <pt x="688" y="376" on="0"/>
        <pt x="687" y="371" on="1"/>
        <pt x="685" y="346" on="1"/>
        <pt x="682" y="323" on="0"/>
        <pt x="667" y="303" on="0"/>
        <pt x="654" y="303" on="1"/>
        <pt x="467" y="303" on="1"/>
        <pt x="472" y="111" on="1"/>
        <pt x="657" y="111" on="1"/>
        <pt x="678" y="111" on="0"/>
        <pt x="678" y="83" on="1"/>
        <pt x="678" y="74" on="0"/>
        <pt x="677" y="68" on="1"/>
        <pt x="675" y="43" on="1"/>
        <pt x="672" y="20" on="0"/>
        <pt x="658" y="0" on="0"/>
        <pt x="645" y="0" on="1"/>
        <pt x="374" y="0" on="1"/>
        <pt x="349" y="0" on="0"/>
        <pt x="350" y="30" on="1"/>
        <pt x="346" y="154" on="1"/>
        <pt x="166" y="154" on="1"/>
        <pt x="99" y="17" on="1"/>
        <pt x="90" y="-2" on="0"/>
        <pt x="60" y="-2" on="1"/>
        <pt x="26" y="-2" on="1"/>
      </contour>
      <contour>
        <pt x="216" y="266" on="1"/>
        <pt x="346" y="266" on="1"/>
        <pt x="343" y="480" on="1"/>
        <pt x="350" y="547" on="1"/>
        <pt x="347" y="547" on="1"/>
        <pt x="318" y="481" on="1"/>
      </contour>
    </TTGlyph>
    <TTGlyph name="AEacute" xMin="-23" yMin="-2" xMax="719" yMax="910">
      <component glyphName="AE" x="0" y="0" flags="0x0"/>
      <component glyphName="acute" x="351" y="177" flags="0x4"/>
    </TTGlyph>
    <TTGlyph name="Aacute" xMin="-19" yMin="-2" xMax="474" yMax="910">
      <component glyphName="A" x="0" y="0" flags="0x0"/>
      <component glyphName="acute" x="210" y="177" flags="0x4"/>
    </TTGlyph>
    <TTGlyph name="Abreve" xMin="-19" yMin="-2" xMax="474" yMax="892">
      <component glyphName="A" x="0" y="0" flags="0x0"/>
      <component glyphName="breve" x="146" y="177" flags="0x4"/>
    </TTGlyph>
    <TTGlyph name="Acircumflex" xMin="-19" yMin="-2" xMax="474" yMax="895">
      <component glyphName="A" x="0" y="0" flags="0x0"/>
      <component glyphName="circumflex" x="146" y="177" flags="0x4"/>
    </TTGlyph>
    <TTGlyph name="Adieresis" xMin="-19" yMin="-2" xMax="474" yMax="879">
      <component glyphName="A" x="0" y="0" flags="0x0"/>
      <component glyphName="dieresis" x="144" y="177" flags="0x4"/>
    </TTGlyph>
    <TTGlyph name="Agrave" xMin="-19" yMin="-2" xMax="474" yMax="910">
      <component glyphName="A" x="0" y="0" flags="0x0"/>
      <component glyphName="grave" x="138" y="177" flags="0x4"/>
    </TTGlyph>
    <TTGlyph name="Amacron" xMin="-19" yMin="-2" xMax="474" yMax="865">
      <component glyphName="A" x="0" y="0" flags="0x0"/>
      <component glyphName="macron" x="146" y="177" flags="0x4"/>
    </TTGlyph>
    <TTGlyph name="Aogonek" xMin="-21" yMin="-170" xMax="486" yMax="702">
      <contour>
        <pt x="473" y="-98" on="0"/>
        <pt x="486" y="-111" on="0"/>
        <pt x="486" y="-126" on="1"/>
        <pt x="486" y="-147" on="0"/>
        <pt x="471" y="-155" on="1"/>
        <pt x="444" y="-170" on="0"/>
        <pt x="411" y="-170" on="1"/>
        <pt x="355" y="-170" on="0"/>
        <pt x="316" y="-111" on="0"/>
        <pt x="316" y="-78" on="1"/>
        <pt x="316" y="-56" on="0"/>
        <pt x="331" y="0" on="0"/>
        <pt x="349" y="26" on="1"/>
        <pt x="332" y="154" on="1"/>
        <pt x="153" y="154" on="1"/>
        <pt x="107" y="17" on="1"/>
        <pt x="100" y="-2" on="0"/>
        <pt x="62" y="-2" on="1"/>
        <pt x="23" y="-2" on="1"/>
        <pt x="-21" y="-2" on="0"/>
        <pt x="-19" y="18" on="1"/>
        <pt x="-19" y="22" on="0"/>
        <pt x="-15" y="34" on="1"/>
        <pt x="218" y="677" on="1"/>
        <pt x="228" y="702" on="0"/>
        <pt x="274" y="702" on="1"/>
        <pt x="321" y="702" on="1"/>
        <pt x="368" y="702" on="0"/>
        <pt x="372" y="677" on="1"/>
        <pt x="473" y="34" on="1"/>
        <pt x="474" y="28" on="0"/>
        <pt x="474" y="18" on="1"/>
        <pt x="472" y="-2" on="0"/>
        <pt x="431" y="-2" on="1"/>
        <pt x="393" y="-2" on="1"/>
        <pt x="381" y="-34" on="0"/>
        <pt x="381" y="-60" on="1"/>
        <pt x="381" y="-85" on="0"/>
        <pt x="409" y="-103" on="0"/>
        <pt x="430" y="-103" on="1"/>
        <pt x="438" y="-103" on="0"/>
        <pt x="455" y="-98" on="0"/>
        <pt x="460" y="-98" on="1"/>
      </contour>
      <contour>
        <pt x="322" y="258" on="1"/>
        <pt x="293" y="496" on="1"/>
        <pt x="288" y="534" on="0"/>
        <pt x="288" y="567" on="1"/>
        <pt x="283" y="567" on="1"/>
        <pt x="269" y="513" on="0"/>
        <pt x="263" y="496" on="1"/>
        <pt x="182" y="258" on="1"/>
      </contour>
    </TTGlyph>
    <TTGlyph name="Aring" xMin="-19" yMin="-2" xMax="474" yMax="920">
      <component glyphName="A" x="0" y="0" flags="0x0"/>
      <component glyphName="ring" x="144" y="177" flags="0x4"/>
    </TTGlyph>
    <TTGlyph name="Aringacute" xMin="-21" yMin="-2" xMax="474" yMax="930">
      <contour>
        <pt x="275" y="816" on="0"/>
        <pt x="263" y="822" on="0"/>
        <pt x="264" y="829" on="1"/>
        <pt x="285" y="866" on="0"/>
        <pt x="311" y="904" on="1"/>
        <pt x="331" y="930" on="0"/>
        <pt x="391" y="930" on="1"/>
        <pt x="420" y="930" on="0"/>
        <pt x="446" y="924" on="0"/>
        <pt x="445" y="917" on="1"/>
        <pt x="445" y="913" on="0"/>
        <pt x="428" y="897" on="0"/>
        <pt x="408" y="880" on="1"/>
        <pt x="359" y="838" on="1"/>
        <pt x="337" y="816" on="0"/>
        <pt x="291" y="816" on="1"/>
      </contour>
      <contour>
        <pt x="474" y="28" on="0"/>
        <pt x="474" y="18" on="1"/>
        <pt x="472" y="-2" on="0"/>
        <pt x="431" y="-2" on="1"/>
        <pt x="393" y="-2" on="1"/>
        <pt x="353" y="-2" on="0"/>
        <pt x="350" y="17" on="1"/>
        <pt x="332" y="154" on="1"/>
        <pt x="153" y="154" on="1"/>
        <pt x="107" y="17" on="1"/>
        <pt x="100" y="-2" on="0"/>
        <pt x="62" y="-2" on="1"/>
        <pt x="23" y="-2" on="1"/>
        <pt x="-21" y="-2" on="0"/>
        <pt x="-19" y="18" on="1"/>
        <pt x="-19" y="22" on="0"/>
        <pt x="-15" y="34" on="1"/>
        <pt x="211" y="658" on="1"/>
        <pt x="206" y="673" on="0"/>
        <pt x="206" y="688" on="1"/>
        <pt x="206" y="735" on="0"/>
        <pt x="264" y="795" on="0"/>
        <pt x="310" y="795" on="1"/>
        <pt x="350" y="795" on="0"/>
        <pt x="395" y="749" on="0"/>
        <pt x="395" y="712" on="1"/>
        <pt x="395" y="678" on="0"/>
        <pt x="376" y="651" on="1"/>
        <pt x="473" y="34" on="1"/>
      </contour>
      <contour>
        <pt x="260" y="659" on="0"/>
        <pt x="296" y="659" on="1"/>
        <pt x="316" y="659" on="0"/>
        <pt x="341" y="685" on="0"/>
        <pt x="341" y="707" on="1"/>
        <pt x="341" y="742" on="0"/>
        <pt x="305" y="742" on="1"/>
        <pt x="284" y="742" on="0"/>
        <pt x="260" y="716" on="0"/>
        <pt x="260" y="693" on="1"/>
      </contour>
      <contour>
        <pt x="322" y="258" on="1"/>
        <pt x="293" y="496" on="1"/>
        <pt x="288" y="534" on="0"/>
        <pt x="288" y="567" on="1"/>
        <pt x="283" y="567" on="1"/>
        <pt x="269" y="513" on="0"/>
        <pt x="263" y="496" on="1"/>
        <pt x="182" y="258" on="1"/>
      </contour>
    </TTGlyph>
    <TTGlyph name="Atilde" xMin="-19" yMin="-2" xMax="474" yMax="872">
      <component glyphName="A" x="0" y="0" flags="0x0"/>
      <component glyphName="tilde" x="153" y="177" flags="0x4"/>
    </TTGlyph>
    <TTGlyph name="B" xMin="40" yMin="0" xMax="508" yMax="700">
      <contour>
        <pt x="54" y="0" on="0"/>
        <pt x="40" y="17" on="0"/>
        <pt x="42" y="36" on="1"/>
        <pt x="108" y="664" on="1"/>
        <pt x="110" y="683" on="0"/>
        <pt x="128" y="700" on="0"/>
        <pt x="146" y="700" on="1"/>
        <pt x="319" y="700" on="1"/>
        <pt x="415" y="700" on="0"/>
        <pt x="508" y="624" on="0"/>
        <pt x="508" y="553" on="1"/>
        <pt x="508" y="489" on="0"/>
        <pt x="447" y="390" on="0"/>
        <pt x="400" y="368" on="1"/>
        <pt x="400" y="364" on="1"/>
        <pt x="440" y="351" on="0"/>
        <pt x="494" y="281" on="0"/>
        <pt x="494" y="224" on="1"/>
        <pt x="494" y="207" on="0"/>
        <pt x="493" y="198" on="1"/>
        <pt x="474" y="0" on="0"/>
        <pt x="250" y="0" on="1"/>
        <pt x="72" y="0" on="1"/>
      </contour>
      <contour>
        <pt x="290" y="409" on="1"/>
        <pt x="331" y="409" on="0"/>
        <pt x="379" y="470" on="0"/>
        <pt x="379" y="525" on="1"/>
        <pt x="379" y="562" on="0"/>
        <pt x="346" y="596" on="0"/>
        <pt x="310" y="596" on="1"/>
        <pt x="228" y="596" on="1"/>
        <pt x="208" y="409" on="1"/>
      </contour>
      <contour>
        <pt x="271" y="105" on="1"/>
        <pt x="355" y="105" on="0"/>
        <pt x="365" y="209" on="1"/>
        <pt x="366" y="216" on="0"/>
        <pt x="366" y="229" on="1"/>
        <pt x="366" y="268" on="0"/>
        <pt x="327" y="305" on="0"/>
        <pt x="287" y="305" on="1"/>
        <pt x="197" y="305" on="1"/>
        <pt x="176" y="105" on="1"/>
      </contour>
    </TTGlyph>
    <TTGlyph name="C" xMin="46" yMin="-7" xMax="469" yMax="707">
      <contour>
        <pt x="46" y="-7" on="0"/>
        <pt x="46" y="268" on="1"/>
        <pt x="46" y="301" on="0"/>
        <pt x="51" y="351" on="1"/>
        <pt x="70" y="533" on="0"/>
        <pt x="216" y="707" on="0"/>
        <pt x="356" y="707" on="1"/>
        <pt x="412" y="707" on="0"/>
        <pt x="447" y="693" on="1"/>
        <pt x="469" y="687" on="0"/>
        <pt x="469" y="662" on="1"/>
        <pt x="469" y="645" on="0"/>
        <pt x="455" y="600" on="0"/>
        <pt x="432" y="573" on="0"/>
        <pt x="420" y="579" on="1"/>
        <pt x="386" y="593" on="0"/>
        <pt x="349" y="593" on="1"/>
        <pt x="279" y="593" on="0"/>
        <pt x="200" y="474" on="0"/>
        <pt x="186" y="351" on="1"/>
        <pt x="182" y="318" on="0"/>
        <pt x="182" y="281" on="1"/>
        <pt x="182" y="108" on="0"/>
        <pt x="300" y="108" on="1"/>
        <pt x="339" y="108" on="0"/>
        <pt x="378" y="124" on="1"/>
        <pt x="384" y="126" on="0"/>
        <pt x="387" y="126" on="1"/>
        <pt x="402" y="126" on="0"/>
        <pt x="416" y="94" on="0"/>
        <pt x="416" y="71" on="1"/>
        <pt x="416" y="48" on="0"/>
        <pt x="398" y="19" on="0"/>
        <pt x="380" y="9" on="1"/>
        <pt x="345" y="-7" on="0"/>
        <pt x="289" y="-7" on="1"/>
      </contour>
    </TTGlyph>
    <TTGlyph name="Cacute" xMin="46" yMin="-7" xMax="469" yMax="910">
      <component glyphName="C" x="0" y="0" flags="0x0"/>
      <component glyphName="acute" x="230" y="177" flags="0x4"/>
    </TTGlyph>
    <TTGlyph name="Cacute.loclPLK" xMin="46" yMin="-7" xMax="469" yMax="910">
      <component glyphName="C" x="0" y="0" flags="0x0"/>
      <component glyphName="acute.loclPLK" x="232" y="177" flags="0x4"/>
    </TTGlyph>
    <TTGlyph name="Ccaron" xMin="46" yMin="-7" xMax="469" yMax="898">
      <component glyphName="C" x="0" y="0" flags="0x0"/>
      <component glyphName="caron" x="167" y="177" flags="0x4"/>
    </TTGlyph>
    <TTGlyph name="Ccedilla" xMin="46" yMin="-211" xMax="469" yMax="707">
      <contour>
        <pt x="469" y="687" on="0"/>
        <pt x="469" y="662" on="1"/>
        <pt x="469" y="645" on="0"/>
        <pt x="455" y="600" on="0"/>
        <pt x="432" y="573" on="0"/>
        <pt x="420" y="579" on="1"/>
        <pt x="386" y="593" on="0"/>
        <pt x="349" y="593" on="1"/>
        <pt x="279" y="593" on="0"/>
        <pt x="200" y="474" on="0"/>
        <pt x="186" y="351" on="1"/>
        <pt x="182" y="318" on="0"/>
        <pt x="182" y="281" on="1"/>
        <pt x="182" y="108" on="0"/>
        <pt x="300" y="108" on="1"/>
        <pt x="339" y="108" on="0"/>
        <pt x="378" y="124" on="1"/>
        <pt x="384" y="126" on="0"/>
        <pt x="387" y="126" on="1"/>
        <pt x="402" y="126" on="0"/>
        <pt x="416" y="94" on="0"/>
        <pt x="416" y="71" on="1"/>
        <pt x="416" y="48" on="0"/>
        <pt x="398" y="19" on="0"/>
        <pt x="380" y="9" on="1"/>
        <pt x="345" y="-7" on="0"/>
        <pt x="289" y="-7" on="1"/>
        <pt x="267" y="-7" on="0"/>
        <pt x="257" y="-6" on="1"/>
        <pt x="243" y="-52" on="1"/>
        <pt x="272" y="-55" on="0"/>
        <pt x="311" y="-91" on="0"/>
        <pt x="311" y="-124" on="1"/>
        <pt x="311" y="-168" on="0"/>
        <pt x="255" y="-211" on="0"/>
        <pt x="209" y="-211" on="1"/>
        <pt x="170" y="-211" on="0"/>
        <pt x="108" y="-183" on="0"/>
        <pt x="108" y="-163" on="1"/>
        <pt x="108" y="-148" on="0"/>
        <pt x="127" y="-126" on="0"/>
        <pt x="135" y="-126" on="1"/>
        <pt x="141" y="-126" on="0"/>
        <pt x="159" y="-134" on="1"/>
        <pt x="185" y="-147" on="0"/>
        <pt x="202" y="-147" on="1"/>
        <pt x="213" y="-147" on="0"/>
        <pt x="227" y="-137" on="0"/>
        <pt x="227" y="-126" on="1"/>
        <pt x="227" y="-115" on="0"/>
        <pt x="214" y="-106" on="0"/>
        <pt x="200" y="-99" on="1"/>
        <pt x="177" y="-91" on="0"/>
        <pt x="177" y="-79" on="1"/>
        <pt x="177" y="-73" on="0"/>
        <pt x="187" y="-41" on="0"/>
        <pt x="200" y="-6" on="0"/>
        <pt x="203" y="3" on="1"/>
        <pt x="46" y="45" on="0"/>
        <pt x="46" y="269" on="1"/>
        <pt x="46" y="303" on="0"/>
        <pt x="51" y="351" on="1"/>
        <pt x="70" y="533" on="0"/>
        <pt x="216" y="707" on="0"/>
        <pt x="356" y="707" on="1"/>
        <pt x="412" y="707" on="0"/>
        <pt x="447" y="693" on="1"/>
      </contour>
    </TTGlyph>
    <TTGlyph name="Ccircumflex" xMin="46" yMin="-7" xMax="469" yMax="895">
      <component glyphName="C" x="0" y="0" flags="0x0"/>
      <component glyphName="circumflex" x="166" y="177" flags="0x4"/>
    </TTGlyph>
    <TTGlyph name="Cdotaccent" xMin="46" yMin="-7" xMax="469" yMax="879">
      <component glyphName="C" x="0" y="0" flags="0x0"/>
      <component glyphName="dotaccent" x="163" y="177" flags="0x4"/>
    </TTGlyph>
    <TTGlyph name="D" xMin="36" yMin="0" xMax="544" yMax="700">
      <contour>
        <pt x="51" y="0" on="0"/>
        <pt x="36" y="17" on="0"/>
        <pt x="38" y="36" on="1"/>
        <pt x="105" y="664" on="1"/>
        <pt x="107" y="683" on="0"/>
        <pt x="125" y="700" on="0"/>
        <pt x="142" y="700" on="1"/>
        <pt x="324" y="700" on="1"/>
        <pt x="433" y="700" on="0"/>
        <pt x="544" y="571" on="0"/>
        <pt x="544" y="437" on="1"/>
        <pt x="544" y="402" on="0"/>
        <pt x="539" y="350" on="1"/>
        <pt x="520" y="171" on="0"/>
        <pt x="376" y="0" on="0"/>
        <pt x="250" y="0" on="1"/>
        <pt x="68" y="0" on="1"/>
      </contour>
      <contour>
        <pt x="258" y="111" on="1"/>
        <pt x="319" y="111" on="0"/>
        <pt x="391" y="222" on="0"/>
        <pt x="405" y="350" on="1"/>
        <pt x="410" y="400" on="0"/>
        <pt x="410" y="430" on="1"/>
        <pt x="410" y="514" on="0"/>
        <pt x="359" y="589" on="0"/>
        <pt x="308" y="589" on="1"/>
        <pt x="231" y="589" on="1"/>
        <pt x="180" y="111" on="1"/>
      </contour>
    </TTGlyph>
    <TTGlyph name="Dcaron" xMin="38" yMin="0" xMax="544" yMax="898">
      <component glyphName="D" x="0" y="0" flags="0x0"/>
      <component glyphName="caron" x="170" y="177" flags="0x4"/>
    </TTGlyph>
    <TTGlyph name="Dcroat" xMin="17" yMin="0" xMax="544" yMax="700">
      <component glyphName="Eth" x="0" y="0" flags="0x0"/>
    </TTGlyph>
    <TTGlyph name="E" xMin="40" yMin="0" xMax="460" yMax="700">
      <contour>
        <pt x="54" y="0" on="0"/>
        <pt x="40" y="17" on="0"/>
        <pt x="42" y="36" on="1"/>
        <pt x="108" y="664" on="1"/>
        <pt x="110" y="683" on="0"/>
        <pt x="128" y="700" on="0"/>
        <pt x="145" y="700" on="1"/>
        <pt x="438" y="700" on="1"/>
        <pt x="460" y="700" on="0"/>
        <pt x="460" y="669" on="1"/>
        <pt x="459" y="657" on="1"/>
        <pt x="456" y="632" on="1"/>
        <pt x="453" y="589" on="0"/>
        <pt x="426" y="589" on="1"/>
        <pt x="232" y="589" on="1"/>
        <pt x="214" y="414" on="1"/>
        <pt x="387" y="414" on="1"/>
        <pt x="400" y="414" on="0"/>
        <pt x="410" y="394" on="0"/>
        <pt x="408" y="371" on="1"/>
        <pt x="405" y="346" on="1"/>
        <pt x="401" y="303" on="0"/>
        <pt x="375" y="303" on="1"/>
        <pt x="202" y="303" on="1"/>
        <pt x="182" y="111" on="1"/>
        <pt x="376" y="111" on="1"/>
        <pt x="389" y="111" on="0"/>
        <pt x="399" y="91" on="0"/>
        <pt x="397" y="68" on="1"/>
        <pt x="394" y="43" on="1"/>
        <pt x="392" y="20" on="0"/>
        <pt x="377" y="0" on="0"/>
        <pt x="364" y="0" on="1"/>
        <pt x="71" y="0" on="1"/>
      </contour>
    </TTGlyph>
    <TTGlyph name="Eacute" xMin="41" yMin="0" xMax="460" yMax="910">
      <component glyphName="E" x="0" y="0" flags="0x0"/>
      <component glyphName="acute" x="204" y="177" flags="0x4"/>
    </TTGlyph>
    <TTGlyph name="Ebreve" xMin="41" yMin="0" xMax="460" yMax="892">
      <component glyphName="E" x="0" y="0" flags="0x0"/>
      <component glyphName="breve" x="140" y="177" flags="0x4"/>
    </TTGlyph>
    <TTGlyph name="Ecaron" xMin="41" yMin="0" xMax="460" yMax="898">
      <component glyphName="E" x="0" y="0" flags="0x0"/>
      <component glyphName="caron" x="141" y="177" flags="0x4"/>
    </TTGlyph>
    <TTGlyph name="Ecircumflex" xMin="41" yMin="0" xMax="460" yMax="895">
      <component glyphName="E" x="0" y="0" flags="0x0"/>
      <component glyphName="circumflex" x="140" y="177" flags="0x4"/>
    </TTGlyph>
    <TTGlyph name="Edieresis" xMin="41" yMin="0" xMax="460" yMax="879">
      <component glyphName="E" x="0" y="0" flags="0x0"/>
      <component glyphName="dieresis" x="138" y="177" flags="0x4"/>
    </TTGlyph>
    <TTGlyph name="Edotaccent" xMin="41" yMin="0" xMax="460" yMax="879">
      <component glyphName="E" x="0" y="0" flags="0x0"/>
      <component glyphName="dotaccent" x="137" y="177" flags="0x4"/>
    </TTGlyph>
    <TTGlyph name="Egrave" xMin="41" yMin="0" xMax="460" yMax="910">
      <component glyphName="E" x="0" y="0" flags="0x0"/>
      <component glyphName="grave" x="132" y="177" flags="0x4"/>
    </TTGlyph>
    <TTGlyph name="Emacron" xMin="41" yMin="0" xMax="460" yMax="865">
      <component glyphName="E" x="0" y="0" flags="0x0"/>
      <component glyphName="macron" x="140" y="177" flags="0x4"/>
    </TTGlyph>
    <TTGlyph name="Eng" xMin="32" yMin="-212" xMax="576" yMax="702">
      <contour>
        <pt x="576" y="702" on="0"/>
        <pt x="574" y="674" on="1"/>
        <pt x="497" y="-61" on="1"/>
        <pt x="489" y="-138" on="0"/>
        <pt x="409" y="-212" on="0"/>
        <pt x="356" y="-212" on="1"/>
        <pt x="316" y="-212" on="0"/>
        <pt x="272" y="-195" on="0"/>
        <pt x="272" y="-173" on="1"/>
        <pt x="272" y="-158" on="0"/>
        <pt x="293" y="-107" on="0"/>
        <pt x="306" y="-107" on="1"/>
        <pt x="310" y="-107" on="0"/>
        <pt x="328" y="-111" on="0"/>
        <pt x="338" y="-111" on="1"/>
        <pt x="353" y="-111" on="0"/>
        <pt x="369" y="-88" on="0"/>
        <pt x="372" y="-59" on="1"/>
        <pt x="382" y="34" on="1"/>
        <pt x="222" y="416" on="1"/>
        <pt x="215" y="432" on="0"/>
        <pt x="204" y="472" on="0"/>
        <pt x="202" y="479" on="1"/>
        <pt x="197" y="477" on="1"/>
        <pt x="199" y="449" on="0"/>
        <pt x="199" y="435" on="1"/>
        <pt x="199" y="418" on="0"/>
        <pt x="198" y="409" on="1"/>
        <pt x="156" y="26" on="1"/>
        <pt x="154" y="-2" on="0"/>
        <pt x="102" y="-2" on="1"/>
        <pt x="82" y="-2" on="1"/>
        <pt x="32" y="-2" on="0"/>
        <pt x="35" y="26" on="1"/>
        <pt x="103" y="674" on="1"/>
        <pt x="106" y="702" on="0"/>
        <pt x="156" y="702" on="1"/>
        <pt x="182" y="702" on="1"/>
        <pt x="199" y="702" on="0"/>
        <pt x="220" y="692" on="0"/>
        <pt x="226" y="677" on="1"/>
        <pt x="384" y="297" on="1"/>
        <pt x="395" y="271" on="0"/>
        <pt x="408" y="224" on="1"/>
        <pt x="412" y="226" on="1"/>
        <pt x="410" y="254" on="0"/>
        <pt x="410" y="267" on="1"/>
        <pt x="410" y="279" on="0"/>
        <pt x="412" y="301" on="1"/>
        <pt x="453" y="674" on="1"/>
        <pt x="455" y="702" on="0"/>
        <pt x="506" y="702" on="1"/>
        <pt x="526" y="702" on="1"/>
      </contour>
    </TTGlyph>
    <TTGlyph name="Eogonek" xMin="40" yMin="-177" xMax="469" yMax="700">
      <contour>
        <pt x="456" y="-105" on="0"/>
        <pt x="469" y="-118" on="0"/>
        <pt x="469" y="-133" on="1"/>
        <pt x="469" y="-154" on="0"/>
        <pt x="454" y="-162" on="1"/>
        <pt x="427" y="-177" on="0"/>
        <pt x="394" y="-177" on="1"/>
        <pt x="338" y="-177" on="0"/>
        <pt x="299" y="-118" on="0"/>
        <pt x="299" y="-85" on="1"/>
        <pt x="299" y="-43" on="0"/>
        <pt x="321" y="0" on="1"/>
        <pt x="71" y="0" on="1"/>
        <pt x="54" y="0" on="0"/>
        <pt x="40" y="17" on="0"/>
        <pt x="42" y="36" on="1"/>
        <pt x="108" y="664" on="1"/>
        <pt x="110" y="683" on="0"/>
        <pt x="128" y="700" on="0"/>
        <pt x="145" y="700" on="1"/>
        <pt x="438" y="700" on="1"/>
        <pt x="460" y="700" on="0"/>
        <pt x="460" y="669" on="1"/>
        <pt x="459" y="657" on="1"/>
        <pt x="456" y="632" on="1"/>
        <pt x="453" y="589" on="0"/>
        <pt x="426" y="589" on="1"/>
        <pt x="232" y="589" on="1"/>
        <pt x="214" y="414" on="1"/>
        <pt x="387" y="414" on="1"/>
        <pt x="400" y="414" on="0"/>
        <pt x="410" y="394" on="0"/>
        <pt x="408" y="371" on="1"/>
        <pt x="405" y="346" on="1"/>
        <pt x="401" y="303" on="0"/>
        <pt x="375" y="303" on="1"/>
        <pt x="202" y="303" on="1"/>
        <pt x="182" y="111" on="1"/>
        <pt x="376" y="111" on="1"/>
        <pt x="389" y="111" on="0"/>
        <pt x="399" y="91" on="0"/>
        <pt x="397" y="68" on="1"/>
        <pt x="394" y="43" on="1"/>
        <pt x="391" y="17" on="0"/>
        <pt x="383" y="8" on="1"/>
        <pt x="364" y="-30" on="0"/>
        <pt x="364" y="-67" on="1"/>
        <pt x="364" y="-92" on="0"/>
        <pt x="392" y="-110" on="0"/>
        <pt x="413" y="-110" on="1"/>
        <pt x="421" y="-110" on="0"/>
        <pt x="438" y="-105" on="0"/>
        <pt x="443" y="-105" on="1"/>
      </contour>
    </TTGlyph>
    <TTGlyph name="Eth" xMin="17" yMin="0" xMax="544" yMax="700">
      <contour>
        <pt x="433" y="700" on="0"/>
        <pt x="544" y="571" on="0"/>
        <pt x="544" y="437" on="1"/>
        <pt x="544" y="402" on="0"/>
        <pt x="539" y="350" on="1"/>
        <pt x="520" y="171" on="0"/>
        <pt x="376" y="0" on="0"/>
        <pt x="250" y="0" on="1"/>
        <pt x="68" y="0" on="1"/>
        <pt x="51" y="0" on="0"/>
        <pt x="36" y="17" on="0"/>
        <pt x="38" y="36" on="1"/>
        <pt x="66" y="301" on="1"/>
        <pt x="40" y="301" on="1"/>
        <pt x="28" y="301" on="0"/>
        <pt x="17" y="317" on="0"/>
        <pt x="17" y="334" on="1"/>
        <pt x="17" y="370" on="0"/>
        <pt x="32" y="412" on="0"/>
        <pt x="51" y="412" on="1"/>
        <pt x="78" y="412" on="1"/>
        <pt x="105" y="664" on="1"/>
        <pt x="107" y="683" on="0"/>
        <pt x="125" y="700" on="0"/>
        <pt x="142" y="700" on="1"/>
        <pt x="324" y="700" on="1"/>
      </contour>
      <contour>
        <pt x="410" y="400" on="0"/>
        <pt x="410" y="430" on="1"/>
        <pt x="410" y="514" on="0"/>
        <pt x="359" y="589" on="0"/>
        <pt x="308" y="589" on="1"/>
        <pt x="231" y="589" on="1"/>
        <pt x="212" y="412" on="1"/>
        <pt x="298" y="412" on="1"/>
        <pt x="309" y="412" on="0"/>
        <pt x="320" y="396" on="0"/>
        <pt x="320" y="378" on="1"/>
        <pt x="320" y="342" on="0"/>
        <pt x="306" y="301" on="0"/>
        <pt x="287" y="301" on="1"/>
        <pt x="200" y="301" on="1"/>
        <pt x="180" y="111" on="1"/>
        <pt x="258" y="111" on="1"/>
        <pt x="319" y="111" on="0"/>
        <pt x="391" y="222" on="0"/>
        <pt x="405" y="350" on="1"/>
      </contour>
    </TTGlyph>
    <TTGlyph name="Euro" xMin="1" yMin="-7" xMax="516" yMax="707">
      <contour>
        <pt x="173" y="-7" on="0"/>
        <pt x="65" y="111" on="0"/>
        <pt x="61" y="234" on="1"/>
        <pt x="25" y="234" on="1"/>
        <pt x="11" y="234" on="0"/>
        <pt x="1" y="250" on="0"/>
        <pt x="2" y="267" on="1"/>
        <pt x="3" y="274" on="1"/>
        <pt x="4" y="291" on="0"/>
        <pt x="19" y="306" on="0"/>
        <pt x="33" y="306" on="1"/>
        <pt x="62" y="306" on="1"/>
        <pt x="66" y="351" on="1"/>
        <pt x="68" y="364" on="0"/>
        <pt x="70" y="388" on="1"/>
        <pt x="42" y="388" on="1"/>
        <pt x="28" y="388" on="0"/>
        <pt x="16" y="404" on="0"/>
        <pt x="18" y="421" on="1"/>
        <pt x="19" y="428" on="1"/>
        <pt x="21" y="445" on="0"/>
        <pt x="35" y="460" on="0"/>
        <pt x="49" y="460" on="1"/>
        <pt x="84" y="460" on="1"/>
        <pt x="144" y="707" on="0"/>
        <pt x="361" y="707" on="1"/>
        <pt x="403" y="707" on="0"/>
        <pt x="474" y="686" on="0"/>
        <pt x="516" y="656" on="0"/>
        <pt x="516" y="642" on="1"/>
        <pt x="516" y="630" on="0"/>
        <pt x="494" y="592" on="0"/>
        <pt x="464" y="562" on="0"/>
        <pt x="454" y="562" on="1"/>
        <pt x="450" y="562" on="0"/>
        <pt x="420" y="580" on="0"/>
        <pt x="381" y="593" on="0"/>
        <pt x="353" y="593" on="1"/>
        <pt x="257" y="593" on="0"/>
        <pt x="220" y="460" on="1"/>
        <pt x="412" y="460" on="1"/>
        <pt x="436" y="460" on="0"/>
        <pt x="436" y="437" on="1"/>
        <pt x="435" y="428" on="1"/>
        <pt x="434" y="421" on="1"/>
        <pt x="433" y="404" on="0"/>
        <pt x="419" y="388" on="0"/>
        <pt x="405" y="388" on="1"/>
        <pt x="205" y="388" on="1"/>
        <pt x="204" y="374" on="0"/>
        <pt x="200" y="351" on="1"/>
        <pt x="199" y="343" on="0"/>
        <pt x="197" y="320" on="0"/>
        <pt x="197" y="306" on="1"/>
        <pt x="396" y="306" on="1"/>
        <pt x="410" y="306" on="0"/>
        <pt x="420" y="291" on="0"/>
        <pt x="419" y="274" on="1"/>
        <pt x="418" y="267" on="1"/>
        <pt x="416" y="250" on="0"/>
        <pt x="402" y="234" on="0"/>
        <pt x="388" y="234" on="1"/>
        <pt x="198" y="234" on="1"/>
        <pt x="208" y="107" on="0"/>
        <pt x="300" y="107" on="1"/>
        <pt x="347" y="107" on="0"/>
        <pt x="398" y="135" on="1"/>
        <pt x="416" y="144" on="0"/>
        <pt x="420" y="144" on="1"/>
        <pt x="433" y="144" on="0"/>
        <pt x="453" y="117" on="0"/>
        <pt x="464" y="81" on="0"/>
        <pt x="463" y="72" on="1"/>
        <pt x="461" y="54" on="0"/>
        <pt x="409" y="17" on="0"/>
        <pt x="327" y="-7" on="0"/>
        <pt x="282" y="-7" on="1"/>
      </contour>
    </TTGlyph>
    <TTGlyph name="F" xMin="38" yMin="-2" xMax="437" yMax="700">
      <contour>
        <pt x="38" y="-2" on="0"/>
        <pt x="41" y="26" on="1"/>
        <pt x="108" y="664" on="1"/>
        <pt x="110" y="683" on="0"/>
        <pt x="128" y="700" on="0"/>
        <pt x="145" y="700" on="1"/>
        <pt x="415" y="700" on="1"/>
        <pt x="437" y="700" on="0"/>
        <pt x="437" y="669" on="1"/>
        <pt x="436" y="657" on="1"/>
        <pt x="433" y="632" on="1"/>
        <pt x="431" y="609" on="0"/>
        <pt x="416" y="589" on="0"/>
        <pt x="403" y="589" on="1"/>
        <pt x="232" y="589" on="1"/>
        <pt x="214" y="413" on="1"/>
        <pt x="373" y="413" on="1"/>
        <pt x="395" y="413" on="0"/>
        <pt x="395" y="382" on="1"/>
        <pt x="394" y="370" on="1"/>
        <pt x="391" y="345" on="1"/>
        <pt x="389" y="322" on="0"/>
        <pt x="374" y="302" on="0"/>
        <pt x="361" y="302" on="1"/>
        <pt x="202" y="302" on="1"/>
        <pt x="173" y="26" on="1"/>
        <pt x="170" y="-2" on="0"/>
        <pt x="119" y="-2" on="1"/>
        <pt x="89" y="-2" on="1"/>
      </contour>
    </TTGlyph>
    <TTGlyph name="G" xMin="47" yMin="-7" xMax="526" yMax="707">
      <contour>
        <pt x="280" y="593" on="0"/>
        <pt x="200" y="474" on="0"/>
        <pt x="188" y="352" on="1"/>
        <pt x="183" y="305" on="0"/>
        <pt x="183" y="274" on="1"/>
        <pt x="183" y="190" on="0"/>
        <pt x="238" y="107" on="0"/>
        <pt x="294" y="107" on="1"/>
        <pt x="326" y="107" on="0"/>
        <pt x="353" y="114" on="1"/>
        <pt x="370" y="288" on="1"/>
        <pt x="307" y="288" on="1"/>
        <pt x="286" y="288" on="0"/>
        <pt x="286" y="315" on="1"/>
        <pt x="286" y="325" on="0"/>
        <pt x="287" y="331" on="1"/>
        <pt x="289" y="357" on="1"/>
        <pt x="291" y="380" on="0"/>
        <pt x="306" y="400" on="0"/>
        <pt x="319" y="400" on="1"/>
        <pt x="478" y="400" on="1"/>
        <pt x="511" y="400" on="0"/>
        <pt x="507" y="363" on="1"/>
        <pt x="477" y="70" on="1"/>
        <pt x="473" y="34" on="0"/>
        <pt x="348" y="-7" on="0"/>
        <pt x="280" y="-7" on="1"/>
        <pt x="166" y="-7" on="0"/>
        <pt x="47" y="129" on="0"/>
        <pt x="47" y="268" on="1"/>
        <pt x="47" y="301" on="0"/>
        <pt x="52" y="349" on="1"/>
        <pt x="71" y="533" on="0"/>
        <pt x="217" y="707" on="0"/>
        <pt x="360" y="707" on="1"/>
        <pt x="401" y="707" on="0"/>
        <pt x="478" y="688" on="0"/>
        <pt x="526" y="657" on="0"/>
        <pt x="526" y="642" on="1"/>
        <pt x="526" y="631" on="0"/>
        <pt x="504" y="592" on="0"/>
        <pt x="475" y="561" on="0"/>
        <pt x="465" y="561" on="1"/>
        <pt x="461" y="561" on="0"/>
        <pt x="428" y="579" on="0"/>
        <pt x="385" y="593" on="0"/>
        <pt x="354" y="593" on="1"/>
      </contour>
    </TTGlyph>
    <TTGlyph name="Gbreve" xMin="47" yMin="-7" xMax="526" yMax="892">
      <component glyphName="G" x="0" y="0" flags="0x0"/>
      <component glyphName="breve" x="189" y="177" flags="0x4"/>
    </TTGlyph>
    <TTGlyph name="Gcircumflex" xMin="47" yMin="-7" xMax="526" yMax="895">
      <component glyphName="G" x="0" y="0" flags="0x0"/>
      <component glyphName="circumflex" x="189" y="177" flags="0x4"/>
    </TTGlyph>
    <TTGlyph name="Gcommaaccent" xMin="47" yMin="-238" xMax="526" yMax="707">
      <component glyphName="G" x="0" y="0" flags="0x0"/>
      <component glyphName="uni0326" x="411" y="0" flags="0x0"/>
    </TTGlyph>
    <TTGlyph name="Gdotaccent" xMin="47" yMin="-7" xMax="526" yMax="879">
      <component glyphName="G" x="0" y="0" flags="0x0"/>
      <component glyphName="dotaccent" x="186" y="177" flags="0x4"/>
    </TTGlyph>
    <TTGlyph name="H" xMin="38" yMin="-2" xMax="582" yMax="702">
      <contour>
        <pt x="38" y="-2" on="0"/>
        <pt x="41" y="26" on="1"/>
        <pt x="109" y="674" on="1"/>
        <pt x="112" y="702" on="0"/>
        <pt x="163" y="702" on="1"/>
        <pt x="195" y="702" on="1"/>
        <pt x="245" y="702" on="0"/>
        <pt x="242" y="674" on="1"/>
        <pt x="215" y="414" on="1"/>
        <pt x="419" y="414" on="1"/>
        <pt x="446" y="674" on="1"/>
        <pt x="449" y="702" on="0"/>
        <pt x="500" y="702" on="1"/>
        <pt x="531" y="702" on="1"/>
        <pt x="582" y="702" on="0"/>
        <pt x="579" y="674" on="1"/>
        <pt x="510" y="26" on="1"/>
        <pt x="508" y="-2" on="0"/>
        <pt x="457" y="-2" on="1"/>
        <pt x="426" y="-2" on="1"/>
        <pt x="375" y="-2" on="0"/>
        <pt x="378" y="26" on="1"/>
        <pt x="407" y="302" on="1"/>
        <pt x="203" y="302" on="1"/>
        <pt x="173" y="26" on="1"/>
        <pt x="171" y="-2" on="0"/>
        <pt x="121" y="-2" on="1"/>
        <pt x="89" y="-2" on="1"/>
      </contour>
    </TTGlyph>
    <TTGlyph name="Hbar" xMin="-7" yMin="-2" xMax="657" yMax="702">
      <contour>
        <pt x="657" y="568" on="0"/>
        <pt x="657" y="539" on="1"/>
        <pt x="657" y="518" on="0"/>
        <pt x="644" y="481" on="0"/>
        <pt x="625" y="481" on="1"/>
        <pt x="558" y="481" on="1"/>
        <pt x="510" y="26" on="1"/>
        <pt x="508" y="-2" on="0"/>
        <pt x="457" y="-2" on="1"/>
        <pt x="426" y="-2" on="1"/>
        <pt x="375" y="-2" on="0"/>
        <pt x="378" y="26" on="1"/>
        <pt x="407" y="302" on="1"/>
        <pt x="203" y="302" on="1"/>
        <pt x="173" y="26" on="1"/>
        <pt x="171" y="-2" on="0"/>
        <pt x="121" y="-2" on="1"/>
        <pt x="89" y="-2" on="1"/>
        <pt x="38" y="-2" on="0"/>
        <pt x="41" y="26" on="1"/>
        <pt x="89" y="481" on="1"/>
        <pt x="16" y="481" on="1"/>
        <pt x="4" y="481" on="0"/>
        <pt x="-7" y="495" on="0"/>
        <pt x="-7" y="510" on="1"/>
        <pt x="-7" y="568" on="0"/>
        <pt x="26" y="568" on="1"/>
        <pt x="98" y="568" on="1"/>
        <pt x="109" y="674" on="1"/>
        <pt x="112" y="702" on="0"/>
        <pt x="163" y="702" on="1"/>
        <pt x="195" y="702" on="1"/>
        <pt x="245" y="702" on="0"/>
        <pt x="242" y="674" on="1"/>
        <pt x="231" y="568" on="1"/>
        <pt x="435" y="568" on="1"/>
        <pt x="446" y="674" on="1"/>
        <pt x="449" y="702" on="0"/>
        <pt x="500" y="702" on="1"/>
        <pt x="531" y="702" on="1"/>
        <pt x="582" y="702" on="0"/>
        <pt x="579" y="674" on="1"/>
        <pt x="568" y="568" on="1"/>
        <pt x="634" y="568" on="1"/>
      </contour>
      <contour>
        <pt x="419" y="414" on="1"/>
        <pt x="426" y="481" on="1"/>
        <pt x="222" y="481" on="1"/>
        <pt x="215" y="414" on="1"/>
      </contour>
    </TTGlyph>
    <TTGlyph name="Hcircumflex" xMin="41" yMin="-2" xMax="579" yMax="895">
      <component glyphName="H" x="0" y="0" flags="0x0"/>
      <component glyphName="circumflex" x="193" y="177" flags="0x4"/>
    </TTGlyph>
    <TTGlyph name="I" xMin="37" yMin="-3" xMax="244" yMax="703">
      <contour>
        <pt x="37" y="-3" on="0"/>
        <pt x="40" y="26" on="1"/>
        <pt x="108" y="674" on="1"/>
        <pt x="111" y="703" on="0"/>
        <pt x="162" y="703" on="1"/>
        <pt x="194" y="703" on="1"/>
        <pt x="244" y="703" on="0"/>
        <pt x="241" y="674" on="1"/>
        <pt x="172" y="26" on="1"/>
        <pt x="170" y="-3" on="0"/>
        <pt x="120" y="-3" on="1"/>
        <pt x="88" y="-3" on="1"/>
      </contour>
    </TTGlyph>
    <TTGlyph name="IJ" xMin="40" yMin="-7" xMax="589" yMax="703">
      <component glyphName="I" x="0" y="0" flags="0x0"/>
      <component glyphName="J" x="262" y="0" flags="0x0"/>
    </TTGlyph>
    <TTGlyph name="Iacute" xMin="40" yMin="-3" xMax="302" yMax="910">
      <component glyphName="I" x="0" y="0" flags="0x0"/>
      <component glyphName="acute" x="88" y="177" flags="0x4"/>
    </TTGlyph>
    <TTGlyph name="Iacute_J.loclNLD" xMin="40" yMin="-7" xMax="648" yMax="910">
      <component glyphName="I" x="0" y="0" flags="0x0"/>
      <component glyphName="acute" x="88" y="177" flags="0x4"/>
      <component glyphName="J" x="262" y="0" flags="0x0"/>
      <component glyphName="acute" x="434" y="177" flags="0x4"/>
    </TTGlyph>
    <TTGlyph name="Ibreve" xMin="40" yMin="-3" xMax="321" yMax="892">
      <component glyphName="I" x="0" y="0" flags="0x0"/>
      <component glyphName="breve" x="24" y="177" flags="0x4"/>
    </TTGlyph>
    <TTGlyph name="Icircumflex" xMin="40" yMin="-3" xMax="303" yMax="895">
      <component glyphName="I" x="0" y="0" flags="0x0"/>
      <component glyphName="circumflex" x="24" y="177" flags="0x4"/>
    </TTGlyph>
    <TTGlyph name="Idieresis" xMin="40" yMin="-3" xMax="319" yMax="879">
      <component glyphName="I" x="0" y="0" flags="0x0"/>
      <component glyphName="dieresis" x="22" y="177" flags="0x4"/>
    </TTGlyph>
    <TTGlyph name="Idotaccent" xMin="40" yMin="-3" xMax="254" yMax="879">
      <component glyphName="I" x="0" y="0" flags="0x0"/>
      <component glyphName="dotaccent" x="21" y="177" flags="0x4"/>
    </TTGlyph>
    <TTGlyph name="Igrave" xMin="40" yMin="-3" xMax="241" yMax="910">
      <component glyphName="I" x="0" y="0" flags="0x0"/>
      <component glyphName="grave" x="16" y="177" flags="0x4"/>
    </TTGlyph>
    <TTGlyph name="Imacron" xMin="40" yMin="-3" xMax="314" yMax="865">
      <component glyphName="I" x="0" y="0" flags="0x0"/>
      <component glyphName="macron" x="24" y="177" flags="0x4"/>
    </TTGlyph>
    <TTGlyph name="Iogonek" xMin="37" yMin="-173" xMax="253" yMax="703">
      <contour>
        <pt x="240" y="-101" on="0"/>
        <pt x="253" y="-114" on="0"/>
        <pt x="253" y="-129" on="1"/>
        <pt x="253" y="-150" on="0"/>
        <pt x="238" y="-158" on="1"/>
        <pt x="211" y="-173" on="0"/>
        <pt x="178" y="-173" on="1"/>
        <pt x="122" y="-173" on="0"/>
        <pt x="83" y="-114" on="0"/>
        <pt x="83" y="-81" on="1"/>
        <pt x="83" y="-42" on="0"/>
        <pt x="101" y="-3" on="1"/>
        <pt x="88" y="-3" on="1"/>
        <pt x="37" y="-3" on="0"/>
        <pt x="40" y="26" on="1"/>
        <pt x="108" y="674" on="1"/>
        <pt x="111" y="703" on="0"/>
        <pt x="162" y="703" on="1"/>
        <pt x="194" y="703" on="1"/>
        <pt x="244" y="703" on="0"/>
        <pt x="241" y="674" on="1"/>
        <pt x="172" y="26" on="1"/>
        <pt x="172" y="19" on="0"/>
        <pt x="167" y="12" on="1"/>
        <pt x="148" y="-27" on="0"/>
        <pt x="148" y="-63" on="1"/>
        <pt x="148" y="-88" on="0"/>
        <pt x="176" y="-106" on="0"/>
        <pt x="197" y="-106" on="1"/>
        <pt x="205" y="-106" on="0"/>
        <pt x="222" y="-101" on="0"/>
        <pt x="227" y="-101" on="1"/>
      </contour>
    </TTGlyph>
    <TTGlyph name="Itilde" xMin="37" yMin="-3" xMax="315" yMax="872">
      <contour>
        <pt x="56" y="765" on="1"/>
        <pt x="40" y="770" on="0"/>
        <pt x="40" y="786" on="1"/>
        <pt x="40" y="787" on="0"/>
        <pt x="42" y="801" on="1"/>
        <pt x="54" y="834" on="0"/>
        <pt x="94" y="870" on="0"/>
        <pt x="122" y="870" on="1"/>
        <pt x="141" y="870" on="0"/>
        <pt x="181" y="852" on="1"/>
        <pt x="217" y="837" on="0"/>
        <pt x="230" y="837" on="1"/>
        <pt x="237" y="837" on="0"/>
        <pt x="249" y="844" on="0"/>
        <pt x="257" y="856" on="1"/>
        <pt x="266" y="872" on="0"/>
        <pt x="278" y="872" on="1"/>
        <pt x="280" y="872" on="0"/>
        <pt x="290" y="870" on="1"/>
        <pt x="298" y="867" on="1"/>
        <pt x="315" y="860" on="0"/>
        <pt x="315" y="846" on="1"/>
        <pt x="315" y="842" on="0"/>
        <pt x="312" y="834" on="0"/>
        <pt x="312" y="832" on="1"/>
        <pt x="300" y="799" on="0"/>
        <pt x="260" y="762" on="0"/>
        <pt x="233" y="762" on="1"/>
        <pt x="214" y="762" on="0"/>
        <pt x="172" y="780" on="1"/>
        <pt x="138" y="795" on="0"/>
        <pt x="124" y="795" on="1"/>
        <pt x="110" y="795" on="0"/>
        <pt x="98" y="775" on="1"/>
        <pt x="92" y="766" on="0"/>
        <pt x="83" y="759" on="0"/>
        <pt x="77" y="759" on="1"/>
        <pt x="71" y="759" on="0"/>
        <pt x="65" y="761" on="1"/>
      </contour>
      <contour>
        <pt x="37" y="-3" on="0"/>
        <pt x="40" y="26" on="1"/>
        <pt x="108" y="674" on="1"/>
        <pt x="111" y="703" on="0"/>
        <pt x="162" y="703" on="1"/>
        <pt x="194" y="703" on="1"/>
        <pt x="244" y="703" on="0"/>
        <pt x="241" y="674" on="1"/>
        <pt x="172" y="26" on="1"/>
        <pt x="170" y="-3" on="0"/>
        <pt x="120" y="-3" on="1"/>
        <pt x="88" y="-3" on="1"/>
      </contour>
    </TTGlyph>
    <TTGlyph name="J" xMin="-26" yMin="-7" xMax="330" yMax="703">
      <contour>
        <pt x="38" y="-7" on="0"/>
        <pt x="-26" y="16" on="0"/>
        <pt x="-25" y="34" on="1"/>
        <pt x="-22" y="57" on="0"/>
        <pt x="5" y="112" on="0"/>
        <pt x="19" y="113" on="1"/>
        <pt x="23" y="113" on="0"/>
        <pt x="53" y="106" on="0"/>
        <pt x="69" y="106" on="1"/>
        <pt x="105" y="106" on="0"/>
        <pt x="140" y="157" on="0"/>
        <pt x="146" y="215" on="1"/>
        <pt x="194" y="674" on="1"/>
        <pt x="197" y="703" on="0"/>
        <pt x="247" y="703" on="1"/>
        <pt x="279" y="703" on="1"/>
        <pt x="330" y="703" on="0"/>
        <pt x="327" y="674" on="1"/>
        <pt x="278" y="203" on="1"/>
        <pt x="256" y="-7" on="0"/>
        <pt x="77" y="-7" on="1"/>
      </contour>
    </TTGlyph>
    <TTGlyph name="Jcircumflex" xMin="-25" yMin="-7" xMax="387" yMax="895">
      <component glyphName="J" x="0" y="0" flags="0x0"/>
      <component glyphName="circumflex" x="108" y="177" flags="0x4"/>
    </TTGlyph>
    <TTGlyph name="K" xMin="38" yMin="-2" xMax="541" yMax="702">
      <contour>
        <pt x="38" y="-2" on="0"/>
        <pt x="41" y="26" on="1"/>
        <pt x="109" y="674" on="1"/>
        <pt x="112" y="702" on="0"/>
        <pt x="163" y="702" on="1"/>
        <pt x="193" y="702" on="1"/>
        <pt x="245" y="702" on="0"/>
        <pt x="242" y="674" on="1"/>
        <pt x="208" y="378" on="1"/>
        <pt x="214" y="378" on="1"/>
        <pt x="402" y="685" on="1"/>
        <pt x="408" y="695" on="0"/>
        <pt x="432" y="702" on="0"/>
        <pt x="453" y="702" on="1"/>
        <pt x="494" y="702" on="1"/>
        <pt x="518" y="702" on="0"/>
        <pt x="541" y="694" on="0"/>
        <pt x="540" y="688" on="1"/>
        <pt x="540" y="681" on="0"/>
        <pt x="531" y="667" on="1"/>
        <pt x="326" y="353" on="1"/>
        <pt x="477" y="32" on="1"/>
        <pt x="481" y="23" on="0"/>
        <pt x="481" y="13" on="1"/>
        <pt x="480" y="-2" on="0"/>
        <pt x="432" y="-2" on="1"/>
        <pt x="391" y="-2" on="1"/>
        <pt x="370" y="-2" on="0"/>
        <pt x="345" y="5" on="0"/>
        <pt x="341" y="15" on="1"/>
        <pt x="208" y="333" on="1"/>
        <pt x="203" y="333" on="1"/>
        <pt x="173" y="26" on="1"/>
        <pt x="171" y="-2" on="0"/>
        <pt x="119" y="-2" on="1"/>
        <pt x="89" y="-2" on="1"/>
      </contour>
    </TTGlyph>
    <TTGlyph name="Kcommaaccent" xMin="41" yMin="-238" xMax="540" yMax="702">
      <component glyphName="K" x="0" y="0" flags="0x0"/>
      <component glyphName="uni0326" x="366" y="0" flags="0x0"/>
    </TTGlyph>
    <TTGlyph name="L" xMin="40" yMin="0" xMax="375" yMax="702">
      <contour>
        <pt x="54" y="0" on="0"/>
        <pt x="40" y="17" on="0"/>
        <pt x="42" y="36" on="1"/>
        <pt x="109" y="674" on="1"/>
        <pt x="112" y="702" on="0"/>
        <pt x="163" y="702" on="1"/>
        <pt x="193" y="702" on="1"/>
        <pt x="244" y="702" on="0"/>
        <pt x="241" y="674" on="1"/>
        <pt x="182" y="111" on="1"/>
        <pt x="352" y="111" on="1"/>
        <pt x="364" y="111" on="0"/>
        <pt x="375" y="97" on="0"/>
        <pt x="375" y="81" on="1"/>
        <pt x="374" y="68" on="1"/>
        <pt x="371" y="43" on="1"/>
        <pt x="369" y="20" on="0"/>
        <pt x="354" y="0" on="0"/>
        <pt x="340" y="0" on="1"/>
        <pt x="71" y="0" on="1"/>
      </contour>
    </TTGlyph>
    <TTGlyph name="Lacute" xMin="41" yMin="0" xMax="375" yMax="911">
      <component glyphName="L" x="0" y="0" flags="0x0"/>
      <component glyphName="acute" x="90" y="178" flags="0x4"/>
    </TTGlyph>
    <TTGlyph name="Lcaron" xMin="41" yMin="0" xMax="413" yMax="702">
      <component glyphName="L" x="0" y="0" flags="0x0"/>
      <component glyphName="caron.alt" x="228" y="0" flags="0x0"/>
    </TTGlyph>
    <TTGlyph name="Lcommaaccent" xMin="41" yMin="-238" xMax="375" yMax="702">
      <component glyphName="L" x="0" y="0" flags="0x0"/>
      <component glyphName="uni0326" x="327" y="0" flags="0x0"/>
    </TTGlyph>
    <TTGlyph name="Ldot" xMin="41" yMin="0" xMax="379" yMax="702">
      <component glyphName="L" x="0" y="0" flags="0x0"/>
      <component glyphName="periodcentered" x="197" y="0" flags="0x0"/>
    </TTGlyph>
    <TTGlyph name="Lslash" xMin="39" yMin="0" xMax="374" yMax="702">
      <contour>
        <pt x="363" y="111" on="0"/>
        <pt x="374" y="97" on="0"/>
        <pt x="374" y="81" on="1"/>
        <pt x="373" y="68" on="1"/>
        <pt x="370" y="43" on="1"/>
        <pt x="368" y="20" on="0"/>
        <pt x="353" y="0" on="0"/>
        <pt x="339" y="0" on="1"/>
        <pt x="70" y="0" on="1"/>
        <pt x="53" y="0" on="0"/>
        <pt x="39" y="17" on="0"/>
        <pt x="41" y="36" on="1"/>
        <pt x="108" y="674" on="1"/>
        <pt x="111" y="702" on="0"/>
        <pt x="162" y="702" on="1"/>
        <pt x="192" y="702" on="1"/>
        <pt x="243" y="702" on="0"/>
        <pt x="240" y="674" on="1"/>
        <pt x="181" y="111" on="1"/>
        <pt x="351" y="111" on="1"/>
      </contour>
    </TTGlyph>
    <TTGlyph name="M" xMin="33" yMin="-2" xMax="674" yMax="702">
      <contour>
        <pt x="317" y="229" on="0"/>
        <pt x="303" y="238" on="0"/>
        <pt x="298" y="249" on="1"/>
        <pt x="226" y="420" on="1"/>
        <pt x="214" y="455" on="1"/>
        <pt x="208" y="475" on="1"/>
        <pt x="204" y="474" on="1"/>
        <pt x="205" y="449" on="1"/>
        <pt x="205" y="437" on="0"/>
        <pt x="203" y="413" on="1"/>
        <pt x="163" y="26" on="1"/>
        <pt x="161" y="12" on="0"/>
        <pt x="135" y="-2" on="0"/>
        <pt x="108" y="-2" on="1"/>
        <pt x="82" y="-2" on="1"/>
        <pt x="55" y="-2" on="0"/>
        <pt x="33" y="12" on="0"/>
        <pt x="35" y="26" on="1"/>
        <pt x="103" y="674" on="1"/>
        <pt x="105" y="688" on="0"/>
        <pt x="129" y="702" on="0"/>
        <pt x="156" y="702" on="1"/>
        <pt x="184" y="702" on="1"/>
        <pt x="204" y="702" on="0"/>
        <pt x="228" y="691" on="0"/>
        <pt x="233" y="678" on="1"/>
        <pt x="343" y="414" on="1"/>
        <pt x="351" y="395" on="0"/>
        <pt x="356" y="366" on="1"/>
        <pt x="365" y="394" on="0"/>
        <pt x="378" y="414" on="1"/>
        <pt x="542" y="678" on="1"/>
        <pt x="551" y="691" on="0"/>
        <pt x="576" y="702" on="0"/>
        <pt x="597" y="702" on="1"/>
        <pt x="624" y="702" on="1"/>
        <pt x="651" y="702" on="0"/>
        <pt x="674" y="688" on="0"/>
        <pt x="673" y="674" on="1"/>
        <pt x="605" y="26" on="1"/>
        <pt x="603" y="12" on="0"/>
        <pt x="577" y="-2" on="0"/>
        <pt x="550" y="-2" on="1"/>
        <pt x="524" y="-2" on="1"/>
        <pt x="498" y="-2" on="0"/>
        <pt x="475" y="12" on="0"/>
        <pt x="477" y="26" on="1"/>
        <pt x="518" y="413" on="1"/>
        <pt x="520" y="435" on="0"/>
        <pt x="530" y="474" on="1"/>
        <pt x="526" y="475" on="1"/>
        <pt x="510" y="442" on="0"/>
        <pt x="496" y="420" on="1"/>
        <pt x="388" y="249" on="1"/>
        <pt x="382" y="238" on="0"/>
        <pt x="366" y="229" on="0"/>
        <pt x="353" y="229" on="1"/>
        <pt x="330" y="229" on="1"/>
      </contour>
    </TTGlyph>
    <TTGlyph name="N" xMin="32" yMin="-2" xMax="576" yMax="702">
      <contour>
        <pt x="32" y="-2" on="0"/>
        <pt x="35" y="26" on="1"/>
        <pt x="103" y="674" on="1"/>
        <pt x="106" y="702" on="0"/>
        <pt x="156" y="702" on="1"/>
        <pt x="182" y="702" on="1"/>
        <pt x="199" y="702" on="0"/>
        <pt x="220" y="692" on="0"/>
        <pt x="226" y="677" on="1"/>
        <pt x="384" y="297" on="1"/>
        <pt x="395" y="271" on="0"/>
        <pt x="408" y="224" on="1"/>
        <pt x="412" y="226" on="1"/>
        <pt x="410" y="254" on="0"/>
        <pt x="410" y="267" on="1"/>
        <pt x="410" y="279" on="0"/>
        <pt x="412" y="301" on="1"/>
        <pt x="453" y="674" on="1"/>
        <pt x="455" y="702" on="0"/>
        <pt x="506" y="702" on="1"/>
        <pt x="526" y="702" on="1"/>
        <pt x="576" y="702" on="0"/>
        <pt x="574" y="674" on="1"/>
        <pt x="506" y="26" on="1"/>
        <pt x="501" y="-2" on="0"/>
        <pt x="452" y="-2" on="1"/>
        <pt x="433" y="-2" on="1"/>
        <pt x="415" y="-2" on="0"/>
        <pt x="394" y="8" on="0"/>
        <pt x="388" y="21" on="1"/>
        <pt x="222" y="416" on="1"/>
        <pt x="215" y="432" on="0"/>
        <pt x="204" y="472" on="0"/>
        <pt x="202" y="479" on="1"/>
        <pt x="197" y="477" on="1"/>
        <pt x="199" y="449" on="0"/>
        <pt x="199" y="435" on="1"/>
        <pt x="199" y="418" on="0"/>
        <pt x="198" y="409" on="1"/>
        <pt x="156" y="26" on="1"/>
        <pt x="154" y="-2" on="0"/>
        <pt x="102" y="-2" on="1"/>
        <pt x="82" y="-2" on="1"/>
      </contour>
    </TTGlyph>
    <TTGlyph name="Nacute" xMin="35" yMin="-2" xMax="574" yMax="910">
      <component glyphName="N" x="0" y="0" flags="0x0"/>
      <component glyphName="acute" x="251" y="177" flags="0x4"/>
    </TTGlyph>
    <TTGlyph name="Nacute.loclPLK" xMin="35" yMin="-2" xMax="574" yMax="910">
      <component glyphName="N" x="0" y="0" flags="0x0"/>
      <component glyphName="acute.loclPLK" x="253" y="177" flags="0x4"/>
    </TTGlyph>
    <TTGlyph name="Ncaron" xMin="35" yMin="-2" xMax="574" yMax="898">
      <component glyphName="N" x="0" y="0" flags="0x0"/>
      <component glyphName="caron" x="188" y="177" flags="0x4"/>
    </TTGlyph>
    <TTGlyph name="Ncommaaccent" xMin="35" yMin="-238" xMax="574" yMax="702">
      <component glyphName="N" x="0" y="0" flags="0x0"/>
      <component glyphName="uni0326" x="403" y="0" flags="0x0"/>
    </TTGlyph>
    <TTGlyph name="Ntilde" xMin="35" yMin="-2" xMax="574" yMax="872">
      <component glyphName="N" x="0" y="0" flags="0x0"/>
      <component glyphName="tilde" x="194" y="177" flags="0x4"/>
    </TTGlyph>
    <TTGlyph name="O" xMin="47" yMin="-7" xMax="570" yMax="707">
      <contour>
        <pt x="166" y="-7" on="0"/>
        <pt x="47" y="134" on="0"/>
        <pt x="47" y="275" on="1"/>
        <pt x="47" y="315" on="0"/>
        <pt x="51" y="351" on="1"/>
        <pt x="70" y="535" on="0"/>
        <pt x="216" y="707" on="0"/>
        <pt x="347" y="707" on="1"/>
        <pt x="452" y="707" on="0"/>
        <pt x="570" y="569" on="0"/>
        <pt x="570" y="430" on="1"/>
        <pt x="570" y="388" on="0"/>
        <pt x="566" y="351" on="1"/>
        <pt x="547" y="167" on="0"/>
        <pt x="401" y="-7" on="0"/>
        <pt x="271" y="-7" on="1"/>
      </contour>
      <contour>
        <pt x="347" y="104" on="0"/>
        <pt x="418" y="217" on="0"/>
        <pt x="432" y="351" on="1"/>
        <pt x="437" y="392" on="0"/>
        <pt x="437" y="439" on="1"/>
        <pt x="437" y="523" on="0"/>
        <pt x="387" y="596" on="0"/>
        <pt x="336" y="596" on="1"/>
        <pt x="272" y="596" on="0"/>
        <pt x="201" y="485" on="0"/>
        <pt x="186" y="351" on="1"/>
        <pt x="181" y="298" on="0"/>
        <pt x="181" y="265" on="1"/>
        <pt x="181" y="179" on="0"/>
        <pt x="232" y="104" on="0"/>
        <pt x="284" y="104" on="1"/>
      </contour>
    </TTGlyph>
    <TTGlyph name="OE" xMin="47" yMin="-7" xMax="827" yMax="707">
      <contour>
        <pt x="817" y="700" on="0"/>
        <pt x="827" y="680" on="0"/>
        <pt x="825" y="657" on="1"/>
        <pt x="822" y="632" on="1"/>
        <pt x="819" y="589" on="0"/>
        <pt x="792" y="589" on="1"/>
        <pt x="588" y="589" on="1"/>
        <pt x="570" y="414" on="1"/>
        <pt x="753" y="414" on="1"/>
        <pt x="766" y="414" on="0"/>
        <pt x="776" y="394" on="0"/>
        <pt x="774" y="371" on="1"/>
        <pt x="771" y="346" on="1"/>
        <pt x="767" y="303" on="0"/>
        <pt x="741" y="303" on="1"/>
        <pt x="558" y="303" on="1"/>
        <pt x="538" y="111" on="1"/>
        <pt x="742" y="111" on="1"/>
        <pt x="755" y="111" on="0"/>
        <pt x="765" y="91" on="0"/>
        <pt x="763" y="68" on="1"/>
        <pt x="760" y="43" on="1"/>
        <pt x="758" y="20" on="0"/>
        <pt x="743" y="0" on="0"/>
        <pt x="730" y="0" on="1"/>
        <pt x="427" y="0" on="1"/>
        <pt x="410" y="0" on="0"/>
        <pt x="395" y="17" on="0"/>
        <pt x="397" y="36" on="1"/>
        <pt x="339" y="-7" on="0"/>
        <pt x="256" y="-7" on="1"/>
        <pt x="160" y="-7" on="0"/>
        <pt x="47" y="133" on="0"/>
        <pt x="47" y="272" on="1"/>
        <pt x="47" y="314" on="0"/>
        <pt x="51" y="351" on="1"/>
        <pt x="71" y="532" on="0"/>
        <pt x="209" y="707" on="0"/>
        <pt x="328" y="707" on="1"/>
        <pt x="373" y="707" on="0"/>
        <pt x="440" y="682" on="0"/>
        <pt x="463" y="654" on="1"/>
        <pt x="464" y="664" on="1"/>
        <pt x="466" y="683" on="0"/>
        <pt x="484" y="700" on="0"/>
        <pt x="501" y="700" on="1"/>
        <pt x="804" y="700" on="1"/>
      </contour>
      <contour>
        <pt x="347" y="104" on="0"/>
        <pt x="418" y="217" on="0"/>
        <pt x="432" y="351" on="1"/>
        <pt x="437" y="392" on="0"/>
        <pt x="437" y="439" on="1"/>
        <pt x="437" y="523" on="0"/>
        <pt x="387" y="596" on="0"/>
        <pt x="336" y="596" on="1"/>
        <pt x="272" y="596" on="0"/>
        <pt x="201" y="485" on="0"/>
        <pt x="186" y="351" on="1"/>
        <pt x="181" y="298" on="0"/>
        <pt x="181" y="265" on="1"/>
        <pt x="181" y="179" on="0"/>
        <pt x="232" y="104" on="0"/>
        <pt x="284" y="104" on="1"/>
      </contour>
    </TTGlyph>
    <TTGlyph name="Oacute" xMin="47" yMin="-7" xMax="570" yMax="910">
      <component glyphName="O" x="0" y="0" flags="0x0"/>
      <component glyphName="acute" x="256" y="177" flags="0x4"/>
    </TTGlyph>
    <TTGlyph name="Oacute.loclPLK" xMin="47" yMin="-7" xMax="570" yMax="910">
      <component glyphName="O" x="0" y="0" flags="0x0"/>
      <component glyphName="acute.loclPLK" x="258" y="177" flags="0x4"/>
    </TTGlyph>
    <TTGlyph name="Obreve" xMin="47" yMin="-7" xMax="570" yMax="892">
      <component glyphName="O" x="0" y="0" flags="0x0"/>
      <component glyphName="breve" x="192" y="177" flags="0x4"/>
    </TTGlyph>
    <TTGlyph name="Ocircumflex" xMin="47" yMin="-7" xMax="570" yMax="895">
      <component glyphName="O" x="0" y="0" flags="0x0"/>
      <component glyphName="circumflex" x="192" y="177" flags="0x4"/>
    </TTGlyph>
    <TTGlyph name="Odieresis" xMin="47" yMin="-7" xMax="570" yMax="879">
      <component glyphName="O" x="0" y="0" flags="0x0"/>
      <component glyphName="dieresis" x="190" y="177" flags="0x4"/>
    </TTGlyph>
    <TTGlyph name="Ograve" xMin="47" yMin="-7" xMax="570" yMax="910">
      <component glyphName="O" x="0" y="0" flags="0x0"/>
      <component glyphName="grave" x="184" y="177" flags="0x4"/>
    </TTGlyph>
    <TTGlyph name="Ohorn" xMin="47" yMin="-7" xMax="632" yMax="786">
      <contour>
        <pt x="632" y="665" on="0"/>
        <pt x="581" y="616" on="0"/>
        <pt x="529" y="614" on="1"/>
        <pt x="571" y="546" on="0"/>
        <pt x="571" y="431" on="1"/>
        <pt x="571" y="398" on="0"/>
        <pt x="566" y="351" on="1"/>
        <pt x="547" y="167" on="0"/>
        <pt x="401" y="-7" on="0"/>
        <pt x="271" y="-7" on="1"/>
        <pt x="166" y="-7" on="0"/>
        <pt x="47" y="134" on="0"/>
        <pt x="47" y="275" on="1"/>
        <pt x="47" y="315" on="0"/>
        <pt x="51" y="351" on="1"/>
        <pt x="70" y="532" on="0"/>
        <pt x="216" y="707" on="0"/>
        <pt x="345" y="707" on="1"/>
        <pt x="386" y="707" on="0"/>
        <pt x="446" y="688" on="0"/>
        <pt x="477" y="670" on="1"/>
        <pt x="492" y="661" on="0"/>
        <pt x="514" y="652" on="0"/>
        <pt x="525" y="652" on="1"/>
        <pt x="540" y="652" on="0"/>
        <pt x="560" y="670" on="0"/>
        <pt x="560" y="686" on="1"/>
        <pt x="560" y="697" on="0"/>
        <pt x="551" y="714" on="0"/>
        <pt x="542" y="726" on="1"/>
        <pt x="532" y="740" on="0"/>
        <pt x="532" y="744" on="1"/>
        <pt x="532" y="755" on="0"/>
        <pt x="542" y="762" on="1"/>
        <pt x="572" y="781" on="1"/>
        <pt x="577" y="786" on="0"/>
        <pt x="586" y="786" on="1"/>
        <pt x="604" y="786" on="0"/>
        <pt x="632" y="731" on="0"/>
        <pt x="632" y="706" on="1"/>
      </contour>
      <contour>
        <pt x="437" y="392" on="0"/>
        <pt x="437" y="439" on="1"/>
        <pt x="437" y="523" on="0"/>
        <pt x="387" y="596" on="0"/>
        <pt x="336" y="596" on="1"/>
        <pt x="272" y="596" on="0"/>
        <pt x="201" y="485" on="0"/>
        <pt x="186" y="351" on="1"/>
        <pt x="181" y="298" on="0"/>
        <pt x="181" y="265" on="1"/>
        <pt x="181" y="179" on="0"/>
        <pt x="232" y="104" on="0"/>
        <pt x="284" y="104" on="1"/>
        <pt x="347" y="104" on="0"/>
        <pt x="418" y="217" on="0"/>
        <pt x="432" y="351" on="1"/>
      </contour>
    </TTGlyph>
    <TTGlyph name="Ohungarumlaut" xMin="47" yMin="-7" xMax="570" yMax="910">
      <component glyphName="O" x="0" y="0" flags="0x0"/>
      <component glyphName="hungarumlaut" x="249" y="177" flags="0x4"/>
    </TTGlyph>
    <TTGlyph name="Omacron" xMin="47" yMin="-7" xMax="570" yMax="865">
      <component glyphName="O" x="0" y="0" flags="0x0"/>
      <component glyphName="macron" x="192" y="177" flags="0x4"/>
    </TTGlyph>
    <TTGlyph name="Oslash" xMin="47" yMin="-21" xMax="570" yMax="725">
      <contour>
        <pt x="570" y="558" on="0"/>
        <pt x="570" y="429" on="1"/>
        <pt x="570" y="388" on="0"/>
        <pt x="566" y="351" on="1"/>
        <pt x="547" y="167" on="0"/>
        <pt x="401" y="-7" on="0"/>
        <pt x="271" y="-7" on="1"/>
        <pt x="191" y="-7" on="0"/>
        <pt x="138" y="33" on="1"/>
        <pt x="112" y="-7" on="1"/>
        <pt x="103" y="-21" on="0"/>
        <pt x="91" y="-21" on="1"/>
        <pt x="80" y="-21" on="0"/>
        <pt x="51" y="1" on="0"/>
        <pt x="51" y="12" on="1"/>
        <pt x="51" y="21" on="0"/>
        <pt x="57" y="28" on="1"/>
        <pt x="92" y="83" on="1"/>
        <pt x="47" y="154" on="0"/>
        <pt x="47" y="276" on="1"/>
        <pt x="47" y="315" on="0"/>
        <pt x="51" y="351" on="1"/>
        <pt x="70" y="535" on="0"/>
        <pt x="216" y="707" on="0"/>
        <pt x="347" y="707" on="1"/>
        <pt x="420" y="707" on="0"/>
        <pt x="471" y="674" on="1"/>
        <pt x="495" y="711" on="1"/>
        <pt x="504" y="725" on="0"/>
        <pt x="515" y="725" on="1"/>
        <pt x="526" y="725" on="0"/>
        <pt x="556" y="703" on="0"/>
        <pt x="556" y="692" on="1"/>
        <pt x="556" y="683" on="0"/>
        <pt x="550" y="675" on="1"/>
        <pt x="520" y="628" on="1"/>
      </contour>
      <contour>
        <pt x="181" y="298" on="0"/>
        <pt x="181" y="266" on="1"/>
        <pt x="181" y="250" on="0"/>
        <pt x="183" y="224" on="1"/>
        <pt x="404" y="570" on="1"/>
        <pt x="381" y="596" on="0"/>
        <pt x="336" y="596" on="1"/>
        <pt x="272" y="596" on="0"/>
        <pt x="201" y="485" on="0"/>
        <pt x="186" y="351" on="1"/>
      </contour>
      <contour>
        <pt x="438" y="401" on="0"/>
        <pt x="438" y="437" on="1"/>
        <pt x="438" y="462" on="0"/>
        <pt x="434" y="494" on="1"/>
        <pt x="207" y="141" on="1"/>
        <pt x="231" y="104" on="0"/>
        <pt x="284" y="104" on="1"/>
        <pt x="347" y="104" on="0"/>
        <pt x="418" y="217" on="0"/>
        <pt x="432" y="351" on="1"/>
      </contour>
    </TTGlyph>
    <TTGlyph name="Oslashacute" xMin="47" yMin="-21" xMax="570" yMax="910">
      <component glyphName="Oslash" x="0" y="0" flags="0x0"/>
      <component glyphName="acute" x="253" y="177" flags="0x4"/>
    </TTGlyph>
    <TTGlyph name="Otilde" xMin="47" yMin="-7" xMax="570" yMax="872">
      <component glyphName="O" x="0" y="0" flags="0x0"/>
      <component glyphName="tilde" x="199" y="177" flags="0x4"/>
    </TTGlyph>
    <TTGlyph name="P" xMin="38" yMin="-2" xMax="491" yMax="700">
      <contour>
        <pt x="38" y="-2" on="0"/>
        <pt x="41" y="26" on="1"/>
        <pt x="108" y="664" on="1"/>
        <pt x="110" y="683" on="0"/>
        <pt x="129" y="700" on="0"/>
        <pt x="147" y="700" on="1"/>
        <pt x="317" y="700" on="1"/>
        <pt x="387" y="700" on="0"/>
        <pt x="491" y="627" on="0"/>
        <pt x="491" y="527" on="1"/>
        <pt x="491" y="515" on="0"/>
        <pt x="489" y="489" on="1"/>
        <pt x="480" y="403" on="0"/>
        <pt x="402" y="308" on="0"/>
        <pt x="315" y="275" on="0"/>
        <pt x="282" y="275" on="1"/>
        <pt x="198" y="275" on="1"/>
        <pt x="171" y="26" on="1"/>
        <pt x="169" y="-2" on="0"/>
        <pt x="117" y="-2" on="1"/>
        <pt x="90" y="-2" on="1"/>
      </contour>
      <contour>
        <pt x="281" y="385" on="1"/>
        <pt x="308" y="385" on="0"/>
        <pt x="354" y="431" on="0"/>
        <pt x="360" y="489" on="1"/>
        <pt x="361" y="497" on="0"/>
        <pt x="361" y="510" on="1"/>
        <pt x="361" y="553" on="0"/>
        <pt x="325" y="589" on="0"/>
        <pt x="300" y="589" on="1"/>
        <pt x="230" y="589" on="1"/>
        <pt x="209" y="385" on="1"/>
      </contour>
    </TTGlyph>
    <TTGlyph name="Q" xMin="45" yMin="-163" xMax="570" yMax="707">
      <contour>
        <pt x="470" y="-163" on="0"/>
        <pt x="221" y="-25" on="0"/>
        <pt x="159" y="14" on="1"/>
        <pt x="103" y="49" on="0"/>
        <pt x="45" y="173" on="0"/>
        <pt x="45" y="269" on="1"/>
        <pt x="45" y="302" on="0"/>
        <pt x="50" y="350" on="1"/>
        <pt x="69" y="535" on="0"/>
        <pt x="213" y="707" on="0"/>
        <pt x="346" y="707" on="1"/>
        <pt x="454" y="707" on="0"/>
        <pt x="570" y="571" on="0"/>
        <pt x="570" y="432" on="1"/>
        <pt x="570" y="398" on="0"/>
        <pt x="565" y="350" on="1"/>
        <pt x="536" y="85" on="0"/>
        <pt x="372" y="19" on="1"/>
        <pt x="372" y="15" on="1"/>
        <pt x="539" y="-61" on="1"/>
        <pt x="551" y="-66" on="0"/>
        <pt x="549" y="-78" on="1"/>
        <pt x="547" y="-87" on="0"/>
        <pt x="524" y="-129" on="0"/>
        <pt x="493" y="-163" on="0"/>
        <pt x="480" y="-163" on="1"/>
      </contour>
      <contour>
        <pt x="345" y="102" on="0"/>
        <pt x="417" y="216" on="0"/>
        <pt x="431" y="350" on="1"/>
        <pt x="436" y="391" on="0"/>
        <pt x="436" y="438" on="1"/>
        <pt x="436" y="522" on="0"/>
        <pt x="386" y="596" on="0"/>
        <pt x="335" y="596" on="1"/>
        <pt x="272" y="596" on="0"/>
        <pt x="200" y="483" on="0"/>
        <pt x="185" y="350" on="1"/>
        <pt x="180" y="297" on="0"/>
        <pt x="180" y="264" on="1"/>
        <pt x="180" y="178" on="0"/>
        <pt x="231" y="102" on="0"/>
        <pt x="283" y="102" on="1"/>
      </contour>
    </TTGlyph>
    <TTGlyph name="R" xMin="35" yMin="-2" xMax="486" yMax="700">
      <contour>
        <pt x="35" y="-2" on="0"/>
        <pt x="37" y="26" on="1"/>
        <pt x="105" y="664" on="1"/>
        <pt x="107" y="683" on="0"/>
        <pt x="125" y="700" on="0"/>
        <pt x="144" y="700" on="1"/>
        <pt x="304" y="700" on="1"/>
        <pt x="486" y="700" on="0"/>
        <pt x="486" y="545" on="1"/>
        <pt x="486" y="534" on="0"/>
        <pt x="484" y="510" on="1"/>
        <pt x="472" y="392" on="0"/>
        <pt x="373" y="341" on="1"/>
        <pt x="373" y="337" on="1"/>
        <pt x="412" y="315" on="0"/>
        <pt x="429" y="228" on="1"/>
        <pt x="469" y="34" on="1"/>
        <pt x="471" y="22" on="1"/>
        <pt x="468" y="-1" on="0"/>
        <pt x="414" y="-1" on="1"/>
        <pt x="386" y="-1" on="1"/>
        <pt x="341" y="-1" on="0"/>
        <pt x="337" y="22" on="1"/>
        <pt x="301" y="214" on="1"/>
        <pt x="293" y="249" on="0"/>
        <pt x="265" y="275" on="0"/>
        <pt x="233" y="275" on="1"/>
        <pt x="195" y="275" on="1"/>
        <pt x="168" y="26" on="1"/>
        <pt x="165" y="-2" on="0"/>
        <pt x="113" y="-2" on="1"/>
        <pt x="87" y="-2" on="1"/>
      </contour>
      <contour>
        <pt x="280" y="395" on="1"/>
        <pt x="310" y="395" on="0"/>
        <pt x="356" y="463" on="0"/>
        <pt x="356" y="516" on="1"/>
        <pt x="356" y="589" on="0"/>
        <pt x="295" y="589" on="1"/>
        <pt x="227" y="589" on="1"/>
        <pt x="207" y="395" on="1"/>
      </contour>
    </TTGlyph>
    <TTGlyph name="Racute" xMin="37" yMin="-2" xMax="486" yMax="910">
      <component glyphName="R" x="0" y="0" flags="0x0"/>
      <component glyphName="acute" x="208" y="177" flags="0x4"/>
    </TTGlyph>
    <TTGlyph name="Rcaron" xMin="37" yMin="-2" xMax="486" yMax="898">
      <component glyphName="R" x="0" y="0" flags="0x0"/>
      <component glyphName="caron" x="145" y="177" flags="0x4"/>
    </TTGlyph>
    <TTGlyph name="Rcommaaccent" xMin="37" yMin="-238" xMax="486" yMax="700">
      <component glyphName="R" x="0" y="0" flags="0x0"/>
      <component glyphName="uni0326" x="362" y="0" flags="0x0"/>
    </TTGlyph>
    <TTGlyph name="S" xMin="6" yMin="-7" xMax="423" yMax="709">
      <contour>
        <pt x="97" y="-7" on="0"/>
        <pt x="51" y="19" on="1"/>
        <pt x="6" y="38" on="0"/>
        <pt x="6" y="64" on="1"/>
        <pt x="6" y="89" on="0"/>
        <pt x="31" y="146" on="0"/>
        <pt x="47" y="146" on="1"/>
        <pt x="54" y="146" on="0"/>
        <pt x="63" y="139" on="1"/>
        <pt x="92" y="122" on="0"/>
        <pt x="145" y="105" on="0"/>
        <pt x="175" y="105" on="1"/>
        <pt x="218" y="105" on="0"/>
        <pt x="274" y="150" on="0"/>
        <pt x="274" y="199" on="1"/>
        <pt x="274" y="235" on="0"/>
        <pt x="229" y="281" on="0"/>
        <pt x="181" y="310" on="1"/>
        <pt x="119" y="348" on="0"/>
        <pt x="57" y="428" on="0"/>
        <pt x="57" y="492" on="1"/>
        <pt x="57" y="558" on="0"/>
        <pt x="113" y="656" on="0"/>
        <pt x="211" y="709" on="0"/>
        <pt x="273" y="709" on="1"/>
        <pt x="309" y="709" on="0"/>
        <pt x="383" y="694" on="0"/>
        <pt x="406" y="680" on="1"/>
        <pt x="423" y="671" on="0"/>
        <pt x="423" y="654" on="1"/>
        <pt x="423" y="632" on="0"/>
        <pt x="399" y="574" on="0"/>
        <pt x="384" y="574" on="1"/>
        <pt x="379" y="574" on="0"/>
        <pt x="363" y="579" on="0"/>
        <pt x="360" y="580" on="1"/>
        <pt x="318" y="597" on="0"/>
        <pt x="284" y="597" on="1"/>
        <pt x="237" y="597" on="0"/>
        <pt x="188" y="549" on="0"/>
        <pt x="188" y="514" on="1"/>
        <pt x="188" y="477" on="0"/>
        <pt x="233" y="430" on="0"/>
        <pt x="282" y="400" on="1"/>
        <pt x="345" y="361" on="0"/>
        <pt x="406" y="284" on="0"/>
        <pt x="406" y="222" on="1"/>
        <pt x="406" y="114" on="0"/>
        <pt x="283" y="-7" on="0"/>
        <pt x="175" y="-7" on="1"/>
      </contour>
    </TTGlyph>
    <TTGlyph name="Sacute" xMin="6" yMin="-7" xMax="423" yMax="910">
      <component glyphName="S" x="0" y="0" flags="0x0"/>
      <component glyphName="acute" x="179" y="177" flags="0x4"/>
    </TTGlyph>
    <TTGlyph name="Sacute.loclPLK" xMin="6" yMin="-7" xMax="423" yMax="910">
      <component glyphName="S" x="0" y="0" flags="0x0"/>
      <component glyphName="acute.loclPLK" x="181" y="177" flags="0x4"/>
    </TTGlyph>
    <TTGlyph name="Scaron" xMin="6" yMin="-7" xMax="423" yMax="898">
      <component glyphName="S" x="0" y="0" flags="0x0"/>
      <component glyphName="caron" x="116" y="177" flags="0x4"/>
    </TTGlyph>
    <TTGlyph name="Scedilla" xMin="6" yMin="-211" xMax="423" yMax="709">
      <contour>
        <pt x="345" y="361" on="0"/>
        <pt x="406" y="284" on="0"/>
        <pt x="406" y="222" on="1"/>
        <pt x="406" y="119" on="0"/>
        <pt x="294" y="-1" on="0"/>
        <pt x="195" y="-6" on="1"/>
        <pt x="182" y="-52" on="1"/>
        <pt x="211" y="-55" on="0"/>
        <pt x="250" y="-91" on="0"/>
        <pt x="250" y="-124" on="1"/>
        <pt x="250" y="-168" on="0"/>
        <pt x="194" y="-211" on="0"/>
        <pt x="148" y="-211" on="1"/>
        <pt x="109" y="-211" on="0"/>
        <pt x="47" y="-183" on="0"/>
        <pt x="47" y="-163" on="1"/>
        <pt x="47" y="-148" on="0"/>
        <pt x="66" y="-126" on="0"/>
        <pt x="74" y="-126" on="1"/>
        <pt x="80" y="-126" on="0"/>
        <pt x="98" y="-134" on="1"/>
        <pt x="124" y="-147" on="0"/>
        <pt x="141" y="-147" on="1"/>
        <pt x="152" y="-147" on="0"/>
        <pt x="166" y="-137" on="0"/>
        <pt x="166" y="-126" on="1"/>
        <pt x="166" y="-115" on="0"/>
        <pt x="153" y="-106" on="0"/>
        <pt x="139" y="-99" on="1"/>
        <pt x="116" y="-91" on="0"/>
        <pt x="116" y="-79" on="1"/>
        <pt x="116" y="-70" on="0"/>
        <pt x="139" y="-6" on="1"/>
        <pt x="86" y="-1" on="0"/>
        <pt x="51" y="19" on="1"/>
        <pt x="6" y="38" on="0"/>
        <pt x="6" y="64" on="1"/>
        <pt x="6" y="89" on="0"/>
        <pt x="31" y="146" on="0"/>
        <pt x="47" y="146" on="1"/>
        <pt x="54" y="146" on="0"/>
        <pt x="63" y="139" on="1"/>
        <pt x="92" y="122" on="0"/>
        <pt x="145" y="105" on="0"/>
        <pt x="175" y="105" on="1"/>
        <pt x="218" y="105" on="0"/>
        <pt x="274" y="150" on="0"/>
        <pt x="274" y="199" on="1"/>
        <pt x="274" y="235" on="0"/>
        <pt x="229" y="281" on="0"/>
        <pt x="181" y="310" on="1"/>
        <pt x="119" y="348" on="0"/>
        <pt x="57" y="428" on="0"/>
        <pt x="57" y="492" on="1"/>
        <pt x="57" y="558" on="0"/>
        <pt x="113" y="656" on="0"/>
        <pt x="211" y="709" on="0"/>
        <pt x="273" y="709" on="1"/>
        <pt x="309" y="709" on="0"/>
        <pt x="383" y="694" on="0"/>
        <pt x="406" y="680" on="1"/>
        <pt x="423" y="671" on="0"/>
        <pt x="423" y="654" on="1"/>
        <pt x="423" y="632" on="0"/>
        <pt x="399" y="574" on="0"/>
        <pt x="384" y="574" on="1"/>
        <pt x="379" y="574" on="0"/>
        <pt x="363" y="579" on="0"/>
        <pt x="360" y="580" on="1"/>
        <pt x="318" y="597" on="0"/>
        <pt x="284" y="597" on="1"/>
        <pt x="237" y="597" on="0"/>
        <pt x="188" y="549" on="0"/>
        <pt x="188" y="514" on="1"/>
        <pt x="188" y="477" on="0"/>
        <pt x="233" y="430" on="0"/>
        <pt x="282" y="400" on="1"/>
      </contour>
    </TTGlyph>
    <TTGlyph name="Scircumflex" xMin="6" yMin="-7" xMax="423" yMax="895">
      <component glyphName="S" x="0" y="0" flags="0x0"/>
      <component glyphName="circumflex" x="115" y="177" flags="0x4"/>
    </TTGlyph>
    <TTGlyph name="Scommaaccent" xMin="6" yMin="-238" xMax="423" yMax="709">
      <component glyphName="S" x="0" y="0" flags="0x0"/>
      <component glyphName="uni0326" x="301" y="0" flags="0x0"/>
    </TTGlyph>
    <TTGlyph name="T" xMin="50" yMin="-2" xMax="487" yMax="700">
      <contour>
        <pt x="133" y="-2" on="0"/>
        <pt x="136" y="26" on="1"/>
        <pt x="195" y="589" on="1"/>
        <pt x="72" y="589" on="1"/>
        <pt x="50" y="589" on="0"/>
        <pt x="50" y="620" on="1"/>
        <pt x="51" y="632" on="1"/>
        <pt x="54" y="657" on="1"/>
        <pt x="58" y="700" on="0"/>
        <pt x="84" y="700" on="1"/>
        <pt x="463" y="700" on="1"/>
        <pt x="476" y="700" on="0"/>
        <pt x="487" y="680" on="0"/>
        <pt x="485" y="657" on="1"/>
        <pt x="481" y="632" on="1"/>
        <pt x="478" y="589" on="0"/>
        <pt x="451" y="589" on="1"/>
        <pt x="328" y="589" on="1"/>
        <pt x="268" y="26" on="1"/>
        <pt x="266" y="-2" on="0"/>
        <pt x="215" y="-2" on="1"/>
        <pt x="184" y="-2" on="1"/>
      </contour>
    </TTGlyph>
    <TTGlyph name="Tbar" xMin="27" yMin="-2" xMax="487" yMax="700">
      <contour>
        <pt x="476" y="700" on="0"/>
        <pt x="487" y="680" on="0"/>
        <pt x="485" y="657" on="1"/>
        <pt x="481" y="632" on="1"/>
        <pt x="478" y="589" on="0"/>
        <pt x="451" y="589" on="1"/>
        <pt x="328" y="589" on="1"/>
        <pt x="307" y="395" on="1"/>
        <pt x="419" y="395" on="1"/>
        <pt x="442" y="395" on="0"/>
        <pt x="442" y="366" on="1"/>
        <pt x="442" y="345" on="0"/>
        <pt x="429" y="308" on="0"/>
        <pt x="409" y="308" on="1"/>
        <pt x="298" y="308" on="1"/>
        <pt x="268" y="26" on="1"/>
        <pt x="266" y="-2" on="0"/>
        <pt x="215" y="-2" on="1"/>
        <pt x="184" y="-2" on="1"/>
        <pt x="133" y="-2" on="0"/>
        <pt x="136" y="26" on="1"/>
        <pt x="166" y="308" on="1"/>
        <pt x="50" y="308" on="1"/>
        <pt x="38" y="308" on="0"/>
        <pt x="27" y="322" on="0"/>
        <pt x="27" y="337" on="1"/>
        <pt x="27" y="395" on="0"/>
        <pt x="59" y="395" on="1"/>
        <pt x="175" y="395" on="1"/>
        <pt x="195" y="589" on="1"/>
        <pt x="72" y="589" on="1"/>
        <pt x="50" y="589" on="0"/>
        <pt x="50" y="620" on="1"/>
        <pt x="51" y="632" on="1"/>
        <pt x="54" y="657" on="1"/>
        <pt x="58" y="700" on="0"/>
        <pt x="84" y="700" on="1"/>
        <pt x="463" y="700" on="1"/>
      </contour>
    </TTGlyph>
    <TTGlyph name="Tcaron" xMin="50" yMin="-2" xMax="485" yMax="898">
      <component glyphName="T" x="0" y="0" flags="0x0"/>
      <component glyphName="caron" x="120" y="177" flags="0x4"/>
    </TTGlyph>
    <TTGlyph name="Thorn" xMin="34" yMin="-2" xMax="475" yMax="702">
      <contour>
        <pt x="34" y="-2" on="0"/>
        <pt x="37" y="26" on="1"/>
        <pt x="105" y="674" on="1"/>
        <pt x="108" y="702" on="0"/>
        <pt x="158" y="702" on="1"/>
        <pt x="189" y="702" on="1"/>
        <pt x="240" y="702" on="0"/>
        <pt x="237" y="674" on="1"/>
        <pt x="228" y="587" on="1"/>
        <pt x="301" y="587" on="1"/>
        <pt x="370" y="587" on="0"/>
        <pt x="475" y="514" on="0"/>
        <pt x="475" y="414" on="1"/>
        <pt x="475" y="402" on="0"/>
        <pt x="473" y="376" on="1"/>
        <pt x="463" y="290" on="0"/>
        <pt x="386" y="195" on="0"/>
        <pt x="299" y="162" on="0"/>
        <pt x="266" y="162" on="1"/>
        <pt x="183" y="162" on="1"/>
        <pt x="169" y="26" on="1"/>
        <pt x="166" y="-2" on="0"/>
        <pt x="115" y="-2" on="1"/>
        <pt x="84" y="-2" on="1"/>
      </contour>
      <contour>
        <pt x="264" y="271" on="1"/>
        <pt x="291" y="271" on="0"/>
        <pt x="337" y="318" on="0"/>
        <pt x="343" y="376" on="1"/>
        <pt x="344" y="385" on="0"/>
        <pt x="344" y="400" on="1"/>
        <pt x="344" y="476" on="0"/>
        <pt x="283" y="476" on="1"/>
        <pt x="216" y="476" on="1"/>
        <pt x="194" y="271" on="1"/>
      </contour>
    </TTGlyph>
    <TTGlyph name="U" xMin="49" yMin="-7" xMax="572" yMax="702">
      <contour>
        <pt x="161" y="-7" on="0"/>
        <pt x="49" y="87" on="0"/>
        <pt x="49" y="172" on="1"/>
        <pt x="49" y="181" on="0"/>
        <pt x="51" y="201" on="1"/>
        <pt x="101" y="674" on="1"/>
        <pt x="103" y="702" on="0"/>
        <pt x="154" y="702" on="1"/>
        <pt x="184" y="702" on="1"/>
        <pt x="235" y="702" on="0"/>
        <pt x="233" y="674" on="1"/>
        <pt x="183" y="207" on="1"/>
        <pt x="178" y="162" on="0"/>
        <pt x="229" y="104" on="0"/>
        <pt x="275" y="104" on="1"/>
        <pt x="321" y="104" on="0"/>
        <pt x="384" y="162" on="0"/>
        <pt x="389" y="207" on="1"/>
        <pt x="438" y="674" on="1"/>
        <pt x="440" y="702" on="0"/>
        <pt x="491" y="702" on="1"/>
        <pt x="521" y="702" on="1"/>
        <pt x="572" y="702" on="0"/>
        <pt x="569" y="674" on="1"/>
        <pt x="519" y="201" on="1"/>
        <pt x="509" y="103" on="0"/>
        <pt x="374" y="-7" on="0"/>
        <pt x="264" y="-7" on="1"/>
      </contour>
    </TTGlyph>
    <TTGlyph name="Uacute" xMin="49" yMin="-7" xMax="569" yMax="910">
      <component glyphName="U" x="0" y="0" flags="0x0"/>
      <component glyphName="acute" x="248" y="177" flags="0x4"/>
    </TTGlyph>
    <TTGlyph name="Ubreve" xMin="49" yMin="-7" xMax="569" yMax="892">
      <component glyphName="U" x="0" y="0" flags="0x0"/>
      <component glyphName="breve" x="184" y="177" flags="0x4"/>
    </TTGlyph>
    <TTGlyph name="Ucircumflex" xMin="49" yMin="-7" xMax="569" yMax="895">
      <component glyphName="U" x="0" y="0" flags="0x0"/>
      <component glyphName="circumflex" x="184" y="177" flags="0x4"/>
    </TTGlyph>
    <TTGlyph name="Udieresis" xMin="49" yMin="-7" xMax="569" yMax="879">
      <component glyphName="U" x="0" y="0" flags="0x0"/>
      <component glyphName="dieresis" x="182" y="177" flags="0x4"/>
    </TTGlyph>
    <TTGlyph name="Ugrave" xMin="49" yMin="-7" xMax="569" yMax="910">
      <component glyphName="U" x="0" y="0" flags="0x0"/>
      <component glyphName="grave" x="176" y="177" flags="0x4"/>
    </TTGlyph>
    <TTGlyph name="Uhorn" xMin="49" yMin="-7" xMax="650" yMax="835">
      <contour>
        <pt x="650" y="718" on="0"/>
        <pt x="609" y="672" on="0"/>
        <pt x="568" y="665" on="1"/>
        <pt x="519" y="201" on="1"/>
        <pt x="509" y="103" on="0"/>
        <pt x="374" y="-7" on="0"/>
        <pt x="264" y="-7" on="1"/>
        <pt x="161" y="-7" on="0"/>
        <pt x="49" y="87" on="0"/>
        <pt x="49" y="172" on="1"/>
        <pt x="49" y="181" on="0"/>
        <pt x="51" y="201" on="1"/>
        <pt x="101" y="674" on="1"/>
        <pt x="103" y="702" on="0"/>
        <pt x="154" y="702" on="1"/>
        <pt x="184" y="702" on="1"/>
        <pt x="235" y="702" on="0"/>
        <pt x="233" y="674" on="1"/>
        <pt x="183" y="207" on="1"/>
        <pt x="178" y="162" on="0"/>
        <pt x="229" y="104" on="0"/>
        <pt x="275" y="104" on="1"/>
        <pt x="321" y="104" on="0"/>
        <pt x="384" y="162" on="0"/>
        <pt x="389" y="207" on="1"/>
        <pt x="438" y="674" on="1"/>
        <pt x="440" y="702" on="0"/>
        <pt x="491" y="702" on="1"/>
        <pt x="535" y="702" on="1"/>
        <pt x="556" y="702" on="0"/>
        <pt x="578" y="721" on="0"/>
        <pt x="578" y="735" on="1"/>
        <pt x="578" y="746" on="0"/>
        <pt x="569" y="763" on="0"/>
        <pt x="560" y="775" on="1"/>
        <pt x="550" y="789" on="0"/>
        <pt x="550" y="793" on="1"/>
        <pt x="550" y="805" on="0"/>
        <pt x="561" y="810" on="1"/>
        <pt x="590" y="830" on="1"/>
        <pt x="595" y="835" on="0"/>
        <pt x="604" y="835" on="1"/>
        <pt x="622" y="835" on="0"/>
        <pt x="650" y="780" on="0"/>
        <pt x="650" y="755" on="1"/>
      </contour>
    </TTGlyph>
    <TTGlyph name="Uhungarumlaut" xMin="49" yMin="-7" xMax="569" yMax="910">
      <component glyphName="U" x="0" y="0" flags="0x0"/>
      <component glyphName="hungarumlaut" x="241" y="177" flags="0x4"/>
    </TTGlyph>
    <TTGlyph name="Umacron" xMin="49" yMin="-7" xMax="569" yMax="865">
      <component glyphName="U" x="0" y="0" flags="0x0"/>
      <component glyphName="macron" x="184" y="177" flags="0x4"/>
    </TTGlyph>
    <TTGlyph name="Uogonek" xMin="49" yMin="-162" xMax="572" yMax="702">
      <contour>
        <pt x="572" y="702" on="0"/>
        <pt x="569" y="674" on="1"/>
        <pt x="519" y="201" on="1"/>
        <pt x="513" y="140" on="0"/>
        <pt x="455" y="50" on="0"/>
        <pt x="406" y="24" on="1"/>
        <pt x="386" y="-15" on="0"/>
        <pt x="386" y="-52" on="1"/>
        <pt x="386" y="-77" on="0"/>
        <pt x="414" y="-95" on="0"/>
        <pt x="435" y="-95" on="1"/>
        <pt x="443" y="-95" on="0"/>
        <pt x="460" y="-90" on="0"/>
        <pt x="465" y="-90" on="1"/>
        <pt x="478" y="-90" on="0"/>
        <pt x="491" y="-103" on="0"/>
        <pt x="491" y="-118" on="1"/>
        <pt x="491" y="-139" on="0"/>
        <pt x="476" y="-147" on="1"/>
        <pt x="449" y="-162" on="0"/>
        <pt x="416" y="-162" on="1"/>
        <pt x="360" y="-162" on="0"/>
        <pt x="321" y="-103" on="0"/>
        <pt x="321" y="-70" on="1"/>
        <pt x="321" y="-37" on="0"/>
        <pt x="336" y="0" on="1"/>
        <pt x="305" y="-7" on="0"/>
        <pt x="264" y="-7" on="1"/>
        <pt x="161" y="-7" on="0"/>
        <pt x="49" y="87" on="0"/>
        <pt x="49" y="172" on="1"/>
        <pt x="49" y="181" on="0"/>
        <pt x="51" y="201" on="1"/>
        <pt x="101" y="674" on="1"/>
        <pt x="103" y="702" on="0"/>
        <pt x="154" y="702" on="1"/>
        <pt x="184" y="702" on="1"/>
        <pt x="235" y="702" on="0"/>
        <pt x="233" y="674" on="1"/>
        <pt x="183" y="207" on="1"/>
        <pt x="178" y="162" on="0"/>
        <pt x="229" y="104" on="0"/>
        <pt x="275" y="104" on="1"/>
        <pt x="321" y="104" on="0"/>
        <pt x="384" y="162" on="0"/>
        <pt x="389" y="207" on="1"/>
        <pt x="438" y="674" on="1"/>
        <pt x="440" y="702" on="0"/>
        <pt x="491" y="702" on="1"/>
        <pt x="521" y="702" on="1"/>
      </contour>
    </TTGlyph>
    <TTGlyph name="Uring" xMin="49" yMin="-7" xMax="569" yMax="920">
      <component glyphName="U" x="0" y="0" flags="0x0"/>
      <component glyphName="ring" x="182" y="177" flags="0x4"/>
    </TTGlyph>
    <TTGlyph name="Utilde" xMin="49" yMin="-7" xMax="569" yMax="872">
      <component glyphName="U" x="0" y="0" flags="0x0"/>
      <component glyphName="tilde" x="191" y="177" flags="0x4"/>
    </TTGlyph>
    <TTGlyph name="V" xMin="53" yMin="-2" xMax="543" yMax="702">
      <contour>
        <pt x="156" y="-2" on="0"/>
        <pt x="153" y="17" on="1"/>
        <pt x="56" y="666" on="1"/>
        <pt x="56" y="669" on="0"/>
        <pt x="53" y="678" on="0"/>
        <pt x="54" y="682" on="1"/>
        <pt x="55" y="691" on="0"/>
        <pt x="82" y="702" on="0"/>
        <pt x="108" y="702" on="1"/>
        <pt x="137" y="702" on="1"/>
        <pt x="180" y="702" on="0"/>
        <pt x="183" y="678" on="1"/>
        <pt x="236" y="197" on="1"/>
        <pt x="238" y="134" on="1"/>
        <pt x="241" y="134" on="1"/>
        <pt x="257" y="197" on="1"/>
        <pt x="413" y="678" on="1"/>
        <pt x="421" y="702" on="0"/>
        <pt x="464" y="702" on="1"/>
        <pt x="492" y="702" on="1"/>
        <pt x="543" y="702" on="0"/>
        <pt x="541" y="682" on="1"/>
        <pt x="536" y="665" on="1"/>
        <pt x="306" y="17" on="1"/>
        <pt x="299" y="-2" on="0"/>
        <pt x="256" y="-2" on="1"/>
        <pt x="198" y="-2" on="1"/>
      </contour>
    </TTGlyph>
    <TTGlyph name="W" xMin="55" yMin="-2" xMax="786" yMax="702">
      <contour>
        <pt x="129" y="-2" on="0"/>
        <pt x="128" y="17" on="1"/>
        <pt x="55" y="665" on="1"/>
        <pt x="55" y="668" on="1"/>
        <pt x="56" y="679" on="1"/>
        <pt x="59" y="702" on="0"/>
        <pt x="110" y="702" on="1"/>
        <pt x="133" y="702" on="1"/>
        <pt x="185" y="702" on="0"/>
        <pt x="186" y="676" on="1"/>
        <pt x="206" y="266" on="1"/>
        <pt x="208" y="236" on="0"/>
        <pt x="208" y="175" on="1"/>
        <pt x="209" y="160" on="0"/>
        <pt x="209" y="130" on="1"/>
        <pt x="221" y="174" on="0"/>
        <pt x="226" y="196" on="1"/>
        <pt x="240" y="244" on="0"/>
        <pt x="245" y="267" on="1"/>
        <pt x="359" y="682" on="1"/>
        <pt x="362" y="693" on="0"/>
        <pt x="385" y="702" on="0"/>
        <pt x="407" y="702" on="1"/>
        <pt x="439" y="702" on="1"/>
        <pt x="461" y="702" on="0"/>
        <pt x="483" y="693" on="0"/>
        <pt x="484" y="682" on="1"/>
        <pt x="517" y="266" on="1"/>
        <pt x="520" y="228" on="0"/>
        <pt x="522" y="128" on="1"/>
        <pt x="544" y="215" on="1"/>
        <pt x="557" y="266" on="1"/>
        <pt x="658" y="676" on="1"/>
        <pt x="664" y="702" on="0"/>
        <pt x="715" y="702" on="1"/>
        <pt x="734" y="702" on="1"/>
        <pt x="786" y="702" on="0"/>
        <pt x="784" y="679" on="1"/>
        <pt x="784" y="677" on="0"/>
        <pt x="783" y="668" on="0"/>
        <pt x="781" y="665" on="1"/>
        <pt x="585" y="17" on="1"/>
        <pt x="579" y="-2" on="0"/>
        <pt x="536" y="-2" on="1"/>
        <pt x="489" y="-2" on="1"/>
        <pt x="471" y="-2" on="0"/>
        <pt x="448" y="8" on="0"/>
        <pt x="447" y="17" on="1"/>
        <pt x="408" y="395" on="1"/>
        <pt x="406" y="512" on="1"/>
        <pt x="378" y="395" on="1"/>
        <pt x="266" y="17" on="1"/>
        <pt x="263" y="8" on="0"/>
        <pt x="237" y="-2" on="0"/>
        <pt x="218" y="-2" on="1"/>
        <pt x="172" y="-2" on="1"/>
      </contour>
    </TTGlyph>
    <TTGlyph name="Wacute" xMin="55" yMin="-2" xMax="784" yMax="910">
      <component glyphName="W" x="0" y="0" flags="0x0"/>
      <component glyphName="acute" x="331" y="177" flags="0x4"/>
    </TTGlyph>
    <TTGlyph name="Wcircumflex" xMin="55" yMin="-2" xMax="784" yMax="895">
      <component glyphName="W" x="0" y="0" flags="0x0"/>
      <component glyphName="circumflex" x="267" y="177" flags="0x4"/>
    </TTGlyph>
    <TTGlyph name="Wdieresis" xMin="55" yMin="-2" xMax="784" yMax="879">
      <component glyphName="W" x="0" y="0" flags="0x0"/>
      <component glyphName="dieresis" x="265" y="177" flags="0x4"/>
    </TTGlyph>
    <TTGlyph name="Wgrave" xMin="55" yMin="-2" xMax="784" yMax="910">
      <component glyphName="W" x="0" y="0" flags="0x0"/>
      <component glyphName="grave" x="259" y="177" flags="0x4"/>
    </TTGlyph>
    <TTGlyph name="X" xMin="-15" yMin="-2" xMax="533" yMax="702">
      <contour>
        <pt x="-15" y="-2" on="0"/>
        <pt x="-13" y="16" on="1"/>
        <pt x="-12" y="23" on="0"/>
        <pt x="-3" y="39" on="1"/>
        <pt x="187" y="366" on="1"/>
        <pt x="82" y="661" on="1"/>
        <pt x="75" y="677" on="0"/>
        <pt x="75" y="684" on="1"/>
        <pt x="77" y="702" on="0"/>
        <pt x="131" y="702" on="1"/>
        <pt x="168" y="702" on="1"/>
        <pt x="210" y="702" on="0"/>
        <pt x="214" y="684" on="1"/>
        <pt x="275" y="446" on="1"/>
        <pt x="393" y="684" on="1"/>
        <pt x="398" y="695" on="0"/>
        <pt x="422" y="702" on="0"/>
        <pt x="444" y="702" on="1"/>
        <pt x="479" y="702" on="1"/>
        <pt x="533" y="702" on="0"/>
        <pt x="530" y="684" on="1"/>
        <pt x="530" y="679" on="0"/>
        <pt x="521" y="661" on="1"/>
        <pt x="345" y="364" on="1"/>
        <pt x="461" y="39" on="1"/>
        <pt x="462" y="36" on="0"/>
        <pt x="467" y="21" on="0"/>
        <pt x="466" y="16" on="1"/>
        <pt x="464" y="-2" on="0"/>
        <pt x="412" y="-2" on="1"/>
        <pt x="377" y="-2" on="1"/>
        <pt x="335" y="-2" on="0"/>
        <pt x="330" y="16" on="1"/>
        <pt x="258" y="278" on="1"/>
        <pt x="123" y="16" on="1"/>
        <pt x="118" y="4" on="0"/>
        <pt x="94" y="-2" on="0"/>
        <pt x="72" y="-2" on="1"/>
        <pt x="38" y="-2" on="1"/>
      </contour>
    </TTGlyph>
    <TTGlyph name="Y" xMin="51" yMin="-2" xMax="521" yMax="702">
      <contour>
        <pt x="148" y="-2" on="0"/>
        <pt x="151" y="26" on="1"/>
        <pt x="181" y="307" on="1"/>
        <pt x="58" y="661" on="1"/>
        <pt x="51" y="677" on="0"/>
        <pt x="52" y="683" on="1"/>
        <pt x="54" y="702" on="0"/>
        <pt x="106" y="702" on="1"/>
        <pt x="144" y="702" on="1"/>
        <pt x="165" y="702" on="0"/>
        <pt x="189" y="694" on="0"/>
        <pt x="191" y="684" on="1"/>
        <pt x="255" y="403" on="1"/>
        <pt x="384" y="685" on="1"/>
        <pt x="393" y="702" on="0"/>
        <pt x="435" y="702" on="1"/>
        <pt x="468" y="702" on="1"/>
        <pt x="521" y="702" on="0"/>
        <pt x="519" y="683" on="1"/>
        <pt x="519" y="677" on="0"/>
        <pt x="510" y="661" on="1"/>
        <pt x="313" y="304" on="1"/>
        <pt x="283" y="26" on="1"/>
        <pt x="280" y="-2" on="0"/>
        <pt x="229" y="-2" on="1"/>
        <pt x="199" y="-2" on="1"/>
      </contour>
    </TTGlyph>
    <TTGlyph name="Y.loclGUA" xMin="34" yMin="-9" xMax="493" yMax="701">
      <contour>
        <pt x="493" y="701" on="0"/>
        <pt x="491" y="673" on="1"/>
        <pt x="448" y="273" on="1"/>
        <pt x="433" y="124" on="0"/>
        <pt x="323" y="-9" on="0"/>
        <pt x="215" y="-9" on="1"/>
        <pt x="142" y="-9" on="0"/>
        <pt x="36" y="29" on="0"/>
        <pt x="34" y="55" on="1"/>
        <pt x="34" y="78" on="0"/>
        <pt x="36" y="94" on="1"/>
        <pt x="38" y="112" on="0"/>
        <pt x="49" y="129" on="0"/>
        <pt x="55" y="129" on="1"/>
        <pt x="58" y="129" on="0"/>
        <pt x="103" y="108" on="0"/>
        <pt x="161" y="92" on="0"/>
        <pt x="197" y="92" on="1"/>
        <pt x="254" y="92" on="0"/>
        <pt x="313" y="162" on="0"/>
        <pt x="321" y="240" on="1"/>
        <pt x="324" y="270" on="1"/>
        <pt x="299" y="241" on="0"/>
        <pt x="230" y="209" on="0"/>
        <pt x="192" y="209" on="1"/>
        <pt x="127" y="209" on="0"/>
        <pt x="60" y="273" on="0"/>
        <pt x="60" y="334" on="1"/>
        <pt x="60" y="343" on="0"/>
        <pt x="62" y="363" on="1"/>
        <pt x="94" y="673" on="1"/>
        <pt x="97" y="701" on="0"/>
        <pt x="150" y="701" on="1"/>
        <pt x="169" y="701" on="1"/>
        <pt x="222" y="701" on="0"/>
        <pt x="219" y="673" on="1"/>
        <pt x="188" y="380" on="1"/>
        <pt x="185" y="348" on="0"/>
        <pt x="215" y="313" on="0"/>
        <pt x="248" y="313" on="1"/>
        <pt x="295" y="313" on="0"/>
        <pt x="335" y="376" on="1"/>
        <pt x="366" y="673" on="1"/>
        <pt x="369" y="701" on="0"/>
        <pt x="421" y="701" on="1"/>
        <pt x="441" y="701" on="1"/>
      </contour>
    </TTGlyph>
    <TTGlyph name="Yacute" xMin="52" yMin="-2" xMax="519" yMax="910">
      <component glyphName="Y" x="0" y="0" flags="0x0"/>
      <component glyphName="acute" x="198" y="177" flags="0x4"/>
    </TTGlyph>
    <TTGlyph name="Yacute.loclGUA" xMin="34" yMin="-9" xMax="491" yMax="910">
      <component glyphName="Y.loclGUA" x="0" y="0" flags="0x0"/>
      <component glyphName="acute" x="205" y="177" flags="0x4"/>
    </TTGlyph>
    <TTGlyph name="Ycircumflex" xMin="52" yMin="-2" xMax="519" yMax="895">
      <component glyphName="Y" x="0" y="0" flags="0x0"/>
      <component glyphName="circumflex" x="134" y="177" flags="0x4"/>
    </TTGlyph>
    <TTGlyph name="Ycircumflex.loclGUA" xMin="34" yMin="-9" xMax="491" yMax="895">
      <component glyphName="Y.loclGUA" x="0" y="0" flags="0x0"/>
      <component glyphName="circumflex" x="141" y="177" flags="0x4"/>
    </TTGlyph>
    <TTGlyph name="Ydieresis" xMin="52" yMin="-2" xMax="519" yMax="879">
      <component glyphName="Y" x="0" y="0" flags="0x0"/>
      <component glyphName="dieresis" x="132" y="177" flags="0x4"/>
    </TTGlyph>
    <TTGlyph name="Ydieresis.loclGUA" xMin="34" yMin="-9" xMax="491" yMax="879">
      <component glyphName="Y.loclGUA" x="0" y="0" flags="0x0"/>
      <component glyphName="dieresis" x="139" y="177" flags="0x4"/>
    </TTGlyph>
    <TTGlyph name="Ygrave" xMin="52" yMin="-2" xMax="519" yMax="910">
      <component glyphName="Y" x="0" y="0" flags="0x0"/>
      <component glyphName="grave" x="126" y="177" flags="0x4"/>
    </TTGlyph>
    <TTGlyph name="Ygrave.loclGUA" xMin="34" yMin="-9" xMax="491" yMax="910">
      <component glyphName="Y.loclGUA" x="0" y="0" flags="0x0"/>
      <component glyphName="grave" x="133" y="177" flags="0x4"/>
    </TTGlyph>
    <TTGlyph name="Z" xMin="5" yMin="0" xMax="511" yMax="700">
      <contour>
        <pt x="21" y="0" on="0"/>
        <pt x="5" y="55" on="0"/>
        <pt x="7" y="76" on="1"/>
        <pt x="7" y="83" on="0"/>
        <pt x="10" y="87" on="1"/>
        <pt x="341" y="589" on="1"/>
        <pt x="109" y="589" on="1"/>
        <pt x="98" y="589" on="0"/>
        <pt x="88" y="603" on="0"/>
        <pt x="88" y="618" on="1"/>
        <pt x="88" y="627" on="0"/>
        <pt x="89" y="633" on="1"/>
        <pt x="92" y="656" on="1"/>
        <pt x="94" y="679" on="0"/>
        <pt x="108" y="700" on="0"/>
        <pt x="121" y="700" on="1"/>
        <pt x="486" y="700" on="1"/>
        <pt x="497" y="700" on="0"/>
        <pt x="511" y="642" on="0"/>
        <pt x="509" y="622" on="1"/>
        <pt x="509" y="615" on="0"/>
        <pt x="508" y="613" on="1"/>
        <pt x="179" y="111" on="1"/>
        <pt x="431" y="111" on="1"/>
        <pt x="453" y="111" on="0"/>
        <pt x="453" y="81" on="1"/>
        <pt x="452" y="67" on="1"/>
        <pt x="450" y="44" on="1"/>
        <pt x="446" y="0" on="0"/>
        <pt x="420" y="0" on="1"/>
        <pt x="32" y="0" on="1"/>
      </contour>
    </TTGlyph>
    <TTGlyph name="Zacute" xMin="7" yMin="0" xMax="509" yMax="910">
      <component glyphName="Z" x="0" y="0" flags="0x0"/>
      <component glyphName="acute" x="212" y="177" flags="0x4"/>
    </TTGlyph>
    <TTGlyph name="Zacute.loclPLK" xMin="7" yMin="0" xMax="509" yMax="910">
      <component glyphName="Z" x="0" y="0" flags="0x0"/>
      <component glyphName="acute.loclPLK" x="214" y="177" flags="0x4"/>
    </TTGlyph>
    <TTGlyph name="Zcaron" xMin="7" yMin="0" xMax="509" yMax="898">
      <component glyphName="Z" x="0" y="0" flags="0x0"/>
      <component glyphName="caron" x="149" y="177" flags="0x4"/>
    </TTGlyph>
    <TTGlyph name="Zdotaccent" xMin="7" yMin="0" xMax="509" yMax="879">
      <component glyphName="Z" x="0" y="0" flags="0x0"/>
      <component glyphName="dotaccent" x="145" y="177" flags="0x4"/>
    </TTGlyph>
    <TTGlyph name="a" xMin="33" yMin="-8" xMax="453" yMax="530">
      <contour>
        <pt x="95" y="-8" on="0"/>
        <pt x="33" y="110" on="0"/>
        <pt x="33" y="202" on="1"/>
        <pt x="33" y="223" on="0"/>
        <pt x="37" y="267" on="1"/>
        <pt x="51" y="393" on="0"/>
        <pt x="153" y="530" on="0"/>
        <pt x="226" y="530" on="1"/>
        <pt x="262" y="530" on="0"/>
        <pt x="310" y="500" on="0"/>
        <pt x="329" y="478" on="1"/>
        <pt x="336" y="498" on="0"/>
        <pt x="346" y="515" on="0"/>
        <pt x="367" y="525" on="0"/>
        <pt x="387" y="525" on="1"/>
        <pt x="397" y="525" on="1"/>
        <pt x="443" y="525" on="0"/>
        <pt x="443" y="501" on="1"/>
        <pt x="442" y="487" on="0"/>
        <pt x="438" y="448" on="0"/>
        <pt x="436" y="430" on="1"/>
        <pt x="431" y="389" on="1"/>
        <pt x="415" y="232" on="1"/>
        <pt x="412" y="207" on="0"/>
        <pt x="406" y="150" on="0"/>
        <pt x="404" y="126" on="1"/>
        <pt x="403" y="95" on="0"/>
        <pt x="421" y="95" on="1"/>
        <pt x="426" y="95" on="0"/>
        <pt x="436" y="98" on="0"/>
        <pt x="441" y="98" on="1"/>
        <pt x="447" y="98" on="0"/>
        <pt x="453" y="82" on="0"/>
        <pt x="453" y="71" on="1"/>
        <pt x="453" y="35" on="0"/>
        <pt x="408" y="-7" on="0"/>
        <pt x="367" y="-7" on="1"/>
        <pt x="290" y="-7" on="0"/>
        <pt x="281" y="73" on="1"/>
        <pt x="240" y="-8" on="0"/>
        <pt x="162" y="-8" on="1"/>
      </contour>
      <contour>
        <pt x="233" y="95" on="0"/>
        <pt x="272" y="138" on="0"/>
        <pt x="284" y="178" on="1"/>
        <pt x="301" y="340" on="1"/>
        <pt x="305" y="373" on="0"/>
        <pt x="311" y="402" on="1"/>
        <pt x="300" y="414" on="0"/>
        <pt x="274" y="429" on="0"/>
        <pt x="256" y="429" on="1"/>
        <pt x="216" y="429" on="0"/>
        <pt x="172" y="351" on="0"/>
        <pt x="163" y="267" on="1"/>
        <pt x="159" y="223" on="0"/>
        <pt x="159" y="202" on="1"/>
        <pt x="159" y="95" on="0"/>
        <pt x="210" y="95" on="1"/>
      </contour>
    </TTGlyph>
    <TTGlyph name="aacute" xMin="33" yMin="-8" xMax="453" yMax="733">
      <component glyphName="a" x="0" y="0" flags="0x0"/>
      <component glyphName="acute" x="174" y="0" flags="0x0"/>
    </TTGlyph>
    <TTGlyph name="abreve" xMin="33" yMin="-8" xMax="453" yMax="715">
      <component glyphName="a" x="0" y="0" flags="0x0"/>
      <component glyphName="breve" x="110" y="0" flags="0x0"/>
    </TTGlyph>
    <TTGlyph name="acircumflex" xMin="33" yMin="-8" xMax="453" yMax="718">
      <component glyphName="a" x="0" y="0" flags="0x0"/>
      <component glyphName="circumflex" x="110" y="0" flags="0x0"/>
    </TTGlyph>
    <TTGlyph name="acute" xMin="40" yMin="579" xMax="214" yMax="733">
      <contour>
        <pt x="51" y="579" on="0"/>
        <pt x="40" y="585" on="0"/>
        <pt x="40" y="592" on="1"/>
        <pt x="40" y="597" on="0"/>
        <pt x="53" y="626" on="0"/>
        <pt x="68" y="656" on="0"/>
        <pt x="72" y="663" on="1"/>
        <pt x="94" y="707" on="1"/>
        <pt x="106" y="733" on="0"/>
        <pt x="164" y="733" on="1"/>
        <pt x="190" y="733" on="0"/>
        <pt x="214" y="727" on="0"/>
        <pt x="214" y="720" on="1"/>
        <pt x="214" y="714" on="0"/>
        <pt x="204" y="697" on="0"/>
        <pt x="182" y="670" on="1"/>
        <pt x="130" y="601" on="1"/>
        <pt x="122" y="590" on="0"/>
        <pt x="94" y="579" on="0"/>
        <pt x="66" y="579" on="1"/>
      </contour>
    </TTGlyph>
    <TTGlyph name="acute.loclPLK" xMin="45" yMin="579" xMax="195" yMax="733">
      <contour>
        <pt x="57" y="579" on="0"/>
        <pt x="45" y="584" on="0"/>
        <pt x="45" y="592" on="1"/>
        <pt x="45" y="604" on="0"/>
        <pt x="75" y="707" on="1"/>
        <pt x="79" y="722" on="0"/>
        <pt x="117" y="733" on="0"/>
        <pt x="146" y="733" on="1"/>
        <pt x="172" y="733" on="0"/>
        <pt x="195" y="727" on="0"/>
        <pt x="195" y="719" on="1"/>
        <pt x="195" y="713" on="0"/>
        <pt x="172" y="669" on="0"/>
        <pt x="151" y="631" on="1"/>
        <pt x="135" y="601" on="1"/>
        <pt x="128" y="590" on="0"/>
        <pt x="101" y="579" on="0"/>
        <pt x="74" y="579" on="1"/>
      </contour>
    </TTGlyph>
    <TTGlyph name="acutecomb" xMin="-13" yMin="579" xMax="161" yMax="733">
      <contour>
        <pt x="-2" y="579" on="0"/>
        <pt x="-13" y="585" on="0"/>
        <pt x="-13" y="592" on="1"/>
        <pt x="-13" y="597" on="0"/>
        <pt x="0" y="626" on="0"/>
        <pt x="15" y="656" on="0"/>
        <pt x="19" y="663" on="1"/>
        <pt x="41" y="707" on="1"/>
        <pt x="53" y="733" on="0"/>
        <pt x="111" y="733" on="1"/>
        <pt x="137" y="733" on="0"/>
        <pt x="161" y="727" on="0"/>
        <pt x="161" y="720" on="1"/>
        <pt x="161" y="714" on="0"/>
        <pt x="151" y="697" on="0"/>
        <pt x="129" y="670" on="1"/>
        <pt x="77" y="601" on="1"/>
        <pt x="69" y="590" on="0"/>
        <pt x="41" y="579" on="0"/>
        <pt x="13" y="579" on="1"/>
      </contour>
    </TTGlyph>
    <TTGlyph name="adieresis" xMin="33" yMin="-8" xMax="453" yMax="702">
      <component glyphName="a" x="0" y="0" flags="0x0"/>
      <component glyphName="dieresis" x="108" y="0" flags="0x0"/>
    </TTGlyph>
    <TTGlyph name="ae" xMin="21" yMin="-7" xMax="654" yMax="530">
      <contour>
        <pt x="96" y="-7" on="0"/>
        <pt x="21" y="66" on="0"/>
        <pt x="21" y="128" on="1"/>
        <pt x="21" y="142" on="0"/>
        <pt x="22" y="149" on="1"/>
        <pt x="31" y="233" on="0"/>
        <pt x="148" y="330" on="0"/>
        <pt x="277" y="331" on="1"/>
        <pt x="282" y="357" on="0"/>
        <pt x="295" y="387" on="1"/>
        <pt x="290" y="408" on="0"/>
        <pt x="256" y="430" on="0"/>
        <pt x="228" y="430" on="1"/>
        <pt x="202" y="430" on="0"/>
        <pt x="161" y="417" on="0"/>
        <pt x="138" y="407" on="1"/>
        <pt x="122" y="399" on="0"/>
        <pt x="116" y="399" on="1"/>
        <pt x="107" y="399" on="0"/>
        <pt x="89" y="425" on="0"/>
        <pt x="77" y="458" on="0"/>
        <pt x="78" y="467" on="1"/>
        <pt x="79" y="483" on="0"/>
        <pt x="128" y="512" on="0"/>
        <pt x="206" y="530" on="0"/>
        <pt x="247" y="530" on="1"/>
        <pt x="288" y="530" on="0"/>
        <pt x="353" y="512" on="0"/>
        <pt x="373" y="495" on="1"/>
        <pt x="424" y="530" on="0"/>
        <pt x="496" y="530" on="1"/>
        <pt x="578" y="530" on="0"/>
        <pt x="654" y="422" on="0"/>
        <pt x="654" y="316" on="1"/>
        <pt x="654" y="301" on="0"/>
        <pt x="652" y="269" on="1"/>
        <pt x="651" y="258" on="0"/>
        <pt x="612" y="216" on="0"/>
        <pt x="602" y="216" on="1"/>
        <pt x="392" y="216" on="1"/>
        <pt x="391" y="207" on="0"/>
        <pt x="391" y="190" on="1"/>
        <pt x="391" y="93" on="0"/>
        <pt x="472" y="93" on="1"/>
        <pt x="498" y="93" on="0"/>
        <pt x="539" y="107" on="0"/>
        <pt x="561" y="119" on="1"/>
        <pt x="575" y="127" on="0"/>
        <pt x="580" y="127" on="1"/>
        <pt x="591" y="127" on="0"/>
        <pt x="618" y="79" on="0"/>
        <pt x="618" y="62" on="1"/>
        <pt x="618" y="44" on="0"/>
        <pt x="568" y="12" on="0"/>
        <pt x="491" y="-7" on="0"/>
        <pt x="454" y="-7" on="1"/>
        <pt x="353" y="-7" on="0"/>
        <pt x="303" y="52" on="1"/>
        <pt x="280" y="26" on="0"/>
        <pt x="201" y="-7" on="0"/>
        <pt x="156" y="-7" on="1"/>
      </contour>
      <contour>
        <pt x="534" y="306" on="1"/>
        <pt x="536" y="336" on="0"/>
        <pt x="536" y="347" on="1"/>
        <pt x="536" y="390" on="0"/>
        <pt x="512" y="430" on="0"/>
        <pt x="486" y="430" on="1"/>
        <pt x="453" y="430" on="0"/>
        <pt x="410" y="372" on="0"/>
        <pt x="400" y="306" on="1"/>
      </contour>
      <contour>
        <pt x="212" y="96" on="0"/>
        <pt x="253" y="115" on="0"/>
        <pt x="268" y="133" on="1"/>
        <pt x="262" y="162" on="0"/>
        <pt x="262" y="197" on="1"/>
        <pt x="262" y="227" on="0"/>
        <pt x="264" y="243" on="1"/>
        <pt x="208" y="242" on="0"/>
        <pt x="144" y="195" on="0"/>
        <pt x="144" y="146" on="1"/>
        <pt x="144" y="122" on="0"/>
        <pt x="168" y="96" on="0"/>
        <pt x="190" y="96" on="1"/>
      </contour>
    </TTGlyph>
    <TTGlyph name="aeacute" xMin="21" yMin="-7" xMax="654" yMax="733">
      <component glyphName="ae" x="0" y="0" flags="0x0"/>
      <component glyphName="acute" x="282" y="0" flags="0x0"/>
    </TTGlyph>
    <TTGlyph name="agrave" xMin="33" yMin="-8" xMax="453" yMax="733">
      <component glyphName="a" x="0" y="0" flags="0x0"/>
      <component glyphName="grave" x="102" y="0" flags="0x0"/>
    </TTGlyph>
    <TTGlyph name="amacron" xMin="33" yMin="-8" xMax="453" yMax="688">
      <component glyphName="a" x="0" y="0" flags="0x0"/>
      <component glyphName="macron" x="110" y="0" flags="0x0"/>
    </TTGlyph>
    <TTGlyph name="ampersand" xMin="7" yMin="-7" xMax="513" yMax="707">
      <contour>
        <pt x="513" y="419" on="0"/>
        <pt x="513" y="389" on="1"/>
        <pt x="512" y="377" on="1"/>
        <pt x="510" y="362" on="1"/>
        <pt x="508" y="339" on="0"/>
        <pt x="493" y="319" on="0"/>
        <pt x="480" y="319" on="1"/>
        <pt x="446" y="319" on="1"/>
        <pt x="427" y="148" on="1"/>
        <pt x="426" y="139" on="0"/>
        <pt x="426" y="125" on="1"/>
        <pt x="426" y="108" on="0"/>
        <pt x="435" y="93" on="0"/>
        <pt x="446" y="93" on="1"/>
        <pt x="453" y="93" on="0"/>
        <pt x="465" y="98" on="0"/>
        <pt x="468" y="98" on="1"/>
        <pt x="478" y="98" on="0"/>
        <pt x="489" y="46" on="0"/>
        <pt x="488" y="35" on="1"/>
        <pt x="483" y="-7" on="0"/>
        <pt x="404" y="-7" on="1"/>
        <pt x="372" y="-7" on="0"/>
        <pt x="331" y="12" on="0"/>
        <pt x="319" y="34" on="1"/>
        <pt x="278" y="14" on="0"/>
        <pt x="207" y="-7" on="0"/>
        <pt x="169" y="-7" on="1"/>
        <pt x="92" y="-7" on="0"/>
        <pt x="7" y="80" on="0"/>
        <pt x="7" y="165" on="1"/>
        <pt x="7" y="176" on="0"/>
        <pt x="9" y="204" on="1"/>
        <pt x="25" y="351" on="0"/>
        <pt x="119" y="384" on="1"/>
        <pt x="120" y="388" on="1"/>
        <pt x="92" y="404" on="0"/>
        <pt x="60" y="466" on="0"/>
        <pt x="60" y="508" on="1"/>
        <pt x="60" y="600" on="0"/>
        <pt x="162" y="707" on="0"/>
        <pt x="245" y="707" on="1"/>
        <pt x="279" y="707" on="0"/>
        <pt x="333" y="688" on="0"/>
        <pt x="332" y="669" on="1"/>
        <pt x="329" y="645" on="0"/>
        <pt x="305" y="599" on="0"/>
        <pt x="295" y="599" on="1"/>
        <pt x="291" y="599" on="0"/>
        <pt x="269" y="607" on="0"/>
        <pt x="257" y="607" on="1"/>
        <pt x="224" y="607" on="0"/>
        <pt x="188" y="544" on="0"/>
        <pt x="188" y="503" on="1"/>
        <pt x="188" y="468" on="0"/>
        <pt x="225" y="419" on="0"/>
        <pt x="256" y="419" on="1"/>
        <pt x="328" y="419" on="1"/>
        <pt x="350" y="518" on="1"/>
        <pt x="356" y="546" on="0"/>
        <pt x="400" y="546" on="1"/>
        <pt x="427" y="546" on="1"/>
        <pt x="449" y="546" on="0"/>
        <pt x="468" y="532" on="0"/>
        <pt x="466" y="518" on="1"/>
        <pt x="456" y="419" on="1"/>
        <pt x="491" y="419" on="1"/>
      </contour>
      <contour>
        <pt x="135" y="183" on="0"/>
        <pt x="135" y="176" on="1"/>
        <pt x="135" y="93" on="0"/>
        <pt x="198" y="93" on="1"/>
        <pt x="220" y="93" on="0"/>
        <pt x="263" y="106" on="0"/>
        <pt x="297" y="121" on="1"/>
        <pt x="298" y="124" on="0"/>
        <pt x="298" y="131" on="1"/>
        <pt x="318" y="319" on="1"/>
        <pt x="238" y="319" on="1"/>
        <pt x="189" y="319" on="0"/>
        <pt x="143" y="265" on="0"/>
        <pt x="137" y="205" on="1"/>
      </contour>
    </TTGlyph>
    <TTGlyph name="aogonek" xMin="33" yMin="-187" xMax="489" yMax="530">
      <contour>
        <pt x="476" y="-115" on="0"/>
        <pt x="489" y="-128" on="0"/>
        <pt x="489" y="-143" on="1"/>
        <pt x="489" y="-164" on="0"/>
        <pt x="474" y="-172" on="1"/>
        <pt x="447" y="-187" on="0"/>
        <pt x="414" y="-187" on="1"/>
        <pt x="358" y="-187" on="0"/>
        <pt x="319" y="-128" on="0"/>
        <pt x="319" y="-95" on="1"/>
        <pt x="319" y="-77" on="0"/>
        <pt x="331" y="-28" on="0"/>
        <pt x="344" y="-5" on="1"/>
        <pt x="289" y="7" on="0"/>
        <pt x="281" y="73" on="1"/>
        <pt x="240" y="-8" on="0"/>
        <pt x="162" y="-8" on="1"/>
        <pt x="95" y="-8" on="0"/>
        <pt x="33" y="110" on="0"/>
        <pt x="33" y="202" on="1"/>
        <pt x="33" y="223" on="0"/>
        <pt x="37" y="267" on="1"/>
        <pt x="51" y="393" on="0"/>
        <pt x="153" y="530" on="0"/>
        <pt x="226" y="530" on="1"/>
        <pt x="262" y="530" on="0"/>
        <pt x="310" y="500" on="0"/>
        <pt x="329" y="478" on="1"/>
        <pt x="336" y="498" on="0"/>
        <pt x="346" y="515" on="0"/>
        <pt x="367" y="525" on="0"/>
        <pt x="387" y="525" on="1"/>
        <pt x="397" y="525" on="1"/>
        <pt x="443" y="525" on="0"/>
        <pt x="443" y="501" on="1"/>
        <pt x="442" y="487" on="0"/>
        <pt x="438" y="448" on="0"/>
        <pt x="436" y="430" on="1"/>
        <pt x="431" y="389" on="1"/>
        <pt x="415" y="232" on="1"/>
        <pt x="412" y="207" on="0"/>
        <pt x="406" y="150" on="0"/>
        <pt x="404" y="126" on="1"/>
        <pt x="403" y="95" on="0"/>
        <pt x="421" y="95" on="1"/>
        <pt x="426" y="95" on="0"/>
        <pt x="436" y="98" on="0"/>
        <pt x="441" y="98" on="1"/>
        <pt x="447" y="98" on="0"/>
        <pt x="453" y="82" on="0"/>
        <pt x="453" y="71" on="1"/>
        <pt x="453" y="45" on="0"/>
        <pt x="427" y="6" on="0"/>
        <pt x="403" y="-2" on="1"/>
        <pt x="384" y="-40" on="0"/>
        <pt x="384" y="-77" on="1"/>
        <pt x="384" y="-102" on="0"/>
        <pt x="412" y="-120" on="0"/>
        <pt x="433" y="-120" on="1"/>
        <pt x="441" y="-120" on="0"/>
        <pt x="458" y="-115" on="0"/>
        <pt x="463" y="-115" on="1"/>
      </contour>
      <contour>
        <pt x="305" y="373" on="0"/>
        <pt x="311" y="402" on="1"/>
        <pt x="300" y="414" on="0"/>
        <pt x="274" y="429" on="0"/>
        <pt x="256" y="429" on="1"/>
        <pt x="216" y="429" on="0"/>
        <pt x="172" y="351" on="0"/>
        <pt x="163" y="267" on="1"/>
        <pt x="159" y="223" on="0"/>
        <pt x="159" y="202" on="1"/>
        <pt x="159" y="95" on="0"/>
        <pt x="210" y="95" on="1"/>
        <pt x="233" y="95" on="0"/>
        <pt x="272" y="138" on="0"/>
        <pt x="284" y="178" on="1"/>
        <pt x="301" y="340" on="1"/>
      </contour>
    </TTGlyph>
    <TTGlyph name="approxequal" xMin="36" yMin="89" xMax="405" yMax="382">
      <contour>
        <pt x="203" y="297" on="0"/>
        <pt x="165" y="307" on="0"/>
        <pt x="152" y="307" on="1"/>
        <pt x="129" y="307" on="0"/>
        <pt x="112" y="287" on="1"/>
        <pt x="105" y="279" on="0"/>
        <pt x="92" y="269" on="0"/>
        <pt x="85" y="269" on="1"/>
        <pt x="79" y="269" on="0"/>
        <pt x="71" y="273" on="1"/>
        <pt x="62" y="278" on="1"/>
        <pt x="50" y="283" on="0"/>
        <pt x="50" y="295" on="1"/>
        <pt x="50" y="302" on="0"/>
        <pt x="54" y="311" on="1"/>
        <pt x="68" y="344" on="0"/>
        <pt x="118" y="380" on="0"/>
        <pt x="153" y="380" on="1"/>
        <pt x="168" y="380" on="0"/>
        <pt x="213" y="368" on="0"/>
        <pt x="235" y="361" on="1"/>
        <pt x="253" y="355" on="0"/>
        <pt x="291" y="345" on="0"/>
        <pt x="304" y="345" on="1"/>
        <pt x="327" y="345" on="0"/>
        <pt x="344" y="365" on="1"/>
        <pt x="346" y="367" on="0"/>
        <pt x="358" y="378" on="0"/>
        <pt x="366" y="382" on="0"/>
        <pt x="370" y="382" on="1"/>
        <pt x="377" y="382" on="0"/>
        <pt x="385" y="378" on="1"/>
        <pt x="393" y="374" on="1"/>
        <pt x="405" y="367" on="0"/>
        <pt x="405" y="356" on="1"/>
        <pt x="405" y="350" on="0"/>
        <pt x="401" y="341" on="1"/>
        <pt x="387" y="308" on="0"/>
        <pt x="338" y="272" on="0"/>
        <pt x="303" y="272" on="1"/>
        <pt x="274" y="272" on="0"/>
        <pt x="221" y="291" on="1"/>
      </contour>
      <contour>
        <pt x="201" y="112" on="0"/>
        <pt x="155" y="127" on="0"/>
        <pt x="138" y="127" on="1"/>
        <pt x="116" y="127" on="0"/>
        <pt x="98" y="106" on="1"/>
        <pt x="96" y="104" on="0"/>
        <pt x="84" y="93" on="0"/>
        <pt x="76" y="89" on="0"/>
        <pt x="71" y="89" on="1"/>
        <pt x="65" y="89" on="0"/>
        <pt x="57" y="93" on="1"/>
        <pt x="48" y="98" on="1"/>
        <pt x="38" y="103" on="0"/>
        <pt x="36" y="115" on="1"/>
        <pt x="36" y="122" on="0"/>
        <pt x="40" y="130" on="1"/>
        <pt x="54" y="163" on="0"/>
        <pt x="104" y="199" on="0"/>
        <pt x="139" y="199" on="1"/>
        <pt x="165" y="199" on="0"/>
        <pt x="221" y="181" on="1"/>
        <pt x="227" y="179" on="0"/>
        <pt x="273" y="164" on="0"/>
        <pt x="290" y="164" on="1"/>
        <pt x="312" y="164" on="0"/>
        <pt x="330" y="185" on="1"/>
        <pt x="332" y="187" on="0"/>
        <pt x="344" y="198" on="0"/>
        <pt x="352" y="202" on="0"/>
        <pt x="356" y="202" on="1"/>
        <pt x="363" y="202" on="0"/>
        <pt x="371" y="198" on="1"/>
        <pt x="380" y="193" on="1"/>
        <pt x="390" y="188" on="0"/>
        <pt x="392" y="176" on="1"/>
        <pt x="392" y="169" on="0"/>
        <pt x="388" y="161" on="1"/>
        <pt x="358" y="92" on="0"/>
        <pt x="289" y="92" on="1"/>
        <pt x="263" y="92" on="0"/>
        <pt x="207" y="110" on="1"/>
      </contour>
    </TTGlyph>
    <TTGlyph name="aring" xMin="33" yMin="-8" xMax="453" yMax="743">
      <component glyphName="a" x="0" y="0" flags="0x0"/>
      <component glyphName="ring" x="108" y="0" flags="0x0"/>
    </TTGlyph>
    <TTGlyph name="aringacute" xMin="33" yMin="-8" xMax="453" yMax="923">
      <component glyphName="a" x="0" y="0" flags="0x0"/>
      <component glyphName="ring" x="108" y="0" flags="0x0"/>
      <component glyphName="acute" x="220" y="190" flags="0x4"/>
    </TTGlyph>
    <TTGlyph name="arrowdown" xMin="16" yMin="-3" xMax="520" yMax="709">
      <contour>
        <pt x="504" y="346" on="0"/>
        <pt x="510" y="346" on="1"/>
        <pt x="515" y="346" on="0"/>
        <pt x="520" y="339" on="0"/>
        <pt x="519" y="332" on="1"/>
        <pt x="511" y="261" on="1"/>
        <pt x="509" y="246" on="0"/>
        <pt x="501" y="228" on="0"/>
        <pt x="488" y="216" on="1"/>
        <pt x="255" y="4" on="1"/>
        <pt x="247" y="-3" on="0"/>
        <pt x="236" y="-3" on="1"/>
        <pt x="226" y="-3" on="0"/>
        <pt x="219" y="4" on="1"/>
        <pt x="31" y="216" on="1"/>
        <pt x="22" y="226" on="0"/>
        <pt x="16" y="238" on="0"/>
        <pt x="16" y="247" on="1"/>
        <pt x="16" y="256" on="0"/>
        <pt x="17" y="261" on="1"/>
        <pt x="25" y="330" on="1"/>
        <pt x="26" y="346" on="0"/>
        <pt x="36" y="346" on="1"/>
        <pt x="40" y="346" on="0"/>
        <pt x="47" y="339" on="1"/>
        <pt x="203" y="160" on="1"/>
        <pt x="257" y="680" on="1"/>
        <pt x="260" y="709" on="0"/>
        <pt x="299" y="709" on="1"/>
        <pt x="315" y="709" on="1"/>
        <pt x="354" y="709" on="0"/>
        <pt x="351" y="680" on="1"/>
        <pt x="296" y="157" on="1"/>
        <pt x="499" y="341" on="1"/>
      </contour>
    </TTGlyph>
    <TTGlyph name="arrowleft" xMin="2" yMin="0" xMax="597" yMax="528">
      <contour>
        <pt x="597" y="306" on="0"/>
        <pt x="594" y="267" on="1"/>
        <pt x="592" y="251" on="1"/>
        <pt x="588" y="212" on="0"/>
        <pt x="560" y="212" on="1"/>
        <pt x="150" y="212" on="1"/>
        <pt x="281" y="32" on="1"/>
        <pt x="289" y="21" on="0"/>
        <pt x="289" y="13" on="1"/>
        <pt x="289" y="0" on="0"/>
        <pt x="266" y="0" on="1"/>
        <pt x="212" y="0" on="1"/>
        <pt x="197" y="0" on="0"/>
        <pt x="177" y="9" on="0"/>
        <pt x="170" y="19" on="1"/>
        <pt x="7" y="245" on="1"/>
        <pt x="2" y="253" on="0"/>
        <pt x="3" y="264" on="1"/>
        <pt x="3" y="274" on="0"/>
        <pt x="11" y="281" on="1"/>
        <pt x="221" y="509" on="1"/>
        <pt x="231" y="519" on="0"/>
        <pt x="252" y="528" on="0"/>
        <pt x="267" y="528" on="1"/>
        <pt x="328" y="528" on="1"/>
        <pt x="350" y="528" on="0"/>
        <pt x="350" y="518" on="1"/>
        <pt x="350" y="509" on="0"/>
        <pt x="338" y="497" on="1"/>
        <pt x="163" y="306" on="1"/>
        <pt x="569" y="306" on="1"/>
      </contour>
    </TTGlyph>
    <TTGlyph name="arrowright" xMin="2" yMin="0" xMax="594" yMax="528">
      <contour>
        <pt x="594" y="277" on="0"/>
        <pt x="594" y="269" on="1"/>
        <pt x="594" y="255" on="0"/>
        <pt x="585" y="246" on="1"/>
        <pt x="375" y="19" on="1"/>
        <pt x="365" y="9" on="0"/>
        <pt x="344" y="0" on="0"/>
        <pt x="329" y="0" on="1"/>
        <pt x="269" y="0" on="1"/>
        <pt x="247" y="0" on="0"/>
        <pt x="247" y="10" on="1"/>
        <pt x="247" y="19" on="0"/>
        <pt x="259" y="31" on="1"/>
        <pt x="434" y="222" on="1"/>
        <pt x="27" y="222" on="1"/>
        <pt x="2" y="222" on="0"/>
        <pt x="2" y="250" on="1"/>
        <pt x="3" y="261" on="1"/>
        <pt x="4" y="277" on="1"/>
        <pt x="8" y="315" on="0"/>
        <pt x="36" y="315" on="1"/>
        <pt x="447" y="315" on="1"/>
        <pt x="315" y="496" on="1"/>
        <pt x="307" y="507" on="0"/>
        <pt x="307" y="515" on="1"/>
        <pt x="307" y="528" on="0"/>
        <pt x="330" y="528" on="1"/>
        <pt x="384" y="528" on="1"/>
        <pt x="399" y="528" on="0"/>
        <pt x="419" y="519" on="0"/>
        <pt x="426" y="509" on="1"/>
        <pt x="589" y="282" on="1"/>
      </contour>
    </TTGlyph>
    <TTGlyph name="arrowup" xMin="15" yMin="-3" xMax="519" yMax="709">
      <contour>
        <pt x="513" y="480" on="0"/>
        <pt x="519" y="468" on="0"/>
        <pt x="519" y="459" on="1"/>
        <pt x="519" y="450" on="0"/>
        <pt x="518" y="445" on="1"/>
        <pt x="510" y="376" on="1"/>
        <pt x="509" y="360" on="0"/>
        <pt x="500" y="360" on="1"/>
        <pt x="495" y="360" on="0"/>
        <pt x="488" y="367" on="1"/>
        <pt x="332" y="546" on="1"/>
        <pt x="278" y="26" on="1"/>
        <pt x="275" y="-3" on="0"/>
        <pt x="236" y="-3" on="1"/>
        <pt x="220" y="-3" on="1"/>
        <pt x="180" y="-3" on="0"/>
        <pt x="185" y="26" on="1"/>
        <pt x="240" y="550" on="1"/>
        <pt x="36" y="365" on="1"/>
        <pt x="31" y="360" on="0"/>
        <pt x="25" y="360" on="1"/>
        <pt x="21" y="360" on="0"/>
        <pt x="15" y="368" on="0"/>
        <pt x="16" y="374" on="1"/>
        <pt x="24" y="445" on="1"/>
        <pt x="26" y="460" on="0"/>
        <pt x="35" y="478" on="0"/>
        <pt x="47" y="489" on="1"/>
        <pt x="280" y="702" on="1"/>
        <pt x="288" y="709" on="0"/>
        <pt x="299" y="709" on="1"/>
        <pt x="310" y="709" on="0"/>
        <pt x="316" y="702" on="1"/>
        <pt x="504" y="490" on="1"/>
      </contour>
    </TTGlyph>
    <TTGlyph name="asciicircum" xMin="32" yMin="319" xMax="343" yMax="685">
      <contour>
        <pt x="343" y="336" on="1"/>
        <pt x="341" y="319" on="0"/>
        <pt x="315" y="319" on="1"/>
        <pt x="296" y="319" on="1"/>
        <pt x="260" y="319" on="0"/>
        <pt x="256" y="346" on="1"/>
        <pt x="215" y="579" on="1"/>
        <pt x="122" y="346" on="1"/>
        <pt x="111" y="319" on="0"/>
        <pt x="78" y="319" on="1"/>
        <pt x="58" y="319" on="1"/>
        <pt x="32" y="319" on="0"/>
        <pt x="34" y="336" on="1"/>
        <pt x="34" y="343" on="0"/>
        <pt x="38" y="351" on="1"/>
        <pt x="174" y="659" on="1"/>
        <pt x="186" y="685" on="0"/>
        <pt x="211" y="685" on="1"/>
        <pt x="238" y="685" on="1"/>
        <pt x="265" y="685" on="0"/>
        <pt x="269" y="659" on="1"/>
        <pt x="342" y="351" on="1"/>
      </contour>
    </TTGlyph>
    <TTGlyph name="asciitilde" xMin="42" yMin="218" xMax="397" yMax="331">
      <contour>
        <pt x="270" y="221" on="0"/>
        <pt x="212" y="239" on="1"/>
        <pt x="206" y="241" on="0"/>
        <pt x="160" y="256" on="0"/>
        <pt x="143" y="256" on="1"/>
        <pt x="123" y="256" on="0"/>
        <pt x="103" y="235" on="1"/>
        <pt x="96" y="228" on="0"/>
        <pt x="84" y="218" on="0"/>
        <pt x="77" y="218" on="1"/>
        <pt x="71" y="218" on="0"/>
        <pt x="63" y="222" on="1"/>
        <pt x="54" y="227" on="1"/>
        <pt x="42" y="232" on="0"/>
        <pt x="42" y="244" on="1"/>
        <pt x="42" y="251" on="0"/>
        <pt x="46" y="259" on="1"/>
        <pt x="60" y="292" on="0"/>
        <pt x="109" y="328" on="0"/>
        <pt x="144" y="328" on="1"/>
        <pt x="170" y="328" on="0"/>
        <pt x="226" y="310" on="1"/>
        <pt x="232" y="308" on="0"/>
        <pt x="278" y="293" on="0"/>
        <pt x="295" y="293" on="1"/>
        <pt x="316" y="293" on="0"/>
        <pt x="336" y="314" on="1"/>
        <pt x="343" y="321" on="0"/>
        <pt x="355" y="331" on="0"/>
        <pt x="362" y="331" on="1"/>
        <pt x="368" y="331" on="0"/>
        <pt x="376" y="327" on="1"/>
        <pt x="385" y="322" on="1"/>
        <pt x="397" y="317" on="0"/>
        <pt x="397" y="305" on="1"/>
        <pt x="397" y="298" on="0"/>
        <pt x="393" y="290" on="1"/>
        <pt x="379" y="257" on="0"/>
        <pt x="329" y="221" on="0"/>
        <pt x="294" y="221" on="1"/>
      </contour>
    </TTGlyph>
    <TTGlyph name="asterisk" xMin="52" yMin="421" xMax="311" yMax="708">
      <contour>
        <pt x="85" y="421" on="0"/>
        <pt x="67" y="436" on="0"/>
        <pt x="68" y="444" on="1"/>
        <pt x="68" y="446" on="1"/>
        <pt x="68" y="451" on="0"/>
        <pt x="77" y="464" on="1"/>
        <pt x="136" y="547" on="1"/>
        <pt x="70" y="574" on="1"/>
        <pt x="60" y="578" on="0"/>
        <pt x="52" y="587" on="0"/>
        <pt x="53" y="594" on="1"/>
        <pt x="55" y="606" on="0"/>
        <pt x="69" y="626" on="0"/>
        <pt x="81" y="626" on="1"/>
        <pt x="89" y="626" on="0"/>
        <pt x="95" y="623" on="1"/>
        <pt x="157" y="599" on="1"/>
        <pt x="165" y="682" on="1"/>
        <pt x="168" y="708" on="0"/>
        <pt x="194" y="708" on="1"/>
        <pt x="208" y="708" on="0"/>
        <pt x="220" y="696" on="0"/>
        <pt x="218" y="682" on="1"/>
        <pt x="209" y="599" on="1"/>
        <pt x="275" y="623" on="1"/>
        <pt x="282" y="626" on="0"/>
        <pt x="290" y="626" on="1"/>
        <pt x="300" y="626" on="0"/>
        <pt x="311" y="611" on="0"/>
        <pt x="311" y="599" on="1"/>
        <pt x="311" y="590" on="0"/>
        <pt x="302" y="579" on="0"/>
        <pt x="291" y="574" on="1"/>
        <pt x="217" y="547" on="1"/>
        <pt x="260" y="464" on="1"/>
        <pt x="265" y="452" on="0"/>
        <pt x="265" y="447" on="1"/>
        <pt x="265" y="438" on="0"/>
        <pt x="243" y="421" on="0"/>
        <pt x="233" y="421" on="1"/>
        <pt x="222" y="421" on="0"/>
        <pt x="214" y="435" on="1"/>
        <pt x="173" y="512" on="1"/>
        <pt x="117" y="435" on="1"/>
        <pt x="107" y="421" on="0"/>
        <pt x="95" y="421" on="1"/>
      </contour>
    </TTGlyph>
    <TTGlyph name="at" xMin="55" yMin="-124" xMax="727" yMax="707">
      <contour>
        <pt x="526" y="707" on="0"/>
        <pt x="656" y="626" on="0"/>
        <pt x="727" y="478" on="0"/>
        <pt x="727" y="380" on="1"/>
        <pt x="727" y="291" on="0"/>
        <pt x="674" y="143" on="0"/>
        <pt x="579" y="57" on="0"/>
        <pt x="521" y="57" on="1"/>
        <pt x="484" y="57" on="0"/>
        <pt x="435" y="91" on="0"/>
        <pt x="427" y="122" on="1"/>
        <pt x="411" y="91" on="0"/>
        <pt x="359" y="57" on="0"/>
        <pt x="326" y="57" on="1"/>
        <pt x="277" y="57" on="0"/>
        <pt x="212" y="147" on="0"/>
        <pt x="212" y="238" on="1"/>
        <pt x="212" y="317" on="0"/>
        <pt x="253" y="439" on="0"/>
        <pt x="328" y="507" on="0"/>
        <pt x="376" y="507" on="1"/>
        <pt x="404" y="507" on="0"/>
        <pt x="448" y="481" on="0"/>
        <pt x="462" y="464" on="1"/>
        <pt x="470" y="488" on="0"/>
        <pt x="486" y="503" on="0"/>
        <pt x="507" y="503" on="1"/>
        <pt x="516" y="503" on="1"/>
        <pt x="554" y="503" on="0"/>
        <pt x="554" y="480" on="1"/>
        <pt x="545" y="376" on="1"/>
        <pt x="541" y="333" on="0"/>
        <pt x="528" y="175" on="0"/>
        <pt x="528" y="164" on="1"/>
        <pt x="528" y="145" on="0"/>
        <pt x="546" y="129" on="0"/>
        <pt x="558" y="129" on="1"/>
        <pt x="586" y="129" on="0"/>
        <pt x="636" y="199" on="0"/>
        <pt x="667" y="314" on="0"/>
        <pt x="667" y="379" on="1"/>
        <pt x="667" y="463" on="0"/>
        <pt x="610" y="589" on="0"/>
        <pt x="507" y="657" on="0"/>
        <pt x="439" y="657" on="1"/>
        <pt x="350" y="657" on="0"/>
        <pt x="201" y="546" on="0"/>
        <pt x="115" y="354" on="0"/>
        <pt x="115" y="237" on="1"/>
        <pt x="115" y="145" on="0"/>
        <pt x="170" y="4" on="0"/>
        <pt x="270" y="-74" on="0"/>
        <pt x="335" y="-74" on="1"/>
        <pt x="367" y="-74" on="0"/>
        <pt x="412" y="-62" on="0"/>
        <pt x="434" y="-52" on="1"/>
        <pt x="453" y="-45" on="0"/>
        <pt x="458" y="-45" on="1"/>
        <pt x="472" y="-45" on="0"/>
        <pt x="472" y="-74" on="1"/>
        <pt x="472" y="-100" on="0"/>
        <pt x="377" y="-124" on="0"/>
        <pt x="330" y="-124" on="1"/>
        <pt x="249" y="-124" on="0"/>
        <pt x="124" y="-32" on="0"/>
        <pt x="55" y="132" on="0"/>
        <pt x="55" y="238" on="1"/>
        <pt x="55" y="368" on="0"/>
        <pt x="157" y="583" on="0"/>
        <pt x="334" y="707" on="0"/>
        <pt x="441" y="707" on="1"/>
      </contour>
      <contour>
        <pt x="429" y="249" on="0"/>
        <pt x="439" y="368" on="0"/>
        <pt x="445" y="400" on="1"/>
        <pt x="423" y="422" on="0"/>
        <pt x="398" y="422" on="1"/>
        <pt x="357" y="422" on="0"/>
        <pt x="318" y="328" on="0"/>
        <pt x="318" y="245" on="1"/>
        <pt x="318" y="189" on="0"/>
        <pt x="343" y="143" on="0"/>
        <pt x="366" y="143" on="1"/>
        <pt x="401" y="143" on="0"/>
        <pt x="427" y="203" on="1"/>
      </contour>
    </TTGlyph>
    <TTGlyph name="atilde" xMin="33" yMin="-8" xMax="453" yMax="695">
      <component glyphName="a" x="0" y="0" flags="0x0"/>
      <component glyphName="tilde" x="117" y="0" flags="0x0"/>
    </TTGlyph>
    <TTGlyph name="b" xMin="28" yMin="-7" xMax="442" yMax="753">
      <contour>
        <pt x="222" y="-7" on="0"/>
        <pt x="166" y="32" on="0"/>
        <pt x="150" y="65" on="1"/>
        <pt x="137" y="19" on="1"/>
        <pt x="132" y="7" on="0"/>
        <pt x="109" y="-2" on="0"/>
        <pt x="89" y="-2" on="1"/>
        <pt x="79" y="-2" on="1"/>
        <pt x="28" y="-2" on="0"/>
        <pt x="31" y="26" on="1"/>
        <pt x="105" y="725" on="1"/>
        <pt x="108" y="753" on="0"/>
        <pt x="160" y="753" on="1"/>
        <pt x="182" y="753" on="1"/>
        <pt x="233" y="753" on="0"/>
        <pt x="231" y="725" on="1"/>
        <pt x="205" y="493" on="1"/>
        <pt x="248" y="530" on="0"/>
        <pt x="301" y="530" on="1"/>
        <pt x="369" y="530" on="0"/>
        <pt x="442" y="424" on="0"/>
        <pt x="442" y="325" on="1"/>
        <pt x="442" y="295" on="0"/>
        <pt x="439" y="262" on="1"/>
        <pt x="426" y="137" on="0"/>
        <pt x="326" y="-7" on="0"/>
        <pt x="256" y="-7" on="1"/>
      </contour>
      <contour>
        <pt x="262" y="96" on="0"/>
        <pt x="302" y="177" on="0"/>
        <pt x="310" y="263" on="1"/>
        <pt x="314" y="296" on="0"/>
        <pt x="314" y="328" on="1"/>
        <pt x="314" y="381" on="0"/>
        <pt x="286" y="429" on="0"/>
        <pt x="257" y="429" on="1"/>
        <pt x="223" y="429" on="0"/>
        <pt x="197" y="403" on="1"/>
        <pt x="169" y="143" on="1"/>
        <pt x="193" y="96" on="0"/>
        <pt x="229" y="96" on="1"/>
      </contour>
    </TTGlyph>
    <TTGlyph name="backslash" xMin="54" yMin="-21" xMax="266" yMax="702">
      <contour>
        <pt x="169" y="-21" on="0"/>
        <pt x="166" y="6" on="1"/>
        <pt x="56" y="658" on="1"/>
        <pt x="54" y="674" on="0"/>
        <pt x="54" y="681" on="1"/>
        <pt x="57" y="702" on="0"/>
        <pt x="89" y="702" on="1"/>
        <pt x="116" y="702" on="1"/>
        <pt x="149" y="702" on="0"/>
        <pt x="153" y="675" on="1"/>
        <pt x="265" y="26" on="1"/>
        <pt x="266" y="1" on="0"/>
        <pt x="266" y="0" on="1"/>
        <pt x="265" y="-10" on="0"/>
        <pt x="247" y="-21" on="0"/>
        <pt x="232" y="-21" on="1"/>
        <pt x="203" y="-21" on="1"/>
      </contour>
    </TTGlyph>
    <TTGlyph name="bar" xMin="12" yMin="-139" xMax="200" yMax="769">
      <contour>
        <pt x="200" y="769" on="0"/>
        <pt x="197" y="742" on="1"/>
        <pt x="107" y="-112" on="1"/>
        <pt x="106" y="-139" on="0"/>
        <pt x="64" y="-139" on="1"/>
        <pt x="51" y="-139" on="1"/>
        <pt x="12" y="-139" on="0"/>
        <pt x="13" y="-112" on="1"/>
        <pt x="103" y="742" on="1"/>
        <pt x="106" y="769" on="0"/>
        <pt x="146" y="769" on="1"/>
        <pt x="159" y="769" on="1"/>
      </contour>
    </TTGlyph>
    <TTGlyph name="baraccent" xMin="42" yMin="275" xMax="292" yMax="361">
      <contour>
        <pt x="52" y="275" on="0"/>
        <pt x="42" y="292" on="0"/>
        <pt x="44" y="312" on="1"/>
        <pt x="45" y="325" on="1"/>
        <pt x="49" y="361" on="0"/>
        <pt x="74" y="361" on="1"/>
        <pt x="268" y="361" on="1"/>
        <pt x="282" y="361" on="0"/>
        <pt x="292" y="344" on="0"/>
        <pt x="290" y="325" on="1"/>
        <pt x="288" y="312" on="1"/>
        <pt x="286" y="292" on="0"/>
        <pt x="273" y="275" on="0"/>
        <pt x="259" y="275" on="1"/>
        <pt x="65" y="275" on="1"/>
      </contour>
    </TTGlyph>
    <TTGlyph name="baraccentlong" xMin="-73" yMin="275" xMax="591" yMax="362">
      <contour>
        <pt x="591" y="362" on="0"/>
        <pt x="591" y="333" on="1"/>
        <pt x="591" y="312" on="0"/>
        <pt x="578" y="275" on="0"/>
        <pt x="559" y="275" on="1"/>
        <pt x="-50" y="275" on="1"/>
        <pt x="-62" y="275" on="0"/>
        <pt x="-73" y="289" on="0"/>
        <pt x="-73" y="304" on="1"/>
        <pt x="-73" y="362" on="0"/>
        <pt x="-40" y="362" on="1"/>
        <pt x="568" y="362" on="1"/>
      </contour>
    </TTGlyph>
    <TTGlyph name="baraccentmedium" xMin="0" yMin="275" xMax="415" yMax="362">
      <contour>
        <pt x="415" y="362" on="0"/>
        <pt x="415" y="333" on="1"/>
        <pt x="415" y="312" on="0"/>
        <pt x="402" y="275" on="0"/>
        <pt x="382" y="275" on="1"/>
        <pt x="23" y="275" on="1"/>
        <pt x="11" y="275" on="0"/>
        <pt x="0" y="289" on="0"/>
        <pt x="0" y="304" on="1"/>
        <pt x="0" y="362" on="0"/>
        <pt x="32" y="362" on="1"/>
        <pt x="392" y="362" on="1"/>
      </contour>
    </TTGlyph>
    <TTGlyph name="braceleft" xMin="17" yMin="-138" xMax="290" yMax="768">
      <contour>
        <pt x="96" y="-138" on="0"/>
        <pt x="50" y="-88" on="0"/>
        <pt x="50" y="-41" on="1"/>
        <pt x="50" y="-29" on="0"/>
        <pt x="51" y="-22" on="1"/>
        <pt x="70" y="160" on="1"/>
        <pt x="72" y="186" on="0"/>
        <pt x="72" y="196" on="1"/>
        <pt x="72" y="224" on="0"/>
        <pt x="58" y="256" on="0"/>
        <pt x="42" y="264" on="1"/>
        <pt x="28" y="272" on="0"/>
        <pt x="17" y="293" on="0"/>
        <pt x="19" y="309" on="1"/>
        <pt x="20" y="321" on="1"/>
        <pt x="21" y="338" on="0"/>
        <pt x="37" y="358" on="0"/>
        <pt x="53" y="366" on="1"/>
        <pt x="76" y="376" on="0"/>
        <pt x="98" y="425" on="0"/>
        <pt x="103" y="470" on="1"/>
        <pt x="122" y="652" on="1"/>
        <pt x="128" y="707" on="0"/>
        <pt x="188" y="768" on="0"/>
        <pt x="225" y="768" on="1"/>
        <pt x="266" y="768" on="1"/>
        <pt x="290" y="768" on="0"/>
        <pt x="290" y="742" on="1"/>
        <pt x="289" y="732" on="1"/>
        <pt x="288" y="722" on="1"/>
        <pt x="285" y="686" on="0"/>
        <pt x="260" y="686" on="1"/>
        <pt x="255" y="686" on="1"/>
        <pt x="238" y="686" on="0"/>
        <pt x="222" y="664" on="0"/>
        <pt x="220" y="641" on="1"/>
        <pt x="200" y="454" on="1"/>
        <pt x="194" y="402" on="0"/>
        <pt x="151" y="331" on="0"/>
        <pt x="124" y="315" on="1"/>
        <pt x="144" y="302" on="0"/>
        <pt x="172" y="244" on="0"/>
        <pt x="172" y="201" on="1"/>
        <pt x="172" y="185" on="0"/>
        <pt x="171" y="176" on="1"/>
        <pt x="152" y="-10" on="1"/>
        <pt x="151" y="-16" on="0"/>
        <pt x="151" y="-26" on="1"/>
        <pt x="151" y="-56" on="0"/>
        <pt x="175" y="-56" on="1"/>
        <pt x="181" y="-56" on="1"/>
        <pt x="203" y="-56" on="0"/>
        <pt x="203" y="-81" on="1"/>
        <pt x="202" y="-92" on="1"/>
        <pt x="201" y="-102" on="1"/>
        <pt x="199" y="-121" on="0"/>
        <pt x="185" y="-138" on="0"/>
        <pt x="171" y="-138" on="1"/>
        <pt x="130" y="-138" on="1"/>
      </contour>
    </TTGlyph>
    <TTGlyph name="braceright" xMin="-29" yMin="-138" xMax="245" yMax="768">
      <contour>
        <pt x="-17" y="-138" on="0"/>
        <pt x="-29" y="-121" on="0"/>
        <pt x="-27" y="-102" on="1"/>
        <pt x="-25" y="-92" on="1"/>
        <pt x="-23" y="-73" on="0"/>
        <pt x="-9" y="-56" on="0"/>
        <pt x="4" y="-56" on="1"/>
        <pt x="10" y="-56" on="1"/>
        <pt x="25" y="-56" on="0"/>
        <pt x="40" y="-34" on="0"/>
        <pt x="42" y="-10" on="1"/>
        <pt x="62" y="176" on="1"/>
        <pt x="67" y="229" on="0"/>
        <pt x="113" y="300" on="0"/>
        <pt x="140" y="315" on="1"/>
        <pt x="119" y="329" on="0"/>
        <pt x="90" y="387" on="0"/>
        <pt x="90" y="429" on="1"/>
        <pt x="90" y="445" on="0"/>
        <pt x="91" y="454" on="1"/>
        <pt x="111" y="641" on="1"/>
        <pt x="112" y="646" on="0"/>
        <pt x="112" y="655" on="1"/>
        <pt x="112" y="671" on="0"/>
        <pt x="100" y="686" on="0"/>
        <pt x="85" y="686" on="1"/>
        <pt x="80" y="686" on="1"/>
        <pt x="67" y="686" on="0"/>
        <pt x="58" y="703" on="0"/>
        <pt x="60" y="722" on="1"/>
        <pt x="61" y="732" on="1"/>
        <pt x="63" y="751" on="0"/>
        <pt x="78" y="768" on="0"/>
        <pt x="91" y="768" on="1"/>
        <pt x="132" y="768" on="1"/>
        <pt x="166" y="768" on="0"/>
        <pt x="212" y="717" on="0"/>
        <pt x="212" y="671" on="1"/>
        <pt x="212" y="659" on="0"/>
        <pt x="211" y="652" on="1"/>
        <pt x="192" y="470" on="1"/>
        <pt x="190" y="442" on="0"/>
        <pt x="190" y="433" on="1"/>
        <pt x="190" y="406" on="0"/>
        <pt x="204" y="374" on="0"/>
        <pt x="221" y="366" on="1"/>
        <pt x="234" y="358" on="0"/>
        <pt x="245" y="337" on="0"/>
        <pt x="243" y="321" on="1"/>
        <pt x="242" y="309" on="1"/>
        <pt x="241" y="292" on="0"/>
        <pt x="225" y="272" on="0"/>
        <pt x="210" y="264" on="1"/>
        <pt x="186" y="254" on="0"/>
        <pt x="164" y="205" on="0"/>
        <pt x="160" y="160" on="1"/>
        <pt x="140" y="-22" on="1"/>
        <pt x="134" y="-78" on="0"/>
        <pt x="75" y="-138" on="0"/>
        <pt x="37" y="-138" on="1"/>
        <pt x="-4" y="-138" on="1"/>
      </contour>
    </TTGlyph>
    <TTGlyph name="bracketleft" xMin="-3" yMin="-138" xMax="251" yMax="768">
      <contour>
        <pt x="11" y="-138" on="0"/>
        <pt x="-3" y="-121" on="0"/>
        <pt x="-1" y="-102" on="1"/>
        <pt x="87" y="732" on="1"/>
        <pt x="89" y="751" on="0"/>
        <pt x="106" y="768" on="0"/>
        <pt x="124" y="768" on="1"/>
        <pt x="228" y="768" on="1"/>
        <pt x="251" y="768" on="0"/>
        <pt x="251" y="743" on="1"/>
        <pt x="250" y="732" on="1"/>
        <pt x="249" y="721" on="1"/>
        <pt x="247" y="701" on="0"/>
        <pt x="233" y="685" on="0"/>
        <pt x="220" y="685" on="1"/>
        <pt x="180" y="685" on="1"/>
        <pt x="102" y="-55" on="1"/>
        <pt x="142" y="-55" on="1"/>
        <pt x="165" y="-55" on="0"/>
        <pt x="165" y="-80" on="1"/>
        <pt x="164" y="-91" on="1"/>
        <pt x="162" y="-102" on="1"/>
        <pt x="160" y="-121" on="0"/>
        <pt x="147" y="-138" on="0"/>
        <pt x="133" y="-138" on="1"/>
        <pt x="29" y="-138" on="1"/>
      </contour>
    </TTGlyph>
    <TTGlyph name="bracketright" xMin="-2" yMin="-138" xMax="252" yMax="768">
      <contour>
        <pt x="-2" y="-138" on="0"/>
        <pt x="-2" y="-112" on="1"/>
        <pt x="-1" y="-102" on="1"/>
        <pt x="0" y="-91" on="1"/>
        <pt x="2" y="-72" on="0"/>
        <pt x="17" y="-55" on="0"/>
        <pt x="30" y="-55" on="1"/>
        <pt x="70" y="-55" on="1"/>
        <pt x="148" y="685" on="1"/>
        <pt x="107" y="685" on="1"/>
        <pt x="94" y="685" on="0"/>
        <pt x="84" y="702" on="0"/>
        <pt x="85" y="721" on="1"/>
        <pt x="87" y="732" on="1"/>
        <pt x="88" y="751" on="0"/>
        <pt x="102" y="768" on="0"/>
        <pt x="116" y="768" on="1"/>
        <pt x="221" y="768" on="1"/>
        <pt x="238" y="768" on="0"/>
        <pt x="252" y="751" on="0"/>
        <pt x="250" y="732" on="1"/>
        <pt x="162" y="-102" on="1"/>
        <pt x="161" y="-121" on="0"/>
        <pt x="143" y="-138" on="0"/>
        <pt x="126" y="-138" on="1"/>
        <pt x="21" y="-138" on="1"/>
      </contour>
    </TTGlyph>
    <TTGlyph name="breve" xMin="41" yMin="579" xMax="300" yMax="715">
      <contour>
        <pt x="102" y="579" on="0"/>
        <pt x="41" y="642" on="0"/>
        <pt x="46" y="688" on="1"/>
        <pt x="49" y="715" on="0"/>
        <pt x="81" y="715" on="1"/>
        <pt x="92" y="715" on="0"/>
        <pt x="102" y="705" on="0"/>
        <pt x="105" y="694" on="1"/>
        <pt x="111" y="678" on="0"/>
        <pt x="138" y="661" on="0"/>
        <pt x="169" y="661" on="1"/>
        <pt x="202" y="661" on="0"/>
        <pt x="231" y="680" on="0"/>
        <pt x="240" y="696" on="1"/>
        <pt x="246" y="706" on="0"/>
        <pt x="258" y="715" on="0"/>
        <pt x="268" y="715" on="1"/>
        <pt x="300" y="715" on="0"/>
        <pt x="297" y="688" on="1"/>
        <pt x="292" y="642" on="0"/>
        <pt x="219" y="579" on="0"/>
        <pt x="160" y="579" on="1"/>
      </contour>
    </TTGlyph>
    <TTGlyph name="brokenbar" xMin="14" yMin="-140" xMax="198" yMax="770">
      <contour>
        <pt x="181" y="770" on="0"/>
        <pt x="198" y="756" on="0"/>
        <pt x="198" y="742" on="1"/>
        <pt x="198" y="744" on="0"/>
        <pt x="182" y="586" on="1"/>
        <pt x="164" y="417" on="1"/>
        <pt x="161" y="388" on="0"/>
        <pt x="120" y="388" on="1"/>
        <pt x="107" y="388" on="1"/>
        <pt x="69" y="388" on="0"/>
        <pt x="69" y="414" on="1"/>
        <pt x="69" y="430" on="0"/>
        <pt x="99" y="693" on="1"/>
        <pt x="104" y="742" on="1"/>
        <pt x="106" y="770" on="0"/>
        <pt x="147" y="770" on="1"/>
        <pt x="160" y="770" on="1"/>
      </contour>
      <contour>
        <pt x="126" y="241" on="0"/>
        <pt x="142" y="227" on="0"/>
        <pt x="142" y="213" on="1"/>
        <pt x="142" y="199" on="0"/>
        <pt x="126" y="60" on="1"/>
        <pt x="108" y="-112" on="1"/>
        <pt x="105" y="-140" on="0"/>
        <pt x="65" y="-140" on="1"/>
        <pt x="52" y="-140" on="1"/>
        <pt x="31" y="-140" on="0"/>
        <pt x="14" y="-126" on="0"/>
        <pt x="14" y="-112" on="1"/>
        <pt x="14" y="-103" on="0"/>
        <pt x="31" y="50" on="1"/>
        <pt x="48" y="213" on="1"/>
        <pt x="50" y="241" on="0"/>
        <pt x="92" y="241" on="1"/>
        <pt x="105" y="241" on="1"/>
      </contour>
    </TTGlyph>
    <TTGlyph name="bullet" xMin="36" yMin="197" xMax="276" yMax="456">
      <contour>
        <pt x="95" y="197" on="0"/>
        <pt x="36" y="253" on="0"/>
        <pt x="36" y="306" on="1"/>
        <pt x="36" y="379" on="0"/>
        <pt x="113" y="456" on="0"/>
        <pt x="170" y="456" on="1"/>
        <pt x="217" y="456" on="0"/>
        <pt x="276" y="399" on="0"/>
        <pt x="276" y="346" on="1"/>
        <pt x="276" y="333" on="0"/>
        <pt x="275" y="326" on="1"/>
        <pt x="268" y="263" on="0"/>
        <pt x="194" y="197" on="0"/>
        <pt x="142" y="197" on="1"/>
      </contour>
    </TTGlyph>
    <TTGlyph name="c" xMin="35" yMin="-7" xMax="411" yMax="530">
      <contour>
        <pt x="128" y="-7" on="0"/>
        <pt x="35" y="94" on="0"/>
        <pt x="35" y="200" on="1"/>
        <pt x="35" y="228" on="0"/>
        <pt x="38" y="261" on="1"/>
        <pt x="53" y="400" on="0"/>
        <pt x="174" y="530" on="0"/>
        <pt x="279" y="530" on="1"/>
        <pt x="330" y="530" on="0"/>
        <pt x="411" y="495" on="0"/>
        <pt x="411" y="472" on="1"/>
        <pt x="411" y="457" on="0"/>
        <pt x="376" y="402" on="0"/>
        <pt x="364" y="402" on="1"/>
        <pt x="359" y="402" on="0"/>
        <pt x="348" y="408" on="1"/>
        <pt x="312" y="430" on="0"/>
        <pt x="280" y="430" on="1"/>
        <pt x="232" y="430" on="0"/>
        <pt x="178" y="352" on="0"/>
        <pt x="168" y="263" on="1"/>
        <pt x="165" y="232" on="0"/>
        <pt x="165" y="206" on="1"/>
        <pt x="165" y="147" on="0"/>
        <pt x="203" y="93" on="0"/>
        <pt x="243" y="93" on="1"/>
        <pt x="266" y="93" on="0"/>
        <pt x="297" y="104" on="0"/>
        <pt x="321" y="115" on="1"/>
        <pt x="326" y="117" on="0"/>
        <pt x="335" y="121" on="0"/>
        <pt x="338" y="122" on="1"/>
        <pt x="351" y="122" on="0"/>
        <pt x="373" y="71" on="0"/>
        <pt x="371" y="55" on="1"/>
        <pt x="370" y="39" on="0"/>
        <pt x="319" y="10" on="0"/>
        <pt x="250" y="-7" on="0"/>
        <pt x="222" y="-7" on="1"/>
      </contour>
    </TTGlyph>
    <TTGlyph name="cacute" xMin="35" yMin="-7" xMax="411" yMax="733">
      <component glyphName="c" x="0" y="0" flags="0x0"/>
      <component glyphName="acute" x="169" y="0" flags="0x0"/>
    </TTGlyph>
    <TTGlyph name="cacute.loclPLK" xMin="35" yMin="-7" xMax="411" yMax="733">
      <component glyphName="c" x="0" y="0" flags="0x0"/>
      <component glyphName="acute.loclPLK" x="171" y="0" flags="0x0"/>
    </TTGlyph>
    <TTGlyph name="caron" xMin="54" yMin="576" xMax="292" yMax="721">
      <contour>
        <pt x="135" y="576" on="0"/>
        <pt x="112" y="585" on="0"/>
        <pt x="106" y="596" on="1"/>
        <pt x="59" y="692" on="1"/>
        <pt x="54" y="702" on="0"/>
        <pt x="54" y="709" on="1"/>
        <pt x="56" y="721" on="0"/>
        <pt x="75" y="721" on="1"/>
        <pt x="100" y="721" on="1"/>
        <pt x="129" y="721" on="0"/>
        <pt x="139" y="703" on="1"/>
        <pt x="166" y="648" on="1"/>
        <pt x="204" y="704" on="1"/>
        <pt x="215" y="721" on="0"/>
        <pt x="248" y="721" on="1"/>
        <pt x="273" y="721" on="1"/>
        <pt x="282" y="721" on="0"/>
        <pt x="292" y="714" on="0"/>
        <pt x="291" y="709" on="1"/>
        <pt x="291" y="704" on="0"/>
        <pt x="283" y="692" on="1"/>
        <pt x="215" y="596" on="1"/>
        <pt x="206" y="585" on="0"/>
        <pt x="182" y="576" on="0"/>
        <pt x="163" y="576" on="1"/>
        <pt x="154" y="576" on="1"/>
      </contour>
    </TTGlyph>
    <TTGlyph name="caron.alt" xMin="69" yMin="516" xMax="185" yMax="700">
      <contour>
        <pt x="94" y="516" on="0"/>
        <pt x="69" y="526" on="0"/>
        <pt x="69" y="536" on="1"/>
        <pt x="69" y="554" on="0"/>
        <pt x="73" y="592" on="1"/>
        <pt x="77" y="634" on="0"/>
        <pt x="77" y="660" on="1"/>
        <pt x="77" y="679" on="0"/>
        <pt x="103" y="700" on="0"/>
        <pt x="129" y="700" on="1"/>
        <pt x="145" y="700" on="1"/>
        <pt x="165" y="700" on="0"/>
        <pt x="185" y="679" on="0"/>
        <pt x="185" y="662" on="1"/>
        <pt x="185" y="627" on="0"/>
        <pt x="159" y="560" on="0"/>
        <pt x="122" y="517" on="0"/>
        <pt x="109" y="516" on="1"/>
      </contour>
    </TTGlyph>
    <TTGlyph name="ccaron" xMin="35" yMin="-7" xMax="411" yMax="721">
      <component glyphName="c" x="0" y="0" flags="0x0"/>
      <component glyphName="caron" x="106" y="0" flags="0x0"/>
    </TTGlyph>
    <TTGlyph name="ccedilla" xMin="35" yMin="-211" xMax="411" yMax="530">
      <contour>
        <pt x="330" y="530" on="0"/>
        <pt x="411" y="495" on="0"/>
        <pt x="411" y="472" on="1"/>
        <pt x="411" y="457" on="0"/>
        <pt x="376" y="402" on="0"/>
        <pt x="364" y="402" on="1"/>
        <pt x="359" y="402" on="0"/>
        <pt x="348" y="408" on="1"/>
        <pt x="312" y="430" on="0"/>
        <pt x="280" y="430" on="1"/>
        <pt x="232" y="430" on="0"/>
        <pt x="178" y="352" on="0"/>
        <pt x="168" y="263" on="1"/>
        <pt x="165" y="232" on="0"/>
        <pt x="165" y="206" on="1"/>
        <pt x="165" y="147" on="0"/>
        <pt x="203" y="93" on="0"/>
        <pt x="243" y="93" on="1"/>
        <pt x="266" y="93" on="0"/>
        <pt x="297" y="104" on="0"/>
        <pt x="321" y="115" on="1"/>
        <pt x="326" y="117" on="0"/>
        <pt x="335" y="121" on="0"/>
        <pt x="338" y="122" on="1"/>
        <pt x="351" y="122" on="0"/>
        <pt x="373" y="71" on="0"/>
        <pt x="371" y="55" on="1"/>
        <pt x="369" y="34" on="0"/>
        <pt x="289" y="-1" on="0"/>
        <pt x="245" y="-6" on="1"/>
        <pt x="231" y="-52" on="1"/>
        <pt x="260" y="-55" on="0"/>
        <pt x="299" y="-91" on="0"/>
        <pt x="299" y="-124" on="1"/>
        <pt x="299" y="-168" on="0"/>
        <pt x="243" y="-211" on="0"/>
        <pt x="197" y="-211" on="1"/>
        <pt x="158" y="-211" on="0"/>
        <pt x="96" y="-183" on="0"/>
        <pt x="96" y="-163" on="1"/>
        <pt x="96" y="-148" on="0"/>
        <pt x="115" y="-126" on="0"/>
        <pt x="123" y="-126" on="1"/>
        <pt x="129" y="-126" on="0"/>
        <pt x="147" y="-134" on="1"/>
        <pt x="173" y="-147" on="0"/>
        <pt x="190" y="-147" on="1"/>
        <pt x="201" y="-147" on="0"/>
        <pt x="215" y="-137" on="0"/>
        <pt x="215" y="-126" on="1"/>
        <pt x="215" y="-115" on="0"/>
        <pt x="202" y="-106" on="0"/>
        <pt x="188" y="-99" on="1"/>
        <pt x="165" y="-91" on="0"/>
        <pt x="165" y="-79" on="1"/>
        <pt x="165" y="-70" on="0"/>
        <pt x="188" y="-5" on="1"/>
        <pt x="111" y="3" on="0"/>
        <pt x="35" y="104" on="0"/>
        <pt x="35" y="201" on="1"/>
        <pt x="35" y="230" on="0"/>
        <pt x="38" y="261" on="1"/>
        <pt x="53" y="400" on="0"/>
        <pt x="174" y="530" on="0"/>
        <pt x="279" y="530" on="1"/>
      </contour>
    </TTGlyph>
    <TTGlyph name="ccircumflex" xMin="35" yMin="-7" xMax="411" yMax="718">
      <component glyphName="c" x="0" y="0" flags="0x0"/>
      <component glyphName="circumflex" x="105" y="0" flags="0x0"/>
    </TTGlyph>
    <TTGlyph name="cdotaccent" xMin="35" yMin="-7" xMax="411" yMax="702">
      <component glyphName="c" x="0" y="0" flags="0x0"/>
      <component glyphName="dotaccent" x="102" y="0" flags="0x0"/>
    </TTGlyph>
    <TTGlyph name="cedilla" xMin="21" yMin="-211" xMax="224" yMax="6">
      <contour>
        <pt x="185" y="-55" on="0"/>
        <pt x="224" y="-91" on="0"/>
        <pt x="224" y="-124" on="1"/>
        <pt x="224" y="-168" on="0"/>
        <pt x="168" y="-211" on="0"/>
        <pt x="122" y="-211" on="1"/>
        <pt x="83" y="-211" on="0"/>
        <pt x="21" y="-183" on="0"/>
        <pt x="21" y="-163" on="1"/>
        <pt x="21" y="-148" on="0"/>
        <pt x="40" y="-126" on="0"/>
        <pt x="48" y="-126" on="1"/>
        <pt x="54" y="-126" on="0"/>
        <pt x="72" y="-134" on="1"/>
        <pt x="98" y="-147" on="0"/>
        <pt x="115" y="-147" on="1"/>
        <pt x="126" y="-147" on="0"/>
        <pt x="140" y="-137" on="0"/>
        <pt x="140" y="-126" on="1"/>
        <pt x="140" y="-115" on="0"/>
        <pt x="127" y="-106" on="0"/>
        <pt x="113" y="-99" on="1"/>
        <pt x="90" y="-91" on="0"/>
        <pt x="90" y="-79" on="1"/>
        <pt x="90" y="-73" on="0"/>
        <pt x="101" y="-41" on="0"/>
        <pt x="114" y="-3" on="0"/>
        <pt x="117" y="6" on="1"/>
        <pt x="173" y="6" on="1"/>
        <pt x="156" y="-52" on="1"/>
      </contour>
    </TTGlyph>
    <TTGlyph name="cent" xMin="35" yMin="-74" xMax="411" yMax="586">
      <contour>
        <pt x="342" y="526" on="0"/>
        <pt x="411" y="493" on="0"/>
        <pt x="411" y="472" on="1"/>
        <pt x="411" y="457" on="0"/>
        <pt x="376" y="402" on="0"/>
        <pt x="364" y="402" on="1"/>
        <pt x="359" y="402" on="0"/>
        <pt x="348" y="408" on="1"/>
        <pt x="333" y="417" on="0"/>
        <pt x="305" y="429" on="0"/>
        <pt x="287" y="430" on="1"/>
        <pt x="251" y="93" on="1"/>
        <pt x="278" y="95" on="0"/>
        <pt x="317" y="113" on="0"/>
        <pt x="321" y="115" on="1"/>
        <pt x="326" y="117" on="0"/>
        <pt x="335" y="121" on="0"/>
        <pt x="338" y="122" on="1"/>
        <pt x="351" y="122" on="0"/>
        <pt x="373" y="71" on="0"/>
        <pt x="371" y="55" on="1"/>
        <pt x="369" y="34" on="0"/>
        <pt x="285" y="-2" on="0"/>
        <pt x="241" y="-6" on="1"/>
        <pt x="236" y="-54" on="1"/>
        <pt x="233" y="-74" on="0"/>
        <pt x="214" y="-74" on="1"/>
        <pt x="203" y="-74" on="1"/>
        <pt x="192" y="-74" on="0"/>
        <pt x="185" y="-65" on="0"/>
        <pt x="185" y="-54" on="1"/>
        <pt x="190" y="-5" on="1"/>
        <pt x="112" y="3" on="0"/>
        <pt x="35" y="105" on="0"/>
        <pt x="35" y="202" on="1"/>
        <pt x="35" y="230" on="0"/>
        <pt x="38" y="261" on="1"/>
        <pt x="51" y="389" on="0"/>
        <pt x="156" y="519" on="0"/>
        <pt x="247" y="528" on="1"/>
        <pt x="251" y="566" on="1"/>
        <pt x="252" y="577" on="0"/>
        <pt x="262" y="586" on="0"/>
        <pt x="272" y="586" on="1"/>
        <pt x="283" y="586" on="1"/>
        <pt x="293" y="586" on="0"/>
        <pt x="301" y="577" on="0"/>
        <pt x="301" y="566" on="1"/>
        <pt x="297" y="529" on="1"/>
      </contour>
      <contour>
        <pt x="164" y="219" on="0"/>
        <pt x="164" y="205" on="1"/>
        <pt x="164" y="126" on="0"/>
        <pt x="202" y="103" on="1"/>
        <pt x="235" y="420" on="1"/>
        <pt x="208" y="405" on="0"/>
        <pt x="175" y="329" on="0"/>
        <pt x="168" y="263" on="1"/>
      </contour>
    </TTGlyph>
    <TTGlyph name="circumflex" xMin="40" yMin="573" xMax="279" yMax="718">
      <contour>
        <pt x="50" y="573" on="0"/>
        <pt x="40" y="580" on="0"/>
        <pt x="41" y="585" on="1"/>
        <pt x="41" y="587" on="0"/>
        <pt x="48" y="599" on="0"/>
        <pt x="49" y="602" on="1"/>
        <pt x="116" y="698" on="1"/>
        <pt x="125" y="709" on="0"/>
        <pt x="150" y="718" on="0"/>
        <pt x="170" y="718" on="1"/>
        <pt x="177" y="718" on="1"/>
        <pt x="196" y="718" on="0"/>
        <pt x="220" y="709" on="0"/>
        <pt x="226" y="698" on="1"/>
        <pt x="273" y="602" on="1"/>
        <pt x="279" y="593" on="0"/>
        <pt x="279" y="585" on="1"/>
        <pt x="278" y="580" on="0"/>
        <pt x="267" y="573" on="0"/>
        <pt x="258" y="573" on="1"/>
        <pt x="232" y="573" on="1"/>
        <pt x="200" y="573" on="0"/>
        <pt x="193" y="590" on="1"/>
        <pt x="165" y="646" on="1"/>
        <pt x="127" y="591" on="1"/>
        <pt x="115" y="573" on="0"/>
        <pt x="84" y="573" on="1"/>
        <pt x="60" y="573" on="1"/>
      </contour>
    </TTGlyph>
    <TTGlyph name="colon" xMin="0" yMin="-2" xMax="186" yMax="525">
      <contour>
        <pt x="42" y="386" on="0"/>
        <pt x="45" y="414" on="1"/>
        <pt x="54" y="497" on="1"/>
        <pt x="57" y="525" on="0"/>
        <pt x="108" y="525" on="1"/>
        <pt x="135" y="525" on="1"/>
        <pt x="186" y="525" on="0"/>
        <pt x="183" y="497" on="1"/>
        <pt x="174" y="414" on="1"/>
        <pt x="171" y="386" on="0"/>
        <pt x="120" y="386" on="1"/>
        <pt x="93" y="386" on="1"/>
      </contour>
      <contour>
        <pt x="0" y="-2" on="0"/>
        <pt x="5" y="26" on="1"/>
        <pt x="13" y="109" on="1"/>
        <pt x="16" y="137" on="0"/>
        <pt x="67" y="137" on="1"/>
        <pt x="95" y="137" on="1"/>
        <pt x="145" y="137" on="0"/>
        <pt x="142" y="109" on="1"/>
        <pt x="134" y="26" on="1"/>
        <pt x="129" y="-2" on="0"/>
        <pt x="79" y="-2" on="1"/>
        <pt x="52" y="-2" on="1"/>
      </contour>
    </TTGlyph>
    <TTGlyph name="comma" xMin="-41" yMin="-122" xMax="135" yMax="137">
      <contour>
        <pt x="-18" y="-122" on="0"/>
        <pt x="-41" y="-113" on="0"/>
        <pt x="-41" y="-104" on="1"/>
        <pt x="-41" y="-99" on="0"/>
        <pt x="-34" y="-80" on="0"/>
        <pt x="-32" y="-73" on="1"/>
        <pt x="-29" y="-66" on="0"/>
        <pt x="-6" y="-11" on="0"/>
        <pt x="12" y="59" on="0"/>
        <pt x="16" y="98" on="1"/>
        <pt x="19" y="137" on="0"/>
        <pt x="71" y="137" on="1"/>
        <pt x="87" y="137" on="1"/>
        <pt x="113" y="137" on="0"/>
        <pt x="135" y="116" on="0"/>
        <pt x="133" y="99" on="1"/>
        <pt x="127" y="45" on="0"/>
        <pt x="76" y="-57" on="0"/>
        <pt x="14" y="-122" on="0"/>
        <pt x="-5" y="-122" on="1"/>
      </contour>
    </TTGlyph>
    <TTGlyph name="commaaccentinvert" xMin="103" yMin="579" xMax="228" yMax="766">
      <contour>
        <pt x="204" y="766" on="0"/>
        <pt x="228" y="756" on="0"/>
        <pt x="228" y="747" on="1"/>
        <pt x="228" y="742" on="0"/>
        <pt x="224" y="722" on="1"/>
        <pt x="211" y="677" on="0"/>
        <pt x="211" y="619" on="1"/>
        <pt x="211" y="579" on="0"/>
        <pt x="160" y="579" on="1"/>
        <pt x="144" y="579" on="1"/>
        <pt x="123" y="579" on="0"/>
        <pt x="103" y="600" on="0"/>
        <pt x="103" y="617" on="1"/>
        <pt x="103" y="654" on="0"/>
        <pt x="133" y="723" on="0"/>
        <pt x="175" y="766" on="0"/>
        <pt x="190" y="766" on="1"/>
      </contour>
    </TTGlyph>
    <TTGlyph name="copyright" xMin="20" yMin="-7" xMax="592" yMax="709">
      <contour>
        <pt x="226" y="-7" on="0"/>
        <pt x="96" y="76" on="0"/>
        <pt x="20" y="238" on="0"/>
        <pt x="20" y="351" on="1"/>
        <pt x="20" y="465" on="0"/>
        <pt x="96" y="626" on="0"/>
        <pt x="226" y="709" on="0"/>
        <pt x="306" y="709" on="1"/>
        <pt x="386" y="709" on="0"/>
        <pt x="516" y="626" on="0"/>
        <pt x="592" y="465" on="0"/>
        <pt x="592" y="351" on="1"/>
        <pt x="592" y="238" on="0"/>
        <pt x="516" y="76" on="0"/>
        <pt x="386" y="-7" on="0"/>
        <pt x="306" y="-7" on="1"/>
      </contour>
      <contour>
        <pt x="370" y="51" on="0"/>
        <pt x="472" y="119" on="0"/>
        <pt x="532" y="254" on="0"/>
        <pt x="532" y="351" on="1"/>
        <pt x="532" y="449" on="0"/>
        <pt x="472" y="584" on="0"/>
        <pt x="370" y="651" on="0"/>
        <pt x="306" y="651" on="1"/>
        <pt x="242" y="651" on="0"/>
        <pt x="140" y="584" on="0"/>
        <pt x="80" y="449" on="0"/>
        <pt x="80" y="351" on="1"/>
        <pt x="80" y="254" on="0"/>
        <pt x="140" y="119" on="0"/>
        <pt x="242" y="51" on="0"/>
        <pt x="306" y="51" on="1"/>
      </contour>
      <contour>
        <pt x="241" y="147" on="0"/>
        <pt x="170" y="247" on="0"/>
        <pt x="170" y="352" on="1"/>
        <pt x="170" y="556" on="0"/>
        <pt x="317" y="556" on="1"/>
        <pt x="349" y="556" on="0"/>
        <pt x="411" y="532" on="0"/>
        <pt x="411" y="517" on="1"/>
        <pt x="411" y="506" on="0"/>
        <pt x="389" y="471" on="0"/>
        <pt x="381" y="471" on="1"/>
        <pt x="379" y="471" on="0"/>
        <pt x="347" y="492" on="0"/>
        <pt x="316" y="492" on="1"/>
        <pt x="279" y="492" on="0"/>
        <pt x="244" y="423" on="0"/>
        <pt x="244" y="352" on="1"/>
        <pt x="244" y="209" on="0"/>
        <pt x="315" y="209" on="1"/>
        <pt x="346" y="209" on="0"/>
        <pt x="385" y="235" on="0"/>
        <pt x="387" y="235" on="1"/>
        <pt x="398" y="235" on="0"/>
        <pt x="415" y="201" on="0"/>
        <pt x="415" y="192" on="1"/>
        <pt x="415" y="174" on="0"/>
        <pt x="345" y="147" on="0"/>
        <pt x="315" y="147" on="1"/>
      </contour>
    </TTGlyph>
    <TTGlyph name="currency" xMin="30" yMin="98" xMax="438" yMax="509">
      <contour>
        <pt x="66" y="98" on="0"/>
        <pt x="56" y="109" on="1"/>
        <pt x="39" y="129" on="1"/>
        <pt x="30" y="137" on="0"/>
        <pt x="30" y="151" on="1"/>
        <pt x="32" y="163" on="0"/>
        <pt x="45" y="175" on="1"/>
        <pt x="76" y="203" on="1"/>
        <pt x="62" y="239" on="0"/>
        <pt x="62" y="279" on="1"/>
        <pt x="62" y="346" on="0"/>
        <pt x="98" y="402" on="1"/>
        <pt x="70" y="432" on="1"/>
        <pt x="61" y="442" on="0"/>
        <pt x="61" y="453" on="1"/>
        <pt x="61" y="466" on="0"/>
        <pt x="73" y="478" on="1"/>
        <pt x="96" y="499" on="1"/>
        <pt x="106" y="509" on="0"/>
        <pt x="119" y="509" on="1"/>
        <pt x="132" y="509" on="0"/>
        <pt x="141" y="497" on="1"/>
        <pt x="165" y="472" on="1"/>
        <pt x="208" y="500" on="0"/>
        <pt x="253" y="500" on="1"/>
        <pt x="300" y="500" on="0"/>
        <pt x="337" y="471" on="1"/>
        <pt x="365" y="498" on="1"/>
        <pt x="379" y="509" on="0"/>
        <pt x="390" y="509" on="1"/>
        <pt x="402" y="509" on="0"/>
        <pt x="411" y="498" on="1"/>
        <pt x="429" y="478" on="1"/>
        <pt x="438" y="469" on="0"/>
        <pt x="438" y="459" on="1"/>
        <pt x="438" y="445" on="0"/>
        <pt x="424" y="432" on="1"/>
        <pt x="388" y="400" on="1"/>
        <pt x="402" y="364" on="0"/>
        <pt x="402" y="325" on="1"/>
        <pt x="402" y="263" on="0"/>
        <pt x="369" y="204" on="1"/>
        <pt x="395" y="175" on="1"/>
        <pt x="404" y="165" on="0"/>
        <pt x="404" y="154" on="1"/>
        <pt x="404" y="148" on="0"/>
        <pt x="396" y="134" on="0"/>
        <pt x="390" y="128" on="1"/>
        <pt x="368" y="109" on="1"/>
        <pt x="357" y="98" on="0"/>
        <pt x="345" y="98" on="1"/>
        <pt x="333" y="98" on="0"/>
        <pt x="323" y="109" on="1"/>
        <pt x="304" y="132" on="1"/>
        <pt x="260" y="102" on="0"/>
        <pt x="211" y="102" on="1"/>
        <pt x="165" y="102" on="0"/>
        <pt x="126" y="131" on="1"/>
        <pt x="102" y="109" on="1"/>
        <pt x="91" y="98" on="0"/>
        <pt x="78" y="98" on="1"/>
      </contour>
      <contour>
        <pt x="257" y="197" on="0"/>
        <pt x="306" y="264" on="0"/>
        <pt x="306" y="323" on="1"/>
        <pt x="306" y="362" on="0"/>
        <pt x="271" y="405" on="0"/>
        <pt x="243" y="405" on="1"/>
        <pt x="207" y="405" on="0"/>
        <pt x="157" y="340" on="0"/>
        <pt x="157" y="281" on="1"/>
        <pt x="157" y="240" on="0"/>
        <pt x="192" y="197" on="0"/>
        <pt x="221" y="197" on="1"/>
      </contour>
    </TTGlyph>
    <TTGlyph name="d" xMin="34" yMin="-7" xMax="471" yMax="753">
      <contour>
        <pt x="103" y="-7" on="0"/>
        <pt x="34" y="102" on="0"/>
        <pt x="34" y="198" on="1"/>
        <pt x="34" y="233" on="0"/>
        <pt x="38" y="264" on="1"/>
        <pt x="51" y="391" on="0"/>
        <pt x="154" y="530" on="0"/>
        <pt x="232" y="530" on="1"/>
        <pt x="284" y="530" on="0"/>
        <pt x="319" y="493" on="1"/>
        <pt x="343" y="725" on="1"/>
        <pt x="346" y="753" on="0"/>
        <pt x="397" y="753" on="1"/>
        <pt x="419" y="753" on="1"/>
        <pt x="471" y="753" on="0"/>
        <pt x="469" y="725" on="1"/>
        <pt x="446" y="511" on="1"/>
        <pt x="414" y="231" on="0"/>
        <pt x="406" y="129" on="1"/>
        <pt x="405" y="110" on="0"/>
        <pt x="413" y="95" on="0"/>
        <pt x="423" y="95" on="1"/>
        <pt x="428" y="95" on="0"/>
        <pt x="438" y="98" on="0"/>
        <pt x="442" y="98" on="1"/>
        <pt x="454" y="98" on="0"/>
        <pt x="454" y="72" on="1"/>
        <pt x="454" y="64" on="0"/>
        <pt x="453" y="61" on="1"/>
        <pt x="450" y="30" on="0"/>
        <pt x="406" y="-7" on="0"/>
        <pt x="369" y="-7" on="1"/>
        <pt x="294" y="-7" on="0"/>
        <pt x="283" y="71" on="1"/>
        <pt x="262" y="35" on="0"/>
        <pt x="198" y="-7" on="0"/>
        <pt x="161" y="-7" on="1"/>
      </contour>
      <contour>
        <pt x="248" y="96" on="0"/>
        <pt x="282" y="147" on="1"/>
        <pt x="309" y="404" on="1"/>
        <pt x="287" y="429" on="0"/>
        <pt x="255" y="429" on="1"/>
        <pt x="218" y="429" on="0"/>
        <pt x="174" y="349" on="0"/>
        <pt x="165" y="262" on="1"/>
        <pt x="161" y="230" on="0"/>
        <pt x="161" y="198" on="1"/>
        <pt x="161" y="96" on="0"/>
        <pt x="212" y="96" on="1"/>
      </contour>
    </TTGlyph>
    <TTGlyph name="dagger" xMin="56" yMin="-140" xMax="414" yMax="702">
      <contour>
        <pt x="124" y="-140" on="0"/>
        <pt x="127" y="-112" on="1"/>
        <pt x="183" y="414" on="1"/>
        <pt x="78" y="414" on="1"/>
        <pt x="56" y="414" on="0"/>
        <pt x="56" y="442" on="1"/>
        <pt x="56" y="452" on="0"/>
        <pt x="57" y="457" on="1"/>
        <pt x="58" y="469" on="1"/>
        <pt x="60" y="492" on="0"/>
        <pt x="75" y="512" on="0"/>
        <pt x="88" y="512" on="1"/>
        <pt x="192" y="512" on="1"/>
        <pt x="210" y="674" on="1"/>
        <pt x="212" y="702" on="0"/>
        <pt x="253" y="702" on="1"/>
        <pt x="267" y="702" on="1"/>
        <pt x="308" y="702" on="0"/>
        <pt x="306" y="674" on="1"/>
        <pt x="288" y="512" on="1"/>
        <pt x="392" y="512" on="1"/>
        <pt x="414" y="512" on="0"/>
        <pt x="414" y="482" on="1"/>
        <pt x="413" y="469" on="1"/>
        <pt x="412" y="457" on="1"/>
        <pt x="409" y="434" on="0"/>
        <pt x="395" y="414" on="0"/>
        <pt x="382" y="414" on="1"/>
        <pt x="279" y="414" on="1"/>
        <pt x="223" y="-112" on="1"/>
        <pt x="220" y="-140" on="0"/>
        <pt x="179" y="-140" on="1"/>
        <pt x="164" y="-140" on="1"/>
      </contour>
    </TTGlyph>
    <TTGlyph name="daggerdbl" xMin="17" yMin="-140" xMax="414" yMax="702">
      <contour>
        <pt x="124" y="-140" on="0"/>
        <pt x="127" y="-112" on="1"/>
        <pt x="144" y="49" on="1"/>
        <pt x="39" y="49" on="1"/>
        <pt x="17" y="49" on="0"/>
        <pt x="17" y="79" on="1"/>
        <pt x="18" y="91" on="1"/>
        <pt x="19" y="103" on="1"/>
        <pt x="22" y="126" on="0"/>
        <pt x="36" y="146" on="0"/>
        <pt x="49" y="146" on="1"/>
        <pt x="154" y="146" on="1"/>
        <pt x="183" y="414" on="1"/>
        <pt x="78" y="414" on="1"/>
        <pt x="56" y="414" on="0"/>
        <pt x="56" y="442" on="1"/>
        <pt x="56" y="452" on="0"/>
        <pt x="57" y="457" on="1"/>
        <pt x="58" y="469" on="1"/>
        <pt x="60" y="492" on="0"/>
        <pt x="75" y="512" on="0"/>
        <pt x="88" y="512" on="1"/>
        <pt x="192" y="512" on="1"/>
        <pt x="210" y="674" on="1"/>
        <pt x="212" y="702" on="0"/>
        <pt x="253" y="702" on="1"/>
        <pt x="267" y="702" on="1"/>
        <pt x="308" y="702" on="0"/>
        <pt x="306" y="674" on="1"/>
        <pt x="288" y="512" on="1"/>
        <pt x="392" y="512" on="1"/>
        <pt x="414" y="512" on="0"/>
        <pt x="414" y="482" on="1"/>
        <pt x="413" y="469" on="1"/>
        <pt x="412" y="457" on="1"/>
        <pt x="409" y="434" on="0"/>
        <pt x="395" y="414" on="0"/>
        <pt x="382" y="414" on="1"/>
        <pt x="279" y="414" on="1"/>
        <pt x="250" y="146" on="1"/>
        <pt x="353" y="146" on="1"/>
        <pt x="375" y="146" on="0"/>
        <pt x="375" y="119" on="1"/>
        <pt x="375" y="109" on="0"/>
        <pt x="374" y="103" on="1"/>
        <pt x="373" y="91" on="1"/>
        <pt x="371" y="68" on="0"/>
        <pt x="357" y="49" on="0"/>
        <pt x="343" y="49" on="1"/>
        <pt x="240" y="49" on="1"/>
        <pt x="223" y="-112" on="1"/>
        <pt x="220" y="-140" on="0"/>
        <pt x="179" y="-140" on="1"/>
        <pt x="164" y="-140" on="1"/>
      </contour>
    </TTGlyph>
    <TTGlyph name="dcaron" xMin="34" yMin="-7" xMax="602" yMax="753">
      <component glyphName="d" x="0" y="0" flags="0x0"/>
      <component glyphName="caron.alt" x="417" y="0" flags="0x0"/>
    </TTGlyph>
    <TTGlyph name="dcroat" xMin="34" yMin="-7" xMax="517" yMax="753">
      <contour>
        <pt x="507" y="674" on="0"/>
        <pt x="517" y="657" on="0"/>
        <pt x="515" y="638" on="1"/>
        <pt x="513" y="625" on="1"/>
        <pt x="511" y="605" on="0"/>
        <pt x="498" y="588" on="0"/>
        <pt x="484" y="588" on="1"/>
        <pt x="454" y="588" on="1"/>
        <pt x="415" y="235" on="0"/>
        <pt x="406" y="129" on="1"/>
        <pt x="405" y="110" on="0"/>
        <pt x="413" y="95" on="0"/>
        <pt x="423" y="95" on="1"/>
        <pt x="428" y="95" on="0"/>
        <pt x="438" y="98" on="0"/>
        <pt x="442" y="98" on="1"/>
        <pt x="454" y="98" on="0"/>
        <pt x="454" y="72" on="1"/>
        <pt x="454" y="64" on="0"/>
        <pt x="453" y="61" on="1"/>
        <pt x="450" y="30" on="0"/>
        <pt x="406" y="-7" on="0"/>
        <pt x="369" y="-7" on="1"/>
        <pt x="294" y="-7" on="0"/>
        <pt x="283" y="71" on="1"/>
        <pt x="262" y="35" on="0"/>
        <pt x="198" y="-7" on="0"/>
        <pt x="161" y="-7" on="1"/>
        <pt x="103" y="-7" on="0"/>
        <pt x="34" y="102" on="0"/>
        <pt x="34" y="198" on="1"/>
        <pt x="34" y="233" on="0"/>
        <pt x="38" y="264" on="1"/>
        <pt x="51" y="391" on="0"/>
        <pt x="154" y="530" on="0"/>
        <pt x="232" y="530" on="1"/>
        <pt x="284" y="530" on="0"/>
        <pt x="319" y="493" on="1"/>
        <pt x="329" y="588" on="1"/>
        <pt x="290" y="588" on="1"/>
        <pt x="277" y="588" on="0"/>
        <pt x="267" y="605" on="0"/>
        <pt x="269" y="625" on="1"/>
        <pt x="270" y="638" on="1"/>
        <pt x="274" y="674" on="0"/>
        <pt x="299" y="674" on="1"/>
        <pt x="338" y="674" on="1"/>
        <pt x="343" y="725" on="1"/>
        <pt x="346" y="753" on="0"/>
        <pt x="397" y="753" on="1"/>
        <pt x="419" y="753" on="1"/>
        <pt x="471" y="753" on="0"/>
        <pt x="469" y="725" on="1"/>
        <pt x="465" y="694" on="0"/>
        <pt x="464" y="674" on="1"/>
        <pt x="493" y="674" on="1"/>
      </contour>
      <contour>
        <pt x="309" y="404" on="1"/>
        <pt x="287" y="429" on="0"/>
        <pt x="255" y="429" on="1"/>
        <pt x="218" y="429" on="0"/>
        <pt x="174" y="349" on="0"/>
        <pt x="165" y="262" on="1"/>
        <pt x="161" y="230" on="0"/>
        <pt x="161" y="198" on="1"/>
        <pt x="161" y="96" on="0"/>
        <pt x="212" y="96" on="1"/>
        <pt x="248" y="96" on="0"/>
        <pt x="282" y="147" on="1"/>
      </contour>
    </TTGlyph>
    <TTGlyph name="degree" xMin="64" yMin="442" xMax="278" yMax="707">
      <contour>
        <pt x="116" y="442" on="0"/>
        <pt x="64" y="498" on="0"/>
        <pt x="64" y="549" on="1"/>
        <pt x="64" y="625" on="0"/>
        <pt x="134" y="707" on="0"/>
        <pt x="185" y="707" on="1"/>
        <pt x="227" y="707" on="0"/>
        <pt x="278" y="651" on="0"/>
        <pt x="278" y="597" on="1"/>
        <pt x="278" y="582" on="0"/>
        <pt x="277" y="574" on="1"/>
        <pt x="270" y="510" on="0"/>
        <pt x="203" y="442" on="0"/>
        <pt x="157" y="442" on="1"/>
      </contour>
      <contour>
        <pt x="186" y="498" on="0"/>
        <pt x="218" y="547" on="0"/>
        <pt x="218" y="593" on="1"/>
        <pt x="218" y="621" on="0"/>
        <pt x="196" y="651" on="0"/>
        <pt x="178" y="651" on="1"/>
        <pt x="154" y="651" on="0"/>
        <pt x="122" y="601" on="0"/>
        <pt x="122" y="555" on="1"/>
        <pt x="122" y="527" on="0"/>
        <pt x="144" y="498" on="0"/>
        <pt x="162" y="498" on="1"/>
      </contour>
    </TTGlyph>
    <TTGlyph name="dieresis" xMin="40" yMin="589" xMax="300" yMax="702">
      <contour>
        <pt x="62" y="589" on="0"/>
        <pt x="40" y="603" on="0"/>
        <pt x="42" y="617" on="1"/>
        <pt x="47" y="674" on="1"/>
        <pt x="50" y="702" on="0"/>
        <pt x="100" y="702" on="1"/>
        <pt x="151" y="702" on="0"/>
        <pt x="148" y="674" on="1"/>
        <pt x="143" y="617" on="1"/>
        <pt x="138" y="589" on="0"/>
        <pt x="89" y="589" on="1"/>
      </contour>
      <contour>
        <pt x="211" y="589" on="0"/>
        <pt x="189" y="603" on="0"/>
        <pt x="191" y="617" on="1"/>
        <pt x="196" y="674" on="1"/>
        <pt x="199" y="702" on="0"/>
        <pt x="249" y="702" on="1"/>
        <pt x="300" y="702" on="0"/>
        <pt x="297" y="674" on="1"/>
        <pt x="292" y="617" on="1"/>
        <pt x="287" y="589" on="0"/>
        <pt x="238" y="589" on="1"/>
      </contour>
    </TTGlyph>
    <TTGlyph name="divide" xMin="15" yMin="-2" xMax="428" yMax="457">
      <contour>
        <pt x="200" y="336" on="0"/>
        <pt x="177" y="350" on="0"/>
        <pt x="179" y="365" on="1"/>
        <pt x="185" y="428" on="1"/>
        <pt x="188" y="457" on="0"/>
        <pt x="239" y="457" on="1"/>
        <pt x="248" y="457" on="1"/>
        <pt x="299" y="457" on="0"/>
        <pt x="296" y="428" on="1"/>
        <pt x="289" y="365" on="1"/>
        <pt x="287" y="350" on="0"/>
        <pt x="262" y="336" on="0"/>
        <pt x="236" y="336" on="1"/>
        <pt x="226" y="336" on="1"/>
      </contour>
      <contour>
        <pt x="15" y="181" on="0"/>
        <pt x="15" y="211" on="1"/>
        <pt x="16" y="224" on="1"/>
        <pt x="17" y="231" on="1"/>
        <pt x="19" y="253" on="0"/>
        <pt x="33" y="274" on="0"/>
        <pt x="46" y="274" on="1"/>
        <pt x="406" y="274" on="1"/>
        <pt x="419" y="274" on="0"/>
        <pt x="428" y="254" on="0"/>
        <pt x="426" y="231" on="1"/>
        <pt x="425" y="224" on="1"/>
        <pt x="422" y="201" on="0"/>
        <pt x="409" y="181" on="0"/>
        <pt x="396" y="181" on="1"/>
        <pt x="36" y="181" on="1"/>
      </contour>
      <contour>
        <pt x="140" y="-2" on="0"/>
        <pt x="143" y="26" on="1"/>
        <pt x="150" y="90" on="1"/>
        <pt x="151" y="104" on="0"/>
        <pt x="176" y="118" on="0"/>
        <pt x="203" y="118" on="1"/>
        <pt x="212" y="118" on="1"/>
        <pt x="239" y="118" on="0"/>
        <pt x="262" y="104" on="0"/>
        <pt x="261" y="90" on="1"/>
        <pt x="254" y="26" on="1"/>
        <pt x="251" y="-2" on="0"/>
        <pt x="200" y="-2" on="1"/>
        <pt x="190" y="-2" on="1"/>
      </contour>
    </TTGlyph>
    <TTGlyph name="dollar" xMin="5" yMin="-72" xMax="416" yMax="761">
      <contour>
        <pt x="168" y="-72" on="0"/>
        <pt x="161" y="-63" on="0"/>
        <pt x="161" y="-52" on="1"/>
        <pt x="165" y="-7" on="1"/>
        <pt x="95" y="-5" on="0"/>
        <pt x="50" y="19" on="1"/>
        <pt x="6" y="38" on="0"/>
        <pt x="6" y="64" on="1"/>
        <pt x="5" y="88" on="0"/>
        <pt x="30" y="146" on="0"/>
        <pt x="46" y="146" on="1"/>
        <pt x="53" y="146" on="0"/>
        <pt x="63" y="139" on="1"/>
        <pt x="92" y="122" on="0"/>
        <pt x="144" y="105" on="0"/>
        <pt x="177" y="105" on="1"/>
        <pt x="198" y="307" on="1"/>
        <pt x="151" y="332" on="0"/>
        <pt x="92" y="376" on="0"/>
        <pt x="50" y="451" on="0"/>
        <pt x="50" y="507" on="1"/>
        <pt x="50" y="590" on="0"/>
        <pt x="157" y="699" on="0"/>
        <pt x="241" y="707" on="1"/>
        <pt x="244" y="741" on="1"/>
        <pt x="246" y="752" on="0"/>
        <pt x="255" y="761" on="0"/>
        <pt x="266" y="761" on="1"/>
        <pt x="278" y="761" on="1"/>
        <pt x="288" y="761" on="0"/>
        <pt x="295" y="752" on="0"/>
        <pt x="295" y="741" on="1"/>
        <pt x="292" y="708" on="1"/>
        <pt x="362" y="703" on="0"/>
        <pt x="399" y="680" on="1"/>
        <pt x="416" y="671" on="0"/>
        <pt x="416" y="654" on="1"/>
        <pt x="416" y="632" on="0"/>
        <pt x="392" y="574" on="0"/>
        <pt x="377" y="574" on="1"/>
        <pt x="372" y="574" on="0"/>
        <pt x="356" y="579" on="0"/>
        <pt x="353" y="580" on="1"/>
        <pt x="315" y="595" on="0"/>
        <pt x="280" y="597" on="1"/>
        <pt x="260" y="405" on="1"/>
        <pt x="338" y="365" on="0"/>
        <pt x="405" y="279" on="0"/>
        <pt x="405" y="208" on="1"/>
        <pt x="405" y="119" on="0"/>
        <pt x="305" y="7" on="0"/>
        <pt x="216" y="-4" on="1"/>
        <pt x="211" y="-52" on="1"/>
        <pt x="210" y="-72" on="0"/>
        <pt x="189" y="-72" on="1"/>
        <pt x="178" y="-72" on="1"/>
      </contour>
      <contour>
        <pt x="228" y="591" on="1"/>
        <pt x="198" y="581" on="0"/>
        <pt x="169" y="536" on="0"/>
        <pt x="169" y="505" on="1"/>
        <pt x="169" y="462" on="0"/>
        <pt x="211" y="432" on="1"/>
      </contour>
      <contour>
        <pt x="286" y="134" on="0"/>
        <pt x="286" y="205" on="1"/>
        <pt x="286" y="249" on="0"/>
        <pt x="246" y="279" on="1"/>
        <pt x="229" y="113" on="1"/>
      </contour>
    </TTGlyph>
    <TTGlyph name="dotaccent" xMin="105" yMin="589" xMax="236" yMax="702">
      <contour>
        <pt x="133" y="589" on="0"/>
        <pt x="105" y="603" on="0"/>
        <pt x="107" y="617" on="1"/>
        <pt x="113" y="674" on="1"/>
        <pt x="116" y="702" on="0"/>
        <pt x="175" y="702" on="1"/>
        <pt x="236" y="702" on="0"/>
        <pt x="233" y="674" on="1"/>
        <pt x="227" y="617" on="1"/>
        <pt x="224" y="589" on="0"/>
        <pt x="164" y="589" on="1"/>
      </contour>
    </TTGlyph>
    <TTGlyph name="dotbelowcomb" xMin="-106" yMin="-193" xMax="25" yMax="-80">
      <contour>
        <pt x="-78" y="-193" on="0"/>
        <pt x="-106" y="-179" on="0"/>
        <pt x="-104" y="-165" on="1"/>
        <pt x="-98" y="-108" on="1"/>
        <pt x="-95" y="-80" on="0"/>
        <pt x="-36" y="-80" on="1"/>
        <pt x="25" y="-80" on="0"/>
        <pt x="22" y="-108" on="1"/>
        <pt x="16" y="-165" on="1"/>
        <pt x="13" y="-193" on="0"/>
        <pt x="-47" y="-193" on="1"/>
      </contour>
    </TTGlyph>
    <TTGlyph name="dotlessi" xMin="41" yMin="-6" xMax="215" yMax="525">
      <contour>
        <pt x="41" y="-6" on="0"/>
        <pt x="41" y="96" on="1"/>
        <pt x="41" y="110" on="0"/>
        <pt x="46" y="165" on="1"/>
        <pt x="65" y="353" on="0"/>
        <pt x="81" y="497" on="1"/>
        <pt x="84" y="525" on="0"/>
        <pt x="136" y="525" on="1"/>
        <pt x="156" y="525" on="1"/>
        <pt x="181" y="525" on="0"/>
        <pt x="206" y="510" on="0"/>
        <pt x="206" y="497" on="1"/>
        <pt x="188" y="332" on="1"/>
        <pt x="171" y="171" on="0"/>
        <pt x="168" y="130" on="1"/>
        <pt x="168" y="121" on="1"/>
        <pt x="168" y="96" on="0"/>
        <pt x="184" y="96" on="1"/>
        <pt x="189" y="96" on="0"/>
        <pt x="199" y="99" on="0"/>
        <pt x="203" y="99" on="1"/>
        <pt x="215" y="99" on="0"/>
        <pt x="215" y="73" on="1"/>
        <pt x="215" y="65" on="0"/>
        <pt x="214" y="62" on="1"/>
        <pt x="211" y="31" on="0"/>
        <pt x="167" y="-6" on="0"/>
        <pt x="130" y="-6" on="1"/>
      </contour>
    </TTGlyph>
    <TTGlyph name="e" xMin="38" yMin="-7" xMax="436" yMax="530">
      <contour>
        <pt x="385" y="139" on="0"/>
        <pt x="394" y="118" on="0"/>
        <pt x="394" y="101" on="1"/>
        <pt x="394" y="67" on="0"/>
        <pt x="379" y="45" on="1"/>
        <pt x="363" y="20" on="0"/>
        <pt x="273" y="-7" on="0"/>
        <pt x="234" y="-7" on="1"/>
        <pt x="141" y="-7" on="0"/>
        <pt x="38" y="96" on="0"/>
        <pt x="38" y="202" on="1"/>
        <pt x="38" y="346" on="0"/>
        <pt x="160" y="530" on="0"/>
        <pt x="279" y="530" on="1"/>
        <pt x="339" y="530" on="0"/>
        <pt x="409" y="485" on="0"/>
        <pt x="436" y="421" on="0"/>
        <pt x="436" y="390" on="1"/>
        <pt x="436" y="305" on="0"/>
        <pt x="324" y="207" on="0"/>
        <pt x="236" y="207" on="1"/>
        <pt x="197" y="207" on="0"/>
        <pt x="165" y="212" on="1"/>
        <pt x="165" y="146" on="0"/>
        <pt x="211" y="93" on="0"/>
        <pt x="255" y="93" on="1"/>
        <pt x="285" y="93" on="0"/>
        <pt x="327" y="111" on="0"/>
        <pt x="353" y="127" on="1"/>
        <pt x="370" y="139" on="0"/>
        <pt x="376" y="139" on="1"/>
      </contour>
      <contour>
        <pt x="193" y="430" on="0"/>
        <pt x="171" y="289" on="1"/>
        <pt x="210" y="289" on="1"/>
        <pt x="258" y="289" on="0"/>
        <pt x="319" y="331" on="0"/>
        <pt x="319" y="375" on="1"/>
        <pt x="319" y="401" on="0"/>
        <pt x="293" y="430" on="0"/>
        <pt x="271" y="430" on="1"/>
      </contour>
    </TTGlyph>
    <TTGlyph name="eacute" xMin="38" yMin="-7" xMax="436" yMax="733">
      <component glyphName="e" x="0" y="0" flags="0x0"/>
      <component glyphName="acute" x="183" y="0" flags="0x0"/>
    </TTGlyph>
    <TTGlyph name="ebreve" xMin="38" yMin="-7" xMax="436" yMax="715">
      <component glyphName="e" x="0" y="0" flags="0x0"/>
      <component glyphName="breve" x="119" y="0" flags="0x0"/>
    </TTGlyph>
    <TTGlyph name="ecaron" xMin="38" yMin="-7" xMax="436" yMax="721">
      <component glyphName="e" x="0" y="0" flags="0x0"/>
      <component glyphName="caron" x="120" y="0" flags="0x0"/>
    </TTGlyph>
    <TTGlyph name="ecircumflex" xMin="38" yMin="-7" xMax="436" yMax="718">
      <component glyphName="e" x="0" y="0" flags="0x0"/>
      <component glyphName="circumflex" x="119" y="0" flags="0x0"/>
    </TTGlyph>
    <TTGlyph name="edieresis" xMin="38" yMin="-7" xMax="436" yMax="702">
      <component glyphName="e" x="0" y="0" flags="0x0"/>
      <component glyphName="dieresis" x="117" y="0" flags="0x0"/>
    </TTGlyph>
    <TTGlyph name="edotaccent" xMin="38" yMin="-7" xMax="436" yMax="702">
      <component glyphName="e" x="0" y="0" flags="0x0"/>
      <component glyphName="dotaccent" x="116" y="0" flags="0x0"/>
    </TTGlyph>
    <TTGlyph name="egrave" xMin="38" yMin="-7" xMax="436" yMax="733">
      <component glyphName="e" x="0" y="0" flags="0x0"/>
      <component glyphName="grave" x="111" y="0" flags="0x0"/>
    </TTGlyph>
    <TTGlyph name="eight" xMin="21" yMin="-7" xMax="444" yMax="707">
      <contour>
        <pt x="114" y="-7" on="0"/>
        <pt x="21" y="87" on="0"/>
        <pt x="21" y="167" on="1"/>
        <pt x="21" y="186" on="0"/>
        <pt x="22" y="196" on="1"/>
        <pt x="36" y="321" on="0"/>
        <pt x="135" y="373" on="1"/>
        <pt x="105" y="397" on="0"/>
        <pt x="72" y="457" on="0"/>
        <pt x="72" y="500" on="1"/>
        <pt x="72" y="562" on="0"/>
        <pt x="124" y="656" on="0"/>
        <pt x="218" y="707" on="0"/>
        <pt x="280" y="707" on="1"/>
        <pt x="355" y="707" on="0"/>
        <pt x="444" y="626" on="0"/>
        <pt x="444" y="557" on="1"/>
        <pt x="444" y="542" on="0"/>
        <pt x="443" y="534" on="1"/>
        <pt x="432" y="426" on="0"/>
        <pt x="341" y="378" on="1"/>
        <pt x="380" y="353" on="0"/>
        <pt x="424" y="282" on="0"/>
        <pt x="424" y="226" on="1"/>
        <pt x="424" y="217" on="0"/>
        <pt x="422" y="195" on="1"/>
        <pt x="412" y="108" on="0"/>
        <pt x="297" y="-7" on="0"/>
        <pt x="202" y="-7" on="1"/>
      </contour>
      <contour>
        <pt x="322" y="473" on="0"/>
        <pt x="322" y="543" on="1"/>
        <pt x="322" y="574" on="0"/>
        <pt x="292" y="607" on="0"/>
        <pt x="268" y="607" on="1"/>
        <pt x="242" y="607" on="0"/>
        <pt x="202" y="568" on="0"/>
        <pt x="198" y="532" on="1"/>
        <pt x="195" y="495" on="0"/>
        <pt x="227" y="449" on="0"/>
        <pt x="260" y="429" on="1"/>
      </contour>
      <contour>
        <pt x="248" y="93" on="0"/>
        <pt x="295" y="161" on="0"/>
        <pt x="295" y="209" on="1"/>
        <pt x="295" y="249" on="0"/>
        <pt x="254" y="294" on="0"/>
        <pt x="213" y="318" on="1"/>
        <pt x="181" y="295" on="0"/>
        <pt x="148" y="229" on="0"/>
        <pt x="148" y="177" on="1"/>
        <pt x="148" y="135" on="0"/>
        <pt x="183" y="93" on="0"/>
        <pt x="211" y="93" on="1"/>
      </contour>
    </TTGlyph>
    <TTGlyph name="ellipsis" xMin="3" yMin="-2" xMax="511" yMax="137">
      <contour>
        <pt x="3" y="-2" on="0"/>
        <pt x="6" y="26" on="1"/>
        <pt x="15" y="109" on="1"/>
        <pt x="18" y="137" on="0"/>
        <pt x="69" y="137" on="1"/>
        <pt x="92" y="137" on="1"/>
        <pt x="143" y="137" on="0"/>
        <pt x="140" y="109" on="1"/>
        <pt x="132" y="26" on="1"/>
        <pt x="127" y="-2" on="0"/>
        <pt x="77" y="-2" on="1"/>
        <pt x="54" y="-2" on="1"/>
      </contour>
      <contour>
        <pt x="187" y="-2" on="0"/>
        <pt x="190" y="26" on="1"/>
        <pt x="199" y="109" on="1"/>
        <pt x="202" y="137" on="0"/>
        <pt x="253" y="137" on="1"/>
        <pt x="276" y="137" on="1"/>
        <pt x="327" y="137" on="0"/>
        <pt x="324" y="109" on="1"/>
        <pt x="316" y="26" on="1"/>
        <pt x="311" y="-2" on="0"/>
        <pt x="261" y="-2" on="1"/>
        <pt x="237" y="-2" on="1"/>
      </contour>
      <contour>
        <pt x="371" y="-2" on="0"/>
        <pt x="374" y="26" on="1"/>
        <pt x="383" y="109" on="1"/>
        <pt x="386" y="137" on="0"/>
        <pt x="437" y="137" on="1"/>
        <pt x="461" y="137" on="1"/>
        <pt x="511" y="137" on="0"/>
        <pt x="508" y="109" on="1"/>
        <pt x="499" y="26" on="1"/>
        <pt x="496" y="-2" on="0"/>
        <pt x="446" y="-2" on="1"/>
        <pt x="421" y="-2" on="1"/>
      </contour>
    </TTGlyph>
    <TTGlyph name="emacron" xMin="38" yMin="-7" xMax="436" yMax="688">
      <component glyphName="e" x="0" y="0" flags="0x0"/>
      <component glyphName="macron" x="119" y="0" flags="0x0"/>
    </TTGlyph>
    <TTGlyph name="emdash" xMin="-1" yMin="219" xMax="888" yMax="312">
      <contour>
        <pt x="-1" y="219" on="0"/>
        <pt x="-1" y="249" on="1"/>
        <pt x="0" y="261" on="1"/>
        <pt x="1" y="269" on="1"/>
        <pt x="3" y="292" on="0"/>
        <pt x="18" y="312" on="0"/>
        <pt x="31" y="312" on="1"/>
        <pt x="866" y="312" on="1"/>
        <pt x="888" y="312" on="0"/>
        <pt x="888" y="281" on="1"/>
        <pt x="887" y="269" on="1"/>
        <pt x="886" y="261" on="1"/>
        <pt x="884" y="239" on="0"/>
        <pt x="870" y="219" on="0"/>
        <pt x="856" y="219" on="1"/>
        <pt x="21" y="219" on="1"/>
      </contour>
    </TTGlyph>
    <TTGlyph name="endash" xMin="-1" yMin="219" xMax="445" yMax="312">
      <contour>
        <pt x="-1" y="219" on="0"/>
        <pt x="-1" y="249" on="1"/>
        <pt x="0" y="261" on="1"/>
        <pt x="1" y="269" on="1"/>
        <pt x="3" y="292" on="0"/>
        <pt x="18" y="312" on="0"/>
        <pt x="31" y="312" on="1"/>
        <pt x="423" y="312" on="1"/>
        <pt x="445" y="312" on="0"/>
        <pt x="445" y="281" on="1"/>
        <pt x="444" y="269" on="1"/>
        <pt x="443" y="261" on="1"/>
        <pt x="441" y="239" on="0"/>
        <pt x="427" y="219" on="0"/>
        <pt x="413" y="219" on="1"/>
        <pt x="21" y="219" on="1"/>
      </contour>
    </TTGlyph>
    <TTGlyph name="eng" xMin="27" yMin="-212" xMax="435" yMax="530">
      <contour>
        <pt x="156" y="-212" on="0"/>
        <pt x="161" y="-169" on="1"/>
        <pt x="162" y="-152" on="0"/>
        <pt x="182" y="-107" on="0"/>
        <pt x="194" y="-107" on="1"/>
        <pt x="199" y="-107" on="0"/>
        <pt x="217" y="-111" on="0"/>
        <pt x="226" y="-111" on="1"/>
        <pt x="241" y="-111" on="0"/>
        <pt x="258" y="-87" on="0"/>
        <pt x="261" y="-59" on="1"/>
        <pt x="303" y="361" on="1"/>
        <pt x="304" y="367" on="0"/>
        <pt x="304" y="377" on="1"/>
        <pt x="304" y="402" on="0"/>
        <pt x="284" y="426" on="0"/>
        <pt x="262" y="426" on="1"/>
        <pt x="242" y="426" on="0"/>
        <pt x="206" y="400" on="0"/>
        <pt x="193" y="380" on="1"/>
        <pt x="156" y="26" on="1"/>
        <pt x="153" y="-2" on="0"/>
        <pt x="103" y="-2" on="1"/>
        <pt x="77" y="-2" on="1"/>
        <pt x="27" y="-2" on="0"/>
        <pt x="29" y="26" on="1"/>
        <pt x="65" y="358" on="1"/>
        <pt x="70" y="409" on="0"/>
        <pt x="70" y="448" on="1"/>
        <pt x="70" y="465" on="0"/>
        <pt x="68" y="485" on="0"/>
        <pt x="69" y="491" on="1"/>
        <pt x="70" y="507" on="0"/>
        <pt x="141" y="522" on="0"/>
        <pt x="166" y="522" on="1"/>
        <pt x="183" y="522" on="0"/>
        <pt x="193" y="498" on="0"/>
        <pt x="194" y="464" on="0"/>
        <pt x="195" y="455" on="1"/>
        <pt x="220" y="488" on="0"/>
        <pt x="291" y="530" on="0"/>
        <pt x="331" y="530" on="1"/>
        <pt x="382" y="530" on="0"/>
        <pt x="435" y="470" on="0"/>
        <pt x="435" y="414" on="1"/>
        <pt x="435" y="405" on="0"/>
        <pt x="433" y="385" on="1"/>
        <pt x="385" y="-61" on="1"/>
        <pt x="377" y="-138" on="0"/>
        <pt x="297" y="-212" on="0"/>
        <pt x="244" y="-212" on="1"/>
      </contour>
    </TTGlyph>
    <TTGlyph name="eogonek" xMin="38" yMin="-153" xMax="452" yMax="530">
      <contour>
        <pt x="439" y="-81" on="0"/>
        <pt x="452" y="-94" on="0"/>
        <pt x="452" y="-109" on="1"/>
        <pt x="452" y="-130" on="0"/>
        <pt x="437" y="-138" on="1"/>
        <pt x="410" y="-153" on="0"/>
        <pt x="377" y="-153" on="1"/>
        <pt x="321" y="-153" on="0"/>
        <pt x="282" y="-94" on="0"/>
        <pt x="282" y="-61" on="1"/>
        <pt x="282" y="-33" on="0"/>
        <pt x="293" y="0" on="1"/>
        <pt x="264" y="-7" on="0"/>
        <pt x="234" y="-7" on="1"/>
        <pt x="141" y="-7" on="0"/>
        <pt x="38" y="96" on="0"/>
        <pt x="38" y="202" on="1"/>
        <pt x="38" y="346" on="0"/>
        <pt x="160" y="530" on="0"/>
        <pt x="279" y="530" on="1"/>
        <pt x="339" y="530" on="0"/>
        <pt x="409" y="485" on="0"/>
        <pt x="436" y="421" on="0"/>
        <pt x="436" y="390" on="1"/>
        <pt x="436" y="305" on="0"/>
        <pt x="324" y="207" on="0"/>
        <pt x="236" y="207" on="1"/>
        <pt x="197" y="207" on="0"/>
        <pt x="165" y="212" on="1"/>
        <pt x="165" y="146" on="0"/>
        <pt x="211" y="93" on="0"/>
        <pt x="255" y="93" on="1"/>
        <pt x="285" y="93" on="0"/>
        <pt x="327" y="111" on="0"/>
        <pt x="353" y="127" on="1"/>
        <pt x="370" y="139" on="0"/>
        <pt x="376" y="139" on="1"/>
        <pt x="385" y="139" on="0"/>
        <pt x="394" y="118" on="0"/>
        <pt x="394" y="101" on="1"/>
        <pt x="394" y="67" on="0"/>
        <pt x="379" y="45" on="1"/>
        <pt x="369" y="33" on="0"/>
        <pt x="365" y="30" on="1"/>
        <pt x="347" y="-6" on="0"/>
        <pt x="347" y="-43" on="1"/>
        <pt x="347" y="-68" on="0"/>
        <pt x="375" y="-86" on="0"/>
        <pt x="396" y="-86" on="1"/>
        <pt x="404" y="-86" on="0"/>
        <pt x="421" y="-81" on="0"/>
        <pt x="426" y="-81" on="1"/>
      </contour>
      <contour>
        <pt x="193" y="430" on="0"/>
        <pt x="171" y="289" on="1"/>
        <pt x="210" y="289" on="1"/>
        <pt x="258" y="289" on="0"/>
        <pt x="319" y="331" on="0"/>
        <pt x="319" y="375" on="1"/>
        <pt x="319" y="401" on="0"/>
        <pt x="293" y="430" on="0"/>
        <pt x="271" y="430" on="1"/>
      </contour>
    </TTGlyph>
    <TTGlyph name="equal" xMin="19" yMin="94" xMax="425" yMax="361">
      <contour>
        <pt x="47" y="268" on="0"/>
        <pt x="37" y="282" on="0"/>
        <pt x="37" y="297" on="1"/>
        <pt x="37" y="306" on="0"/>
        <pt x="38" y="311" on="1"/>
        <pt x="39" y="318" on="1"/>
        <pt x="42" y="361" on="0"/>
        <pt x="67" y="361" on="1"/>
        <pt x="404" y="361" on="1"/>
        <pt x="416" y="361" on="0"/>
        <pt x="425" y="341" on="0"/>
        <pt x="423" y="318" on="1"/>
        <pt x="422" y="311" on="1"/>
        <pt x="419" y="288" on="0"/>
        <pt x="406" y="268" on="0"/>
        <pt x="394" y="268" on="1"/>
        <pt x="58" y="268" on="1"/>
      </contour>
      <contour>
        <pt x="28" y="94" on="0"/>
        <pt x="19" y="107" on="0"/>
        <pt x="19" y="121" on="1"/>
        <pt x="19" y="130" on="0"/>
        <pt x="20" y="136" on="1"/>
        <pt x="21" y="144" on="1"/>
        <pt x="24" y="186" on="0"/>
        <pt x="49" y="186" on="1"/>
        <pt x="386" y="186" on="1"/>
        <pt x="405" y="186" on="0"/>
        <pt x="405" y="158" on="1"/>
        <pt x="405" y="149" on="0"/>
        <pt x="404" y="144" on="1"/>
        <pt x="403" y="136" on="1"/>
        <pt x="401" y="114" on="0"/>
        <pt x="388" y="94" on="0"/>
        <pt x="376" y="94" on="1"/>
        <pt x="39" y="94" on="1"/>
      </contour>
    </TTGlyph>
    <TTGlyph name="estimated" xMin="22" yMin="-7" xMax="593" yMax="707">
      <contour>
        <pt x="390" y="707" on="0"/>
        <pt x="518" y="624" on="0"/>
        <pt x="593" y="465" on="0"/>
        <pt x="593" y="355" on="1"/>
        <pt x="173" y="355" on="1"/>
        <pt x="173" y="99" on="1"/>
        <pt x="235" y="48" on="0"/>
        <pt x="320" y="48" on="1"/>
        <pt x="367" y="48" on="0"/>
        <pt x="464" y="93" on="0"/>
        <pt x="492" y="131" on="1"/>
        <pt x="497" y="137" on="0"/>
        <pt x="509" y="146" on="0"/>
        <pt x="514" y="146" on="1"/>
        <pt x="525" y="146" on="0"/>
        <pt x="543" y="128" on="0"/>
        <pt x="543" y="119" on="1"/>
        <pt x="543" y="110" on="0"/>
        <pt x="533" y="97" on="1"/>
        <pt x="491" y="48" on="0"/>
        <pt x="380" y="-7" on="0"/>
        <pt x="320" y="-7" on="1"/>
        <pt x="237" y="-7" on="0"/>
        <pt x="102" y="79" on="0"/>
        <pt x="22" y="243" on="0"/>
        <pt x="22" y="355" on="1"/>
        <pt x="22" y="465" on="0"/>
        <pt x="99" y="624" on="0"/>
        <pt x="231" y="707" on="0"/>
        <pt x="312" y="707" on="1"/>
      </contour>
      <contour>
        <pt x="173" y="405" on="1"/>
        <pt x="446" y="405" on="1"/>
        <pt x="446" y="607" on="1"/>
        <pt x="388" y="657" on="0"/>
        <pt x="312" y="657" on="1"/>
        <pt x="233" y="657" on="0"/>
        <pt x="173" y="608" on="1"/>
      </contour>
    </TTGlyph>
</ttFont>
